<?xml version="1.0" encoding="UTF-8" standalone="no"?><!DOCTYPE svg PUBLIC "-//W3C//DTD SVG 1.1//EN" "http://www.w3.org/Graphics/SVG/1.1/DTD/svg11.dtd"><svg width="100%" height="100%" viewBox="0 0 2057 838" version="1.1" xmlns="http://www.w3.org/2000/svg" xmlns:xlink="http://www.w3.org/1999/xlink" xml:space="preserve" xmlns:serif="http://www.serif.com/" style="fill-rule:evenodd;clip-rule:evenodd;stroke-linejoin:round;stroke-miterlimit:2;"><rect id="Full-logo" serif:id="Full logo" x="0" y="-0" width="2056.25" height="837.5" style="fill:none;"/><g><g id="shape"><path d="M586.52,663.298l-0,113.791l-378.844,0c-82.902,0 -150.107,-67.205 -150.107,-150.107l-0,-406.536c-0,-82.901 67.205,-150.106 150.107,-150.106l406.536,-0c82.901,-0 150.106,67.205 150.106,150.107l0,378.844l-113.791,-0l0,-378.845c0,-20.056 -16.259,-36.315 -36.315,-36.315l-406.536,-0c-20.057,-0 -36.316,16.259 -36.316,36.315l0,406.536c0,20.057 16.259,36.316 36.316,36.316l378.844,0Z" style="fill:#6ab04a;"/><path d="M381.498,361.929l0,123.57l170.157,0l0,113.792l-198.071,-0l-16.833,-1.666l-16.031,-4.871l-14.78,-7.891l-13.08,-10.725l-10.725,-13.08l-7.891,-14.781l-4.871,-16.03l-1.666,-16.833l0,-179.399l1.666,-16.833l4.871,-16.031l7.891,-14.78l10.725,-13.08l13.08,-10.725l14.78,-7.891l16.031,-4.871l16.833,-1.666l200.596,0l0,113.791l-56.895,0c-0,0 -74.075,0 -115.787,0Z" style="fill:#ffa808;"/><rect x="646.082" y="660.152" width="118.236" height="116.937" style="fill:#ffa808;"/></g><g><g><path d="M1397.54,505.817c-19.322,6.507 -42.451,9.761 -69.385,9.761c-56.211,-0 -102.663,-16.958 -139.357,-50.874c-44.5,-40.817 -66.75,-100.761 -66.75,-179.832c-0,-79.662 22.836,-139.902 68.507,-180.719c37.279,-33.324 83.633,-49.986 139.064,-49.986c55.82,-0 102.663,17.648 140.527,52.944c43.72,40.817 65.58,97.902 65.58,171.254c-0,38.846 -4.685,71.381 -14.053,97.606c-7.612,25.043 -18.835,45.846 -33.668,62.409l49.77,47.029l-47.135,49.69l-52.113,-49.69c-15.809,9.662 -29.471,16.465 -40.987,20.408Zm-19.322,-78.676l-43.622,-42.001l46.549,-49.098l43.622,42c6.832,-14.197 11.613,-26.62 14.346,-37.268c4.294,-15.972 6.441,-34.606 6.441,-55.902c-0,-48.901 -9.905,-86.712 -29.716,-113.43c-19.81,-26.718 -48.745,-40.078 -86.805,-40.078c-35.717,0 -64.213,12.817 -85.487,38.451c-21.275,25.634 -31.912,63.987 -31.912,115.057c0,59.747 15.224,102.536 45.672,128.367c19.712,16.761 43.329,25.141 70.849,25.141c10.344,0 20.298,-1.281 29.862,-3.845c5.27,-1.38 12.003,-3.845 20.201,-7.394Z" style="fill:#6ab04a;fill-rule:nonzero;"/><path d="M1799.79,332.492l-93.1,0l0,170.959l-88.122,0l-0,-435.974l211.669,-0c30.253,0.591 53.527,4.338 69.825,11.239c16.297,6.902 30.106,17.057 41.426,30.465c9.369,11.042 16.785,23.268 22.25,36.676c5.465,13.409 8.198,28.691 8.198,45.846c-0,20.704 -5.172,41.063 -15.517,61.078c-10.344,20.014 -27.422,34.162 -51.234,42.443c19.908,8.085 34.01,19.571 42.305,34.458c8.295,14.888 12.442,37.613 12.442,68.177l0,29.282c0,19.915 0.781,33.422 2.342,40.521c2.343,11.24 7.808,19.521 16.395,24.845l0,10.944l-99.247,0c-2.733,-9.662 -4.684,-17.451 -5.856,-23.366c-2.342,-12.226 -3.61,-24.747 -3.805,-37.564l-0.586,-40.521c-0.39,-27.803 -5.416,-46.339 -15.077,-55.606c-9.662,-9.268 -27.764,-13.902 -54.308,-13.902Zm54.747,-79.268c17.956,-8.282 26.934,-24.648 26.934,-49.099c0,-26.422 -8.685,-44.169 -26.056,-53.239c-9.759,-5.127 -24.397,-7.691 -43.915,-7.691l-104.81,0l0,117.128l102.175,-0c20.299,-0 35.522,-2.366 45.672,-7.099Z" style="fill:#6ab04a;fill-rule:nonzero;"/></g><g><path d="M1271.62,642.153c-3.581,-15.892 -10.231,-27.206 -19.951,-33.943c-9.719,-6.737 -22.422,-10.106 -38.11,-10.106c-11.083,0 -20.632,2.246 -28.646,6.737c-8.014,4.492 -14.622,10.537 -19.822,18.138c-5.201,7.601 -9.038,16.367 -11.51,26.3c-2.473,9.932 -3.709,20.426 -3.709,31.482c0,10.364 1.066,20.556 3.197,30.575c2.132,10.019 5.67,18.958 10.615,26.818c4.945,7.859 11.595,14.208 19.95,19.044c8.355,4.837 18.842,7.256 31.46,7.256c7.844,-0 15.005,-1.296 21.485,-3.887c6.479,-2.591 12.149,-6.176 17.009,-10.753c4.859,-4.578 8.952,-9.976 12.277,-16.195c3.325,-6.218 5.84,-13.042 7.545,-20.469l18.16,-0c-2.046,8.982 -5.03,17.49 -8.952,25.522c-3.922,8.032 -9.08,15.072 -15.474,21.118c-6.395,6.045 -14.153,10.839 -23.276,14.38c-9.122,3.541 -19.822,5.312 -32.099,5.312c-14.153,-0 -26.259,-2.634 -36.32,-7.903c-10.06,-5.269 -18.287,-12.394 -24.682,-21.377c-6.394,-8.982 -11.04,-19.39 -13.939,-31.222c-2.899,-11.833 -4.348,-24.4 -4.348,-37.701c-0,-17.792 2.174,-32.907 6.522,-45.344c4.348,-12.438 10.359,-22.586 18.032,-30.446c7.673,-7.86 16.71,-13.56 27.112,-17.101c10.401,-3.541 21.74,-5.312 34.017,-5.312c9.379,0 18.117,1.252 26.217,3.757c8.099,2.505 15.261,6.262 21.485,11.271c6.223,5.01 11.339,11.185 15.346,18.527c4.007,7.341 6.778,15.849 8.313,25.522l-17.904,0Z" style="fill:#fff;"/><path d="M1417.92,640.339l15.346,0l0,134.22l-15.346,-0l-0,-18.656c-2.046,2.418 -4.348,4.923 -6.906,7.514c-2.558,2.591 -5.499,4.966 -8.824,7.126c-3.325,2.159 -7.204,3.973 -11.638,5.441c-4.433,1.468 -9.548,2.202 -15.346,2.202c-8.867,0 -16.284,-1.252 -22.252,-3.757c-5.968,-2.504 -10.785,-6.002 -14.451,-10.494c-3.666,-4.491 -6.309,-9.716 -7.929,-15.676c-1.62,-5.959 -2.43,-12.48 -2.43,-19.563l0,-88.357l15.346,0l0,88.098c0,11.574 2.643,20.427 7.929,26.559c5.286,6.132 13.983,9.198 26.089,9.198c6.309,0 11.979,-1.252 17.009,-3.757c5.03,-2.504 9.25,-6.002 12.661,-10.494c3.41,-4.491 6.053,-9.846 7.928,-16.065c1.876,-6.218 2.814,-13.041 2.814,-20.469l-0,-73.07Z" style="fill:#fff;"/><path d="M1477.52,774.559l-0,-134.22l15.346,0l0,134.22l-15.346,-0Zm-0.768,-163.499l0,-23.061l16.881,0l0,23.061l-16.881,-0Z" style="fill:#fff;"/><path d="M1545.81,732.583c2.387,11.574 6.692,19.735 12.916,24.486c6.224,4.75 15.133,7.125 26.728,7.125c5.627,0 10.487,-0.691 14.579,-2.072c4.093,-1.382 7.46,-3.239 10.103,-5.571c2.643,-2.332 4.647,-4.967 6.011,-7.903c1.364,-2.937 2.046,-6.046 2.046,-9.328c0,-6.564 -2.089,-11.444 -6.266,-14.64c-4.178,-3.196 -9.421,-5.7 -15.73,-7.514c-6.309,-1.814 -13.13,-3.369 -20.462,-4.664c-7.332,-1.296 -14.153,-3.239 -20.462,-5.83c-6.309,-2.591 -11.552,-6.305 -15.73,-11.142c-4.177,-4.837 -6.266,-11.66 -6.266,-20.47c-0,-11.228 4.05,-20.426 12.149,-27.595c8.1,-7.169 19.567,-10.753 34.401,-10.753c14.324,-0 25.961,3.239 34.913,9.717c8.952,6.477 14.366,17.317 16.242,32.518l-15.602,-0c-1.364,-10.364 -5.244,-17.663 -11.638,-21.895c-6.394,-4.232 -14.451,-6.348 -24.17,-6.348c-9.72,-0 -17.137,2.116 -22.252,6.348c-5.116,4.232 -7.674,9.803 -7.674,16.713c0,6.046 2.089,10.666 6.267,13.862c4.177,3.196 9.421,5.787 15.73,7.774c6.309,1.986 13.129,3.757 20.461,5.311c7.333,1.555 14.153,3.757 20.462,6.608c6.309,2.85 11.553,6.693 15.73,11.53c4.178,4.837 6.267,11.574 6.267,20.211c-0,6.391 -1.365,12.048 -4.093,16.971c-2.728,4.924 -6.479,9.026 -11.254,12.308c-4.774,3.282 -10.444,5.744 -17.009,7.385c-6.564,1.641 -13.769,2.461 -21.612,2.461c-7.844,0 -14.792,-1.166 -20.846,-3.498c-6.053,-2.332 -11.211,-5.57 -15.474,-9.716c-4.263,-4.146 -7.588,-8.983 -9.975,-14.51c-2.387,-5.528 -3.751,-11.488 -4.092,-17.879l15.602,-0Z" style="fill:#fff;"/><path d="M1671.91,774.559l0,-134.22l15.347,0l-0,134.22l-15.347,-0Zm-0.767,-163.499l-0,-23.061l16.881,0l-0,23.061l-16.881,-0Z" style="fill:#fff;"/><path d="M1746.59,774.559l-15.347,-0l0,-134.22l15.347,0l-0,18.656c6.138,-6.564 12.49,-11.919 19.055,-16.064c6.564,-4.146 14.451,-6.219 23.658,-6.219c8.185,-0 15.773,1.425 22.764,4.275c6.991,2.85 12.874,7.817 17.648,14.899c3.24,4.837 5.158,9.803 5.755,14.899c0.597,5.096 0.895,10.408 0.895,15.935l0,87.839l-15.346,-0l0,-87.58c0,-12.091 -2.643,-21.16 -7.929,-27.206c-5.286,-6.046 -14.067,-9.069 -26.344,-9.069c-4.775,-0 -9.123,0.734 -13.045,2.202c-3.921,1.469 -7.46,3.412 -10.614,5.83c-3.155,2.419 -5.84,5.183 -8.057,8.292c-2.217,3.109 -3.922,6.391 -5.115,9.846c-1.535,4.319 -2.473,8.464 -2.814,12.437c-0.341,3.973 -0.511,8.292 -0.511,12.956l-0,72.292Z" style="fill:#fff;"/><path d="M1974.23,698.121c0,-6.564 -0.895,-12.739 -2.685,-18.526c-1.791,-5.787 -4.434,-10.797 -7.929,-15.029c-3.496,-4.232 -7.886,-7.6 -13.172,-10.105c-5.286,-2.505 -11.34,-3.757 -18.16,-3.757c-6.821,-0 -12.831,1.295 -18.032,3.887c-5.201,2.591 -9.634,6.045 -13.3,10.364c-3.666,4.319 -6.608,9.328 -8.824,15.028c-2.217,5.701 -3.666,11.747 -4.348,18.138l86.45,0Zm-86.45,12.956c-0,7.255 0.937,14.121 2.813,20.599c1.876,6.478 4.647,12.092 8.313,16.842c3.666,4.751 8.312,8.551 13.939,11.401c5.627,2.85 12.107,4.275 19.439,4.275c10.06,0 18.671,-2.677 25.833,-8.032c7.161,-5.355 11.936,-12.956 14.323,-22.802l17.137,0c-1.876,6.392 -4.348,12.308 -7.418,17.749c-3.069,5.442 -6.906,10.192 -11.509,14.251c-4.604,4.06 -10.061,7.212 -16.37,9.458c-6.309,2.246 -13.641,3.368 -21.996,3.368c-10.572,0 -19.695,-1.813 -27.368,-5.441c-7.673,-3.627 -13.982,-8.594 -18.927,-14.899c-4.945,-6.305 -8.611,-13.733 -10.998,-22.283c-2.387,-8.551 -3.581,-17.749 -3.581,-27.596c0,-9.846 1.407,-19.087 4.22,-27.724c2.814,-8.637 6.821,-16.195 12.022,-22.673c5.2,-6.477 11.552,-11.573 19.055,-15.287c7.502,-3.714 16.028,-5.571 25.577,-5.571c18.245,-0 32.568,6.348 42.969,19.045c10.402,12.696 15.517,31.136 15.347,55.32l-102.82,-0Z" style="fill:#fff;"/></g></g><rect x="935.42" y="147.944" width="18.179" height="503.624" style="fill:#ffa808;"/></g></svg>