<svg width="412" height="512" viewBox="0 0 412 512" fill="none" xmlns="http://www.w3.org/2000/svg">
<g clip-path="url(#clip0_656_2)">
<rect width="412" height="512" fill="white"/>
<rect y="142" width="412" height="370" fill="#101026"/>
<path d="M57.524 220.436C56.4413 220.436 55.4053 220.249 54.416 219.876C53.4453 219.503 52.652 218.933 52.036 218.168C51.42 217.403 51.112 216.451 51.112 215.312C51.112 214.304 51.336 213.52 51.784 212.96C52.232 212.381 52.792 211.98 53.464 211.756C54.136 211.532 54.7893 211.42 55.424 211.42C54.8267 212.055 54.3693 212.708 54.052 213.38C53.7533 214.052 53.604 214.696 53.604 215.312C53.604 215.947 53.7627 216.544 54.08 217.104C54.416 217.645 54.9107 218.084 55.564 218.42C56.2173 218.775 57.0293 218.952 58 218.952C58.84 218.952 59.652 218.812 60.436 218.532C61.2387 218.252 61.892 217.832 62.396 217.272C62.9187 216.712 63.18 216.012 63.18 215.172C63.18 214.407 62.956 213.753 62.508 213.212C62.0787 212.652 61.5187 212.157 60.828 211.728C60.1373 211.28 59.4093 210.86 58.644 210.468C57.8787 210.057 57.1507 209.619 56.46 209.152C55.7693 208.685 55.2 208.144 54.752 207.528C54.3227 206.912 54.108 206.175 54.108 205.316C54.108 204.551 54.2947 203.739 54.668 202.88C55.06 202.003 55.6107 201.181 56.32 200.416C57.0293 199.651 57.888 199.035 58.896 198.568C59.904 198.083 61.024 197.84 62.256 197.84C63.544 197.84 64.4493 198.111 64.972 198.652C65.4947 199.193 65.756 199.903 65.756 200.78C65.756 201.471 65.6347 202.208 65.392 202.992C65.1493 203.776 64.8507 204.523 64.496 205.232C64.16 205.941 63.8333 206.548 63.516 207.052C63.1053 206.959 62.7973 206.8 62.592 206.576C62.3867 206.333 62.284 206.016 62.284 205.624C62.284 205.232 62.3587 204.793 62.508 204.308C62.676 203.823 62.8627 203.319 63.068 202.796C63.292 202.273 63.4787 201.769 63.628 201.284C63.796 200.78 63.88 200.341 63.88 199.968C63.88 199.632 63.7773 199.371 63.572 199.184C63.3853 198.997 62.9933 198.904 62.396 198.904C61.5 198.904 60.6787 199.1 59.932 199.492C59.1853 199.884 58.532 200.379 57.972 200.976C57.4307 201.573 57.0107 202.208 56.712 202.88C56.4133 203.533 56.264 204.131 56.264 204.672C56.264 205.344 56.4787 205.923 56.908 206.408C57.3373 206.875 57.888 207.304 58.56 207.696C59.2507 208.088 59.9693 208.48 60.716 208.872C61.4813 209.264 62.2 209.703 62.872 210.188C63.5627 210.673 64.1227 211.252 64.552 211.924C64.9813 212.596 65.196 213.417 65.196 214.388C65.196 215.359 64.972 216.217 64.524 216.964C64.0947 217.711 63.5067 218.336 62.76 218.84C62.0133 219.363 61.1827 219.755 60.268 220.016C59.372 220.296 58.4573 220.436 57.524 220.436ZM70.0507 219.568C69.0801 219.568 68.2774 219.26 67.6427 218.644C67.0267 218.047 66.7187 217.123 66.7187 215.872C66.7187 214.957 66.8961 214.061 67.2507 213.184C67.6054 212.307 68.0814 211.523 68.6787 210.832C69.2761 210.123 69.9387 209.563 70.6667 209.152C71.4134 208.741 72.1694 208.536 72.9347 208.536C73.7187 208.536 74.2787 208.732 74.6147 209.124C74.9694 209.516 75.1467 209.973 75.1467 210.496C75.1467 211.019 75.0161 211.532 74.7547 212.036C74.5121 212.521 74.1761 212.764 73.7467 212.764C73.3921 212.764 73.1027 212.587 72.8787 212.232C73.0654 212.101 73.2614 211.859 73.4667 211.504C73.6721 211.149 73.7747 210.692 73.7747 210.132C73.7747 209.983 73.7374 209.871 73.6627 209.796C73.5881 209.703 73.4481 209.656 73.2427 209.656C72.7761 209.656 72.2814 209.871 71.7587 210.3C71.2547 210.711 70.7787 211.252 70.3307 211.924C69.9014 212.577 69.5467 213.277 69.2667 214.024C69.0054 214.752 68.8747 215.424 68.8747 216.04C68.8747 216.563 69.0054 217.048 69.2667 217.496C69.5467 217.925 70.0787 218.14 70.8627 218.14C71.5721 218.14 72.3094 217.935 73.0747 217.524C73.8401 217.113 74.5587 216.544 75.2307 215.816C75.9027 215.069 76.4441 214.183 76.8547 213.156L77.4147 213.66C76.9667 214.799 76.3414 215.816 75.5387 216.712C74.7547 217.589 73.8774 218.28 72.9067 218.784C71.9547 219.307 71.0027 219.568 70.0507 219.568ZM77.7789 219.316C77.1629 219.316 76.6309 219.111 76.1829 218.7C75.7163 218.289 75.4829 217.673 75.4829 216.852C75.4829 216.199 75.6323 215.489 75.9309 214.724C76.2296 213.959 76.6403 213.203 77.1629 212.456C77.6856 211.709 78.2829 211.037 78.9549 210.44C79.6269 209.824 80.3456 209.329 81.1109 208.956C81.8763 208.583 82.6416 208.396 83.4069 208.396C84.2096 208.396 84.8909 208.601 85.4509 209.012C86.0109 209.423 86.2909 209.964 86.2909 210.636C86.2909 211.14 86.1136 211.504 85.7589 211.728C85.4043 211.952 84.9843 212.017 84.4989 211.924C84.5363 211.756 84.5643 211.588 84.5829 211.42C84.6203 211.252 84.6389 211.075 84.6389 210.888C84.6389 210.515 84.5643 210.179 84.4149 209.88C84.2656 209.581 83.9483 209.432 83.4629 209.432C82.9403 209.432 82.4083 209.609 81.8669 209.964C81.3256 210.319 80.8029 210.785 80.2989 211.364C79.8136 211.924 79.3749 212.549 78.9829 213.24C78.5909 213.912 78.2829 214.575 78.0589 215.228C77.8349 215.881 77.7229 216.469 77.7229 216.992C77.7229 217.589 77.9376 217.888 78.3669 217.888C78.7963 217.888 79.2723 217.683 79.7949 217.272C80.3176 216.843 80.8403 216.311 81.3629 215.676C81.9043 215.041 82.4176 214.397 82.9029 213.744C83.3883 213.072 83.8083 212.503 84.1629 212.036C84.2189 211.943 84.2936 211.896 84.3869 211.896C84.4616 211.915 84.6016 211.961 84.8069 212.036C85.0309 212.092 85.2363 212.185 85.4229 212.316C85.6096 212.447 85.7029 212.615 85.7029 212.82C85.7029 213.007 85.6189 213.249 85.4509 213.548C85.3016 213.828 85.1149 214.145 84.8909 214.5C84.6856 214.836 84.4989 215.181 84.3309 215.536C84.1816 215.872 84.1069 216.199 84.1069 216.516C84.1069 216.759 84.1723 216.992 84.3029 217.216C84.4336 217.421 84.6483 217.524 84.9469 217.524C85.3949 217.524 86.0203 217.197 86.8229 216.544C87.6443 215.872 88.4749 214.743 89.3149 213.156L89.8469 213.688C89.3989 214.696 88.8576 215.592 88.2229 216.376C87.6069 217.141 86.9536 217.739 86.2629 218.168C85.5723 218.616 84.8723 218.84 84.1629 218.84C83.3976 218.84 82.8283 218.597 82.4549 218.112C82.0816 217.627 81.8763 217.104 81.8389 216.544C81.8389 216.507 81.8389 216.479 81.8389 216.46C81.8389 216.441 81.8389 216.423 81.8389 216.404C81.0923 217.3 80.4016 218.009 79.7669 218.532C79.1509 219.055 78.4883 219.316 77.7789 219.316ZM98.0883 218.56C97.3603 218.56 96.8003 218.373 96.4083 218C96.035 217.645 95.8483 217.188 95.8483 216.628C95.8483 216.255 95.9137 215.863 96.0443 215.452C96.175 215.023 96.3057 214.593 96.4363 214.164C96.567 213.735 96.6323 213.324 96.6323 212.932C96.6323 212.521 96.5297 212.241 96.3243 212.092C96.1377 211.924 95.9137 211.84 95.6523 211.84C95.0923 211.84 94.5137 212.073 93.9163 212.54C93.3377 212.988 92.7683 213.557 92.2083 214.248C91.667 214.939 91.1537 215.657 90.6683 216.404C90.183 217.151 89.763 217.823 89.4083 218.42C89.0537 218.42 88.7177 218.355 88.4003 218.224C88.083 218.112 87.8123 217.907 87.5883 217.608C87.607 217.515 87.719 217.235 87.9243 216.768C88.111 216.283 88.3257 215.713 88.5683 215.06C88.811 214.388 89.0257 213.688 89.2123 212.96C89.399 212.232 89.4923 211.569 89.4923 210.972C89.623 210.823 89.819 210.673 90.0803 210.524C90.3603 210.375 90.6497 210.3 90.9483 210.3C91.6017 210.3 91.9283 210.58 91.9283 211.14C91.9283 211.364 91.8817 211.7 91.7883 212.148C91.7137 212.577 91.6017 213.072 91.4523 213.632C91.9377 212.979 92.4697 212.363 93.0483 211.784C93.627 211.205 94.2243 210.739 94.8403 210.384C95.475 210.011 96.1097 209.824 96.7443 209.824C97.547 209.824 98.135 210.095 98.5083 210.636C98.9003 211.177 99.0963 211.775 99.0963 212.428C99.0963 212.988 99.003 213.511 98.8163 213.996C98.6297 214.481 98.443 214.939 98.2563 215.368C98.0883 215.797 98.0043 216.217 98.0043 216.628C98.0043 216.927 98.0697 217.141 98.2003 217.272C98.3497 217.384 98.5083 217.44 98.6763 217.44C99.1243 217.44 99.591 217.225 100.076 216.796C100.562 216.367 101.019 215.825 101.448 215.172C101.896 214.5 102.288 213.828 102.624 213.156L103.1 213.548C102.708 214.463 102.26 215.303 101.756 216.068C101.271 216.815 100.72 217.421 100.104 217.888C99.507 218.336 98.835 218.56 98.0883 218.56ZM118.596 218.56C117.868 218.56 117.308 218.373 116.916 218C116.543 217.645 116.356 217.188 116.356 216.628C116.356 216.255 116.421 215.863 116.552 215.452C116.683 215.023 116.813 214.593 116.944 214.164C117.075 213.735 117.14 213.324 117.14 212.932C117.14 212.521 117.037 212.241 116.832 212.092C116.645 211.924 116.421 211.84 116.16 211.84C115.6 211.84 115.021 212.073 114.424 212.54C113.845 212.988 113.276 213.557 112.716 214.248C112.175 214.939 111.661 215.657 111.176 216.404C110.691 217.151 110.271 217.823 109.916 218.42C109.561 218.42 109.225 218.355 108.908 218.224C108.591 218.112 108.32 217.907 108.096 217.608C108.115 217.515 108.227 217.235 108.432 216.768C108.619 216.283 108.833 215.713 109.076 215.06C109.319 214.388 109.533 213.688 109.72 212.96C109.907 212.232 110 211.569 110 210.972C110.131 210.823 110.327 210.673 110.588 210.524C110.868 210.375 111.157 210.3 111.456 210.3C112.109 210.3 112.436 210.58 112.436 211.14C112.436 211.364 112.389 211.7 112.296 212.148C112.221 212.577 112.109 213.072 111.96 213.632C112.445 212.979 112.977 212.363 113.556 211.784C114.135 211.205 114.732 210.739 115.348 210.384C115.983 210.011 116.617 209.824 117.252 209.824C118.055 209.824 118.643 210.095 119.016 210.636C119.408 211.177 119.604 211.775 119.604 212.428C119.604 212.988 119.511 213.511 119.324 213.996C119.137 214.481 118.951 214.939 118.764 215.368C118.596 215.797 118.512 216.217 118.512 216.628C118.512 216.927 118.577 217.141 118.708 217.272C118.857 217.384 119.016 217.44 119.184 217.44C119.632 217.44 120.099 217.225 120.584 216.796C121.069 216.367 121.527 215.825 121.956 215.172C122.404 214.5 122.796 213.828 123.132 213.156L123.608 213.548C123.216 214.463 122.768 215.303 122.264 216.068C121.779 216.815 121.228 217.421 120.612 217.888C120.015 218.336 119.343 218.56 118.596 218.56ZM124.243 218.896C123.403 218.896 122.824 218.616 122.507 218.056C122.208 217.515 122.059 216.917 122.059 216.264C122.059 215.667 122.152 215.06 122.339 214.444C122.525 213.809 122.777 213.221 123.095 212.68C123.431 212.139 123.795 211.709 124.187 211.392C124.597 211.056 125.008 210.888 125.419 210.888C125.549 210.888 125.699 210.916 125.867 210.972C126.053 211.009 126.184 211.075 126.259 211.168C126.035 211.448 125.801 211.793 125.559 212.204C125.335 212.615 125.12 213.053 124.915 213.52C124.728 213.968 124.579 214.425 124.467 214.892C124.355 215.359 124.299 215.788 124.299 216.18C124.299 216.553 124.364 216.861 124.495 217.104C124.644 217.347 124.896 217.468 125.251 217.468C125.605 217.468 126.025 217.272 126.511 216.88C127.015 216.469 127.491 216.003 127.939 215.48C127.341 214.939 126.912 214.351 126.651 213.716C126.389 213.063 126.259 212.279 126.259 211.364C126.259 210.972 126.352 210.524 126.539 210.02C126.744 209.516 127.061 209.077 127.491 208.704C127.939 208.331 128.536 208.144 129.283 208.144C130.085 208.144 130.645 208.368 130.963 208.816C131.299 209.264 131.467 209.796 131.467 210.412C131.467 211.103 131.28 211.877 130.907 212.736C130.552 213.595 130.123 214.407 129.619 215.172C129.843 215.284 130.104 215.34 130.403 215.34C130.683 215.34 131.019 215.275 131.411 215.144C131.803 215.013 132.185 214.799 132.559 214.5C132.932 214.183 133.231 213.763 133.455 213.24L133.959 213.604C133.548 214.556 132.997 215.256 132.307 215.704C131.635 216.133 130.972 216.348 130.319 216.348C130.076 216.348 129.833 216.329 129.591 216.292C129.348 216.236 129.124 216.171 128.919 216.096C128.284 216.843 127.556 217.496 126.735 218.056C125.913 218.616 125.083 218.896 124.243 218.896ZM128.667 214.584C129.115 213.931 129.497 213.231 129.815 212.484C130.132 211.737 130.291 211.047 130.291 210.412C130.291 209.983 130.225 209.675 130.095 209.488C129.964 209.283 129.768 209.18 129.507 209.18C129.152 209.18 128.788 209.432 128.415 209.936C128.041 210.44 127.855 211.075 127.855 211.84C127.855 212.232 127.92 212.708 128.051 213.268C128.2 213.828 128.405 214.267 128.667 214.584ZM140.961 219.064C140.326 219.064 139.897 218.784 139.673 218.224C139.467 217.683 139.346 217.029 139.309 216.264C139.327 216.04 139.337 215.732 139.337 215.34C139.355 214.948 139.374 214.621 139.393 214.36C139.001 215.069 138.571 215.769 138.105 216.46C137.638 217.151 137.143 217.72 136.621 218.168C136.098 218.616 135.547 218.84 134.969 218.84C134.334 218.84 133.811 218.56 133.401 218C132.99 217.421 132.784 216.731 132.784 215.928C132.784 215.387 132.869 214.761 133.037 214.052C133.223 213.343 133.447 212.652 133.709 211.98C133.989 211.308 134.269 210.748 134.549 210.3C134.847 209.852 135.109 209.628 135.333 209.628C135.463 209.628 135.687 209.703 136.005 209.852C136.341 210.001 136.546 210.197 136.621 210.44C136.415 210.739 136.163 211.196 135.865 211.812C135.585 212.428 135.333 213.091 135.109 213.8C134.903 214.491 134.801 215.125 134.801 215.704C134.801 215.816 134.81 216.012 134.829 216.292C134.866 216.553 134.95 216.796 135.081 217.02C135.211 217.244 135.407 217.356 135.669 217.356C136.079 217.356 136.509 217.104 136.957 216.6C137.423 216.096 137.89 215.461 138.357 214.696C138.823 213.931 139.262 213.147 139.673 212.344C139.841 211.541 139.981 210.963 140.093 210.608C140.205 210.253 140.317 210.029 140.429 209.936C140.559 209.843 140.709 209.796 140.877 209.796C141.231 209.796 141.502 209.871 141.689 210.02C141.894 210.151 141.997 210.347 141.997 210.608C141.997 210.627 141.978 210.711 141.941 210.86C141.903 210.991 141.875 211.075 141.857 211.112C141.745 211.504 141.642 211.98 141.549 212.54C141.455 213.081 141.381 213.669 141.325 214.304C141.269 214.92 141.241 215.545 141.241 216.18C141.241 216.628 141.269 216.983 141.325 217.244C141.381 217.487 141.521 217.608 141.745 217.608C142.006 217.608 142.305 217.449 142.641 217.132C142.995 216.815 143.359 216.395 143.733 215.872C144.125 215.349 144.498 214.78 144.853 214.164C145.226 213.529 145.562 212.895 145.861 212.26C145.861 211.289 145.926 210.552 146.057 210.048C146.206 209.544 146.393 209.199 146.617 209.012C146.859 208.807 147.121 208.704 147.401 208.704C147.867 208.704 148.185 208.853 148.353 209.152C148.539 209.451 148.632 209.703 148.632 209.908C148.632 210.095 148.586 210.272 148.493 210.44C148.399 210.589 148.325 210.729 148.269 210.86C148.138 211.14 148.007 211.476 147.877 211.868C147.765 212.26 147.709 212.755 147.709 213.352C147.709 213.669 147.737 213.996 147.793 214.332C147.867 214.649 147.989 214.911 148.157 215.116C148.343 215.321 148.605 215.424 148.941 215.424C149.277 215.424 149.613 215.275 149.949 214.976C150.303 214.677 150.686 214.117 151.097 213.296L151.629 213.716C151.218 214.687 150.751 215.359 150.229 215.732C149.706 216.087 149.202 216.264 148.717 216.264C148.101 216.264 147.578 216.04 147.149 215.592C146.719 215.144 146.383 214.593 146.141 213.94C145.674 214.743 145.151 215.545 144.573 216.348C144.013 217.132 143.425 217.776 142.809 218.28C142.193 218.803 141.577 219.064 140.961 219.064ZM159.318 219.316C158.702 219.316 158.17 219.111 157.722 218.7C157.255 218.289 157.022 217.673 157.022 216.852C157.022 216.199 157.171 215.489 157.47 214.724C157.769 213.959 158.179 213.203 158.702 212.456C159.225 211.709 159.822 211.037 160.494 210.44C161.166 209.824 161.885 209.329 162.65 208.956C163.415 208.583 164.181 208.396 164.946 208.396C165.749 208.396 166.43 208.601 166.99 209.012C167.55 209.423 167.83 209.964 167.83 210.636C167.83 211.14 167.653 211.504 167.298 211.728C166.943 211.952 166.523 212.017 166.038 211.924C166.075 211.756 166.103 211.588 166.122 211.42C166.159 211.252 166.178 211.075 166.178 210.888C166.178 210.515 166.103 210.179 165.954 209.88C165.805 209.581 165.487 209.432 165.002 209.432C164.479 209.432 163.947 209.609 163.406 209.964C162.865 210.319 162.342 210.785 161.838 211.364C161.353 211.924 160.914 212.549 160.522 213.24C160.13 213.912 159.822 214.575 159.598 215.228C159.374 215.881 159.262 216.469 159.262 216.992C159.262 217.589 159.477 217.888 159.906 217.888C160.335 217.888 160.811 217.683 161.334 217.272C161.857 216.843 162.379 216.311 162.902 215.676C163.443 215.041 163.957 214.397 164.442 213.744C164.927 213.072 165.347 212.503 165.702 212.036C165.758 211.943 165.833 211.896 165.926 211.896C166.001 211.915 166.141 211.961 166.346 212.036C166.57 212.092 166.775 212.185 166.962 212.316C167.149 212.447 167.242 212.615 167.242 212.82C167.242 213.007 167.158 213.249 166.99 213.548C166.841 213.828 166.654 214.145 166.43 214.5C166.225 214.836 166.038 215.181 165.87 215.536C165.721 215.872 165.646 216.199 165.646 216.516C165.646 216.759 165.711 216.992 165.842 217.216C165.973 217.421 166.187 217.524 166.486 217.524C166.934 217.524 167.559 217.197 168.362 216.544C169.183 215.872 170.014 214.743 170.854 213.156L171.386 213.688C170.938 214.696 170.397 215.592 169.762 216.376C169.146 217.141 168.493 217.739 167.802 218.168C167.111 218.616 166.411 218.84 165.702 218.84C164.937 218.84 164.367 218.597 163.994 218.112C163.621 217.627 163.415 217.104 163.378 216.544C163.378 216.507 163.378 216.479 163.378 216.46C163.378 216.441 163.378 216.423 163.378 216.404C162.631 217.3 161.941 218.009 161.306 218.532C160.69 219.055 160.027 219.316 159.318 219.316ZM179.627 218.56C178.899 218.56 178.339 218.373 177.947 218C177.574 217.645 177.387 217.188 177.387 216.628C177.387 216.255 177.453 215.863 177.583 215.452C177.714 215.023 177.845 214.593 177.975 214.164C178.106 213.735 178.171 213.324 178.171 212.932C178.171 212.521 178.069 212.241 177.863 212.092C177.677 211.924 177.453 211.84 177.191 211.84C176.631 211.84 176.053 212.073 175.455 212.54C174.877 212.988 174.307 213.557 173.747 214.248C173.206 214.939 172.693 215.657 172.207 216.404C171.722 217.151 171.302 217.823 170.947 218.42C170.593 218.42 170.257 218.355 169.939 218.224C169.622 218.112 169.351 217.907 169.127 217.608C169.146 217.515 169.258 217.235 169.463 216.768C169.65 216.283 169.865 215.713 170.107 215.06C170.35 214.388 170.565 213.688 170.751 212.96C170.938 212.232 171.031 211.569 171.031 210.972C171.162 210.823 171.358 210.673 171.619 210.524C171.899 210.375 172.189 210.3 172.487 210.3C173.141 210.3 173.467 210.58 173.467 211.14C173.467 211.364 173.421 211.7 173.327 212.148C173.253 212.577 173.141 213.072 172.991 213.632C173.477 212.979 174.009 212.363 174.587 211.784C175.166 211.205 175.763 210.739 176.379 210.384C177.014 210.011 177.649 209.824 178.283 209.824C179.086 209.824 179.674 210.095 180.047 210.636C180.439 211.177 180.635 211.775 180.635 212.428C180.635 212.988 180.542 213.511 180.355 213.996C180.169 214.481 179.982 214.939 179.795 215.368C179.627 215.797 179.543 216.217 179.543 216.628C179.543 216.927 179.609 217.141 179.739 217.272C179.889 217.384 180.047 217.44 180.215 217.44C180.663 217.44 181.13 217.225 181.615 216.796C182.101 216.367 182.558 215.825 182.987 215.172C183.435 214.5 183.827 213.828 184.163 213.156L184.639 213.548C184.247 214.463 183.799 215.303 183.295 216.068C182.81 216.815 182.259 217.421 181.643 217.888C181.046 218.336 180.374 218.56 179.627 218.56ZM185.358 218.84C185.003 218.84 184.639 218.747 184.266 218.56C183.911 218.392 183.612 218.121 183.37 217.748C183.108 217.375 182.978 216.899 182.978 216.32C182.978 215.704 183.127 215.013 183.426 214.248C183.724 213.483 184.126 212.717 184.63 211.952C185.152 211.187 185.75 210.487 186.422 209.852C187.112 209.217 187.84 208.704 188.606 208.312C189.371 207.92 190.146 207.724 190.93 207.724C191.359 207.724 191.695 207.799 191.938 207.948C192.18 208.079 192.302 208.303 192.302 208.62C192.302 208.713 192.283 208.825 192.246 208.956C192.208 209.068 192.115 209.171 191.966 209.264C191.891 209.152 191.76 209.077 191.574 209.04C191.387 208.984 191.191 208.956 190.986 208.956C190.37 208.956 189.782 209.133 189.222 209.488C188.662 209.824 188.148 210.263 187.682 210.804C187.215 211.345 186.804 211.933 186.45 212.568C186.114 213.203 185.852 213.819 185.666 214.416C185.479 214.995 185.386 215.499 185.386 215.928C185.386 216.283 185.46 216.572 185.61 216.796C185.759 217.001 185.983 217.104 186.282 217.104C186.786 217.104 187.383 216.815 188.074 216.236C188.783 215.639 189.502 214.789 190.23 213.688C190.976 212.568 191.648 211.233 192.246 209.684C192.656 208.62 193.086 207.537 193.534 206.436C193.982 205.316 194.43 204.243 194.878 203.216C195.326 202.189 195.764 201.275 196.194 200.472C196.642 199.669 197.062 199.035 197.454 198.568C197.864 198.083 198.238 197.84 198.574 197.84C198.779 197.84 198.956 197.924 199.106 198.092C199.274 198.241 199.358 198.437 199.358 198.68C199.358 198.997 199.199 199.511 198.882 200.22C198.583 200.911 198.191 201.741 197.706 202.712C197.239 203.683 196.726 204.737 196.166 205.876C195.624 206.996 195.111 208.153 194.626 209.348C194.159 210.524 193.767 211.691 193.45 212.848C193.151 213.987 193.002 215.06 193.002 216.068C193.002 216.516 193.039 216.824 193.114 216.992C193.207 217.141 193.356 217.216 193.562 217.216C193.972 217.216 194.43 217.057 194.934 216.74C195.438 216.423 195.951 215.956 196.474 215.34C196.996 214.705 197.472 213.949 197.902 213.072L198.434 213.52C198.023 214.547 197.5 215.452 196.866 216.236C196.231 217.02 195.55 217.627 194.822 218.056C194.094 218.504 193.375 218.728 192.666 218.728C191.9 218.728 191.368 218.485 191.07 218C190.771 217.515 190.622 216.945 190.622 216.292C190.622 215.993 190.64 215.695 190.678 215.396C190.734 215.079 190.79 214.771 190.846 214.472C190.267 215.312 189.651 216.068 188.998 216.74C188.363 217.393 187.738 217.907 187.122 218.28C186.506 218.653 185.918 218.84 185.358 218.84ZM207.617 219.568C206.646 219.568 205.844 219.26 205.209 218.644C204.593 218.047 204.285 217.123 204.285 215.872C204.285 214.957 204.462 214.061 204.817 213.184C205.172 212.307 205.648 211.523 206.245 210.832C206.842 210.123 207.505 209.563 208.233 209.152C208.98 208.741 209.736 208.536 210.501 208.536C211.285 208.536 211.845 208.732 212.181 209.124C212.536 209.516 212.713 209.973 212.713 210.496C212.713 211.019 212.582 211.532 212.321 212.036C212.078 212.521 211.742 212.764 211.313 212.764C210.958 212.764 210.669 212.587 210.445 212.232C210.632 212.101 210.828 211.859 211.033 211.504C211.238 211.149 211.341 210.692 211.341 210.132C211.341 209.983 211.304 209.871 211.229 209.796C211.154 209.703 211.014 209.656 210.809 209.656C210.342 209.656 209.848 209.871 209.325 210.3C208.821 210.711 208.345 211.252 207.897 211.924C207.468 212.577 207.113 213.277 206.833 214.024C206.572 214.752 206.441 215.424 206.441 216.04C206.441 216.563 206.572 217.048 206.833 217.496C207.113 217.925 207.645 218.14 208.429 218.14C209.138 218.14 209.876 217.935 210.641 217.524C211.406 217.113 212.125 216.544 212.797 215.816C213.469 215.069 214.01 214.183 214.421 213.156L214.981 213.66C214.533 214.799 213.908 215.816 213.105 216.712C212.321 217.589 211.444 218.28 210.473 218.784C209.521 219.307 208.569 219.568 207.617 219.568ZM215.065 219.064C214.655 219.064 214.356 218.747 214.169 218.112C214.001 217.477 213.917 216.74 213.917 215.9C213.917 215.041 214.057 214.005 214.337 212.792C214.636 211.579 215.028 210.3 215.513 208.956C216.017 207.612 216.568 206.296 217.165 205.008C217.781 203.72 218.407 202.553 219.041 201.508C219.695 200.444 220.311 199.595 220.889 198.96C221.487 198.325 222.009 198.008 222.457 198.008C222.849 198.008 223.148 198.223 223.353 198.652C223.559 199.081 223.661 199.529 223.661 199.996C223.661 200.5 223.54 201.125 223.297 201.872C223.073 202.6 222.756 203.384 222.345 204.224C221.935 205.064 221.449 205.895 220.889 206.716C220.348 207.519 219.751 208.256 219.097 208.928C218.463 209.6 217.8 210.141 217.109 210.552C216.867 211.187 216.671 211.784 216.521 212.344C216.391 212.885 216.297 213.399 216.241 213.884C216.185 214.369 216.157 214.845 216.157 215.312C216.157 215.405 216.157 215.508 216.157 215.62C216.176 215.713 216.185 215.807 216.185 215.9C216.26 215.788 216.381 215.499 216.549 215.032C216.717 214.565 216.941 214.024 217.221 213.408C217.52 212.773 217.884 212.157 218.313 211.56C218.743 210.944 219.247 210.44 219.825 210.048C220.404 209.637 221.067 209.432 221.813 209.432C222.448 209.432 222.943 209.581 223.297 209.88C223.652 210.16 223.904 210.515 224.053 210.944C224.203 211.355 224.277 211.775 224.277 212.204C224.277 212.801 224.175 213.361 223.969 213.884C223.783 214.407 223.587 214.901 223.381 215.368C223.195 215.816 223.101 216.245 223.101 216.656C223.101 216.992 223.176 217.225 223.325 217.356C223.475 217.487 223.652 217.552 223.857 217.552C224.268 217.552 224.744 217.347 225.285 216.936C225.845 216.525 226.396 215.984 226.937 215.312C227.497 214.621 227.973 213.865 228.365 213.044L228.813 213.52C228.384 214.453 227.88 215.312 227.301 216.096C226.723 216.88 226.088 217.505 225.397 217.972C224.707 218.439 223.96 218.672 223.157 218.672C222.448 218.672 221.907 218.485 221.533 218.112C221.16 217.739 220.973 217.272 220.973 216.712C220.973 216.32 221.039 215.891 221.169 215.424C221.319 214.939 221.459 214.453 221.589 213.968C221.72 213.483 221.785 213.044 221.785 212.652C221.785 212.204 221.683 211.896 221.477 211.728C221.291 211.56 221.057 211.476 220.777 211.476C220.311 211.476 219.891 211.663 219.517 212.036C219.144 212.391 218.808 212.857 218.509 213.436C218.211 214.015 217.931 214.631 217.669 215.284C217.408 215.919 217.147 216.525 216.885 217.104C216.624 217.683 216.344 218.149 216.045 218.504C215.765 218.877 215.439 219.064 215.065 219.064ZM217.697 208.76C218.183 208.331 218.649 207.817 219.097 207.22C219.545 206.623 219.956 206.007 220.329 205.372C220.721 204.719 221.057 204.093 221.337 203.496C221.636 202.88 221.869 202.329 222.037 201.844C222.205 201.359 222.299 200.985 222.317 200.724C222.317 200.705 222.317 200.696 222.317 200.696C222.317 200.677 222.317 200.659 222.317 200.64C222.205 200.64 221.963 200.873 221.589 201.34C221.235 201.788 220.815 202.404 220.329 203.188C219.863 203.953 219.387 204.821 218.901 205.792C218.435 206.763 218.033 207.752 217.697 208.76ZM230.861 219.232C229.667 219.232 228.743 218.905 228.089 218.252C227.455 217.617 227.137 216.815 227.137 215.844C227.137 215.023 227.343 214.155 227.753 213.24C228.183 212.307 228.752 211.439 229.461 210.636C230.171 209.815 230.955 209.152 231.813 208.648C232.672 208.144 233.531 207.892 234.389 207.892C234.875 207.892 235.332 208.023 235.761 208.284C236.209 208.527 236.433 209.021 236.433 209.768C236.433 210.477 236.228 211.14 235.817 211.756C235.407 212.372 234.856 212.923 234.165 213.408C233.475 213.893 232.709 214.295 231.869 214.612C231.048 214.911 230.217 215.107 229.377 215.2C229.359 215.275 229.34 215.359 229.321 215.452C229.321 215.527 229.321 215.657 229.321 215.844C229.321 215.937 229.331 216.105 229.349 216.348C229.387 216.572 229.471 216.815 229.601 217.076C229.732 217.337 229.947 217.561 230.245 217.748C230.544 217.935 230.955 218.028 231.477 218.028C232.261 218.028 233.045 217.813 233.829 217.384C234.632 216.936 235.379 216.348 236.069 215.62C236.779 214.892 237.367 214.08 237.833 213.184L238.393 213.632C237.889 214.752 237.236 215.732 236.433 216.572C235.649 217.412 234.772 218.065 233.801 218.532C232.849 218.999 231.869 219.232 230.861 219.232ZM229.685 214.164C230.171 214.108 230.712 213.94 231.309 213.66C231.907 213.38 232.476 213.025 233.017 212.596C233.577 212.167 234.035 211.7 234.389 211.196C234.744 210.673 234.921 210.151 234.921 209.628C234.921 209.423 234.884 209.283 234.809 209.208C234.735 209.133 234.613 209.096 234.445 209.096C234.016 209.096 233.568 209.255 233.101 209.572C232.635 209.871 232.177 210.272 231.729 210.776C231.281 211.261 230.88 211.803 230.525 212.4C230.171 212.997 229.891 213.585 229.685 214.164ZM240.32 219.568C239.35 219.568 238.547 219.26 237.912 218.644C237.296 218.047 236.988 217.123 236.988 215.872C236.988 214.957 237.166 214.061 237.52 213.184C237.875 212.307 238.351 211.523 238.948 210.832C239.546 210.123 240.208 209.563 240.936 209.152C241.683 208.741 242.439 208.536 243.204 208.536C243.988 208.536 244.548 208.732 244.884 209.124C245.239 209.516 245.416 209.973 245.416 210.496C245.416 211.019 245.286 211.532 245.024 212.036C244.782 212.521 244.446 212.764 244.016 212.764C243.662 212.764 243.372 212.587 243.148 212.232C243.335 212.101 243.531 211.859 243.736 211.504C243.942 211.149 244.044 210.692 244.044 210.132C244.044 209.983 244.007 209.871 243.932 209.796C243.858 209.703 243.718 209.656 243.512 209.656C243.046 209.656 242.551 209.871 242.028 210.3C241.524 210.711 241.048 211.252 240.6 211.924C240.171 212.577 239.816 213.277 239.536 214.024C239.275 214.752 239.144 215.424 239.144 216.04C239.144 216.563 239.275 217.048 239.536 217.496C239.816 217.925 240.348 218.14 241.132 218.14C241.842 218.14 242.579 217.935 243.344 217.524C244.11 217.113 244.828 216.544 245.5 215.816C246.172 215.069 246.714 214.183 247.124 213.156L247.684 213.66C247.236 214.799 246.611 215.816 245.808 216.712C245.024 217.589 244.147 218.28 243.176 218.784C242.224 219.307 241.272 219.568 240.32 219.568ZM255.356 219.064C254.778 219.064 254.274 218.877 253.844 218.504C253.415 218.131 253.07 217.664 252.808 217.104C252.547 216.544 252.351 215.975 252.22 215.396C252.09 214.799 252.024 214.285 252.024 213.856C252.286 213.8 252.612 213.716 253.004 213.604C253.396 213.492 253.798 213.343 254.208 213.156C254.619 212.951 254.955 212.708 255.216 212.428C255.496 212.129 255.636 211.775 255.636 211.364C255.636 211.028 255.524 210.757 255.3 210.552C255.095 210.347 254.796 210.244 254.404 210.244C253.882 210.244 253.387 210.421 252.92 210.776C252.454 211.112 252.015 211.56 251.604 212.12C251.212 212.68 250.848 213.287 250.512 213.94C250.195 214.593 249.906 215.228 249.644 215.844C249.402 216.46 249.196 216.992 249.028 217.44C248.823 218 248.627 218.373 248.44 218.56C248.254 218.765 247.983 218.868 247.628 218.868C247.498 218.868 247.339 218.831 247.152 218.756C246.984 218.681 246.835 218.495 246.704 218.196C246.592 217.897 246.536 217.421 246.536 216.768C246.536 215.629 246.695 214.379 247.012 213.016C247.33 211.653 247.75 210.272 248.272 208.872C248.814 207.453 249.402 206.1 250.036 204.812C250.671 203.524 251.315 202.367 251.968 201.34C252.622 200.313 253.228 199.501 253.788 198.904C254.367 198.307 254.843 198.008 255.216 198.008C255.534 198.008 255.795 198.204 256 198.596C256.224 198.969 256.336 199.455 256.336 200.052C256.336 200.687 256.196 201.396 255.916 202.18C255.636 202.945 255.235 203.729 254.712 204.532C254.208 205.316 253.602 206.063 252.892 206.772C252.183 207.481 251.399 208.088 250.54 208.592C250.018 209.805 249.616 211.009 249.336 212.204C249.056 213.38 248.879 214.425 248.804 215.34C249.14 214.575 249.523 213.791 249.952 212.988C250.382 212.185 250.858 211.439 251.38 210.748C251.903 210.039 252.463 209.469 253.06 209.04C253.676 208.611 254.33 208.396 255.02 208.396C255.767 208.396 256.42 208.657 256.98 209.18C257.54 209.703 257.82 210.356 257.82 211.14C257.82 211.7 257.671 212.185 257.372 212.596C257.074 213.007 256.7 213.352 256.252 213.632C255.823 213.893 255.384 214.089 254.936 214.22C254.488 214.351 254.106 214.425 253.788 214.444C253.844 214.687 253.919 214.995 254.012 215.368C254.124 215.741 254.264 216.105 254.432 216.46C254.6 216.815 254.815 217.113 255.076 217.356C255.338 217.599 255.646 217.72 256 217.72C256.467 217.72 256.943 217.505 257.428 217.076C257.932 216.647 258.418 216.077 258.884 215.368C259.37 214.659 259.799 213.875 260.172 213.016L260.564 213.492C260.247 214.425 259.808 215.321 259.248 216.18C258.707 217.039 258.1 217.729 257.428 218.252C256.756 218.793 256.066 219.064 255.356 219.064ZM251.352 206.688C251.856 206.24 252.388 205.689 252.948 205.036C253.508 204.364 253.984 203.655 254.376 202.908C254.787 202.143 255.002 201.415 255.02 200.724C255.02 200.705 255.02 200.696 255.02 200.696C255.02 200.677 255.02 200.659 255.02 200.64C254.834 200.715 254.535 201.041 254.124 201.62C253.732 202.18 253.294 202.899 252.808 203.776C252.323 204.653 251.838 205.624 251.352 206.688ZM268.535 218.896C267.696 218.896 267.117 218.616 266.8 218.056C266.501 217.515 266.351 216.917 266.351 216.264C266.351 215.667 266.445 215.06 266.631 214.444C266.818 213.809 267.07 213.221 267.388 212.68C267.724 212.139 268.088 211.709 268.48 211.392C268.89 211.056 269.301 210.888 269.712 210.888C269.842 210.888 269.992 210.916 270.16 210.972C270.346 211.009 270.477 211.075 270.552 211.168C270.328 211.448 270.094 211.793 269.852 212.204C269.628 212.615 269.413 213.053 269.208 213.52C269.021 213.968 268.872 214.425 268.76 214.892C268.648 215.359 268.592 215.788 268.592 216.18C268.592 216.553 268.657 216.861 268.788 217.104C268.937 217.347 269.189 217.468 269.544 217.468C269.898 217.468 270.318 217.272 270.803 216.88C271.308 216.469 271.784 216.003 272.232 215.48C271.634 214.939 271.205 214.351 270.944 213.716C270.682 213.063 270.552 212.279 270.552 211.364C270.552 210.972 270.645 210.524 270.832 210.02C271.037 209.516 271.354 209.077 271.784 208.704C272.232 208.331 272.829 208.144 273.576 208.144C274.378 208.144 274.938 208.368 275.256 208.816C275.592 209.264 275.76 209.796 275.76 210.412C275.76 211.103 275.573 211.877 275.2 212.736C274.845 213.595 274.416 214.407 273.912 215.172C274.136 215.284 274.397 215.34 274.696 215.34C274.976 215.34 275.312 215.275 275.704 215.144C276.096 215.013 276.478 214.799 276.852 214.5C277.225 214.183 277.524 213.763 277.748 213.24L278.252 213.604C277.841 214.556 277.29 215.256 276.6 215.704C275.928 216.133 275.265 216.348 274.612 216.348C274.369 216.348 274.126 216.329 273.883 216.292C273.641 216.236 273.417 216.171 273.212 216.096C272.577 216.843 271.849 217.496 271.028 218.056C270.206 218.616 269.376 218.896 268.535 218.896ZM272.96 214.584C273.408 213.931 273.79 213.231 274.108 212.484C274.425 211.737 274.584 211.047 274.584 210.412C274.584 209.983 274.518 209.675 274.388 209.488C274.257 209.283 274.061 209.18 273.8 209.18C273.445 209.18 273.081 209.432 272.708 209.936C272.334 210.44 272.148 211.075 272.148 211.84C272.148 212.232 272.213 212.708 272.344 213.268C272.493 213.828 272.698 214.267 272.96 214.584ZM279.233 218.84C278.599 218.84 278.076 218.551 277.665 217.972C277.273 217.375 277.077 216.693 277.077 215.928C277.077 215.405 277.161 214.789 277.329 214.08C277.497 213.371 277.712 212.68 277.973 212.008C278.253 211.336 278.533 210.776 278.813 210.328C279.112 209.88 279.383 209.656 279.625 209.656C279.756 209.656 279.952 209.731 280.213 209.88C280.493 210.011 280.736 210.179 280.941 210.384C280.736 210.683 280.484 211.14 280.185 211.756C279.905 212.372 279.653 213.035 279.429 213.744C279.205 214.453 279.093 215.097 279.093 215.676C279.093 215.751 279.103 215.928 279.121 216.208C279.159 216.488 279.233 216.749 279.345 216.992C279.457 217.235 279.653 217.356 279.933 217.356C280.251 217.356 280.587 217.188 280.941 216.852C281.315 216.497 281.688 216.049 282.061 215.508C282.453 214.948 282.827 214.351 283.181 213.716C283.555 213.081 283.881 212.465 284.161 211.868C284.46 211.271 284.703 210.767 284.889 210.356C285.057 210.375 285.272 210.421 285.533 210.496C285.813 210.571 286.056 210.673 286.261 210.804C286.467 210.916 286.569 211.084 286.569 211.308C286.569 211.364 286.476 211.597 286.289 212.008C286.121 212.4 285.916 212.876 285.673 213.436C285.449 213.996 285.244 214.575 285.057 215.172C284.889 215.751 284.805 216.264 284.805 216.712C284.805 216.973 284.852 217.207 284.945 217.412C285.057 217.599 285.263 217.692 285.561 217.692C285.953 217.692 286.42 217.515 286.961 217.16C287.503 216.805 288.063 216.292 288.641 215.62C289.22 214.948 289.733 214.145 290.181 213.212L290.601 213.548C290.191 214.556 289.659 215.461 289.005 216.264C288.352 217.067 287.652 217.692 286.905 218.14C286.159 218.607 285.431 218.84 284.721 218.84C284.18 218.84 283.769 218.709 283.489 218.448C283.228 218.205 283.051 217.888 282.957 217.496C282.864 217.085 282.808 216.675 282.789 216.264C282.789 216.171 282.789 216.077 282.789 215.984C282.789 215.872 282.789 215.779 282.789 215.704C282.472 216.208 282.127 216.703 281.753 217.188C281.38 217.655 280.979 218.047 280.549 218.364C280.139 218.681 279.7 218.84 279.233 218.84ZM294.645 218.728C293.954 218.728 293.394 218.541 292.965 218.168C292.536 217.813 292.321 217.328 292.321 216.712C292.321 216.189 292.452 215.629 292.713 215.032C292.974 214.435 293.236 213.847 293.497 213.268C293.777 212.689 293.917 212.176 293.917 211.728C293.917 211.299 293.777 210.944 293.497 210.664C293.217 210.365 292.89 210.123 292.517 209.936C292.106 210.963 291.64 211.961 291.117 212.932C290.613 213.884 290.202 214.631 289.885 215.172L289.465 214.36C289.726 213.875 290.072 213.184 290.501 212.288C290.93 211.392 291.341 210.393 291.733 209.292C291.546 209.105 291.453 208.853 291.453 208.536C291.453 208.051 291.602 207.593 291.901 207.164C292.2 206.735 292.489 206.52 292.769 206.52C292.993 206.52 293.152 206.651 293.245 206.912C293.357 207.155 293.413 207.323 293.413 207.416C293.413 207.509 293.366 207.677 293.273 207.92C293.198 208.163 293.142 208.34 293.105 208.452C293.124 208.657 293.282 208.863 293.581 209.068C293.898 209.255 294.253 209.479 294.645 209.74C295.037 210.001 295.382 210.328 295.681 210.72C295.98 211.112 296.129 211.607 296.129 212.204C296.129 212.745 296.008 213.296 295.765 213.856C295.522 214.416 295.28 214.939 295.037 215.424C294.794 215.909 294.673 216.329 294.673 216.684C294.673 216.945 294.738 217.123 294.869 217.216C295.018 217.291 295.186 217.328 295.373 217.328C295.821 217.328 296.288 217.197 296.773 216.936C297.258 216.656 297.734 216.301 298.201 215.872C298.668 215.443 299.078 214.995 299.433 214.528C299.788 214.043 300.058 213.604 300.245 213.212L300.917 213.716C300.562 214.519 300.049 215.312 299.377 216.096C298.705 216.861 297.958 217.496 297.137 218C296.316 218.485 295.485 218.728 294.645 218.728ZM321.554 218.868C320.826 218.868 320.285 218.653 319.93 218.224C319.575 217.795 319.398 217.281 319.398 216.684C319.398 216.255 319.463 215.825 319.594 215.396C319.725 214.967 319.855 214.547 319.986 214.136C320.117 213.707 320.182 213.324 320.182 212.988C320.182 212.671 320.117 212.456 319.986 212.344C319.874 212.213 319.725 212.148 319.538 212.148C319.109 212.148 318.605 212.475 318.026 213.128C317.466 213.781 316.766 214.733 315.926 215.984C315.627 216.432 315.347 216.908 315.086 217.412C314.825 217.897 314.591 218.308 314.386 218.644C314.218 218.644 313.994 218.616 313.714 218.56C313.453 218.504 313.219 218.42 313.014 218.308C312.809 218.215 312.706 218.084 312.706 217.916C312.706 217.748 312.799 217.421 312.986 216.936C313.173 216.451 313.387 215.891 313.63 215.256C313.873 214.603 314.087 213.968 314.274 213.352C314.461 212.717 314.554 212.185 314.554 211.756C314.554 211.495 314.507 211.289 314.414 211.14C314.321 210.991 314.171 210.916 313.966 210.916C313.574 210.916 313.098 211.149 312.538 211.616C311.997 212.083 311.418 212.699 310.802 213.464C310.205 214.211 309.635 215.051 309.094 215.984C308.571 216.899 308.142 217.823 307.806 218.756C307.601 218.756 307.349 218.709 307.05 218.616C306.751 218.541 306.49 218.439 306.266 218.308C306.042 218.196 305.93 218.093 305.93 218C305.93 217.981 305.995 217.72 306.126 217.216C306.257 216.693 306.415 216.049 306.602 215.284C306.789 214.519 306.985 213.735 307.19 212.932C307.395 212.129 307.573 211.429 307.722 210.832C307.778 210.627 307.983 210.449 308.338 210.3C308.693 210.132 309.001 210.048 309.262 210.048C309.523 210.048 309.747 210.132 309.934 210.3C310.121 210.468 310.214 210.692 310.214 210.972C310.214 211.159 310.177 211.429 310.102 211.784C310.027 212.139 309.934 212.54 309.822 212.988C310.214 212.465 310.625 211.952 311.054 211.448C311.502 210.925 311.959 210.459 312.426 210.048C312.911 209.637 313.387 209.311 313.854 209.068C314.339 208.825 314.815 208.704 315.282 208.704C315.973 208.704 316.439 208.956 316.682 209.46C316.925 209.945 317.046 210.477 317.046 211.056C317.046 211.299 317.027 211.541 316.99 211.784C316.953 212.008 316.897 212.241 316.822 212.484C316.766 212.708 316.682 212.979 316.57 213.296C316.925 212.773 317.307 212.297 317.718 211.868C318.147 211.42 318.605 211.065 319.09 210.804C319.575 210.543 320.089 210.412 320.63 210.412C321.358 210.412 321.862 210.636 322.142 211.084C322.422 211.513 322.562 211.989 322.562 212.512C322.562 212.997 322.478 213.511 322.31 214.052C322.161 214.575 322.002 215.079 321.834 215.564C321.685 216.031 321.61 216.432 321.61 216.768C321.61 216.955 321.657 217.132 321.75 217.3C321.843 217.449 322.03 217.524 322.31 217.524C322.814 217.524 323.299 217.291 323.766 216.824C324.233 216.357 324.662 215.788 325.054 215.116C325.465 214.425 325.81 213.772 326.09 213.156L326.566 213.744C326.267 214.509 325.875 215.293 325.39 216.096C324.923 216.88 324.373 217.533 323.738 218.056C323.103 218.597 322.375 218.868 321.554 218.868ZM328.643 219.232C327.448 219.232 326.524 218.905 325.871 218.252C325.236 217.617 324.919 216.815 324.919 215.844C324.919 215.023 325.124 214.155 325.535 213.24C325.964 212.307 326.533 211.439 327.243 210.636C327.952 209.815 328.736 209.152 329.595 208.648C330.453 208.144 331.312 207.892 332.171 207.892C332.656 207.892 333.113 208.023 333.543 208.284C333.991 208.527 334.215 209.021 334.215 209.768C334.215 210.477 334.009 211.14 333.599 211.756C333.188 212.372 332.637 212.923 331.947 213.408C331.256 213.893 330.491 214.295 329.651 214.612C328.829 214.911 327.999 215.107 327.159 215.2C327.14 215.275 327.121 215.359 327.103 215.452C327.103 215.527 327.103 215.657 327.103 215.844C327.103 215.937 327.112 216.105 327.131 216.348C327.168 216.572 327.252 216.815 327.383 217.076C327.513 217.337 327.728 217.561 328.027 217.748C328.325 217.935 328.736 218.028 329.259 218.028C330.043 218.028 330.827 217.813 331.611 217.384C332.413 216.936 333.16 216.348 333.851 215.62C334.56 214.892 335.148 214.08 335.615 213.184L336.175 213.632C335.671 214.752 335.017 215.732 334.215 216.572C333.431 217.412 332.553 218.065 331.583 218.532C330.631 218.999 329.651 219.232 328.643 219.232ZM327.467 214.164C327.952 214.108 328.493 213.94 329.091 213.66C329.688 213.38 330.257 213.025 330.799 212.596C331.359 212.167 331.816 211.7 332.171 211.196C332.525 210.673 332.703 210.151 332.703 209.628C332.703 209.423 332.665 209.283 332.591 209.208C332.516 209.133 332.395 209.096 332.227 209.096C331.797 209.096 331.349 209.255 330.883 209.572C330.416 209.871 329.959 210.272 329.511 210.776C329.063 211.261 328.661 211.803 328.307 212.4C327.952 212.997 327.672 213.585 327.467 214.164ZM344.374 218.56C343.646 218.56 343.086 218.373 342.694 218C342.32 217.645 342.133 217.188 342.133 216.628C342.133 216.255 342.199 215.863 342.329 215.452C342.46 215.023 342.591 214.593 342.722 214.164C342.852 213.735 342.918 213.324 342.918 212.932C342.918 212.521 342.815 212.241 342.61 212.092C342.423 211.924 342.199 211.84 341.938 211.84C341.378 211.84 340.799 212.073 340.202 212.54C339.623 212.988 339.054 213.557 338.494 214.248C337.952 214.939 337.439 215.657 336.954 216.404C336.468 217.151 336.048 217.823 335.694 218.42C335.339 218.42 335.003 218.355 334.685 218.224C334.368 218.112 334.097 217.907 333.873 217.608C333.892 217.515 334.004 217.235 334.209 216.768C334.396 216.283 334.611 215.713 334.853 215.06C335.096 214.388 335.311 213.688 335.498 212.96C335.684 212.232 335.778 211.569 335.778 210.972C335.908 210.823 336.104 210.673 336.366 210.524C336.646 210.375 336.935 210.3 337.234 210.3C337.887 210.3 338.214 210.58 338.214 211.14C338.214 211.364 338.167 211.7 338.074 212.148C337.999 212.577 337.887 213.072 337.738 213.632C338.223 212.979 338.755 212.363 339.334 211.784C339.912 211.205 340.51 210.739 341.126 210.384C341.76 210.011 342.395 209.824 343.03 209.824C343.832 209.824 344.42 210.095 344.794 210.636C345.186 211.177 345.382 211.775 345.382 212.428C345.382 212.988 345.288 213.511 345.102 213.996C344.915 214.481 344.728 214.939 344.542 215.368C344.374 215.797 344.29 216.217 344.29 216.628C344.29 216.927 344.355 217.141 344.486 217.272C344.635 217.384 344.794 217.44 344.962 217.44C345.41 217.44 345.876 217.225 346.362 216.796C346.847 216.367 347.304 215.825 347.734 215.172C348.182 214.5 348.574 213.828 348.91 213.156L349.386 213.548C348.994 214.463 348.546 215.303 348.042 216.068C347.556 216.815 347.006 217.421 346.39 217.888C345.792 218.336 345.12 218.56 344.374 218.56ZM350.3 218.84C349.665 218.84 349.143 218.551 348.732 217.972C348.34 217.375 348.144 216.693 348.144 215.928C348.144 215.405 348.228 214.789 348.396 214.08C348.564 213.371 348.779 212.68 349.04 212.008C349.32 211.336 349.6 210.776 349.88 210.328C350.179 209.88 350.449 209.656 350.692 209.656C350.823 209.656 351.019 209.731 351.28 209.88C351.56 210.011 351.803 210.179 352.008 210.384C351.803 210.683 351.551 211.14 351.252 211.756C350.972 212.372 350.72 213.035 350.496 213.744C350.272 214.453 350.16 215.097 350.16 215.676C350.16 215.751 350.169 215.928 350.188 216.208C350.225 216.488 350.3 216.749 350.412 216.992C350.524 217.235 350.72 217.356 351 217.356C351.317 217.356 351.653 217.188 352.008 216.852C352.381 216.497 352.755 216.049 353.128 215.508C353.52 214.948 353.893 214.351 354.248 213.716C354.621 213.081 354.948 212.465 355.228 211.868C355.527 211.271 355.769 210.767 355.956 210.356C356.124 210.375 356.339 210.421 356.6 210.496C356.88 210.571 357.123 210.673 357.328 210.804C357.533 210.916 357.636 211.084 357.636 211.308C357.636 211.364 357.543 211.597 357.356 212.008C357.188 212.4 356.983 212.876 356.74 213.436C356.516 213.996 356.311 214.575 356.124 215.172C355.956 215.751 355.872 216.264 355.872 216.712C355.872 216.973 355.919 217.207 356.012 217.412C356.124 217.599 356.329 217.692 356.628 217.692C357.02 217.692 357.487 217.515 358.028 217.16C358.569 216.805 359.129 216.292 359.708 215.62C360.287 214.948 360.8 214.145 361.248 213.212L361.668 213.548C361.257 214.556 360.725 215.461 360.072 216.264C359.419 217.067 358.719 217.692 357.972 218.14C357.225 218.607 356.497 218.84 355.788 218.84C355.247 218.84 354.836 218.709 354.556 218.448C354.295 218.205 354.117 217.888 354.024 217.496C353.931 217.085 353.875 216.675 353.856 216.264C353.856 216.171 353.856 216.077 353.856 215.984C353.856 215.872 353.856 215.779 353.856 215.704C353.539 216.208 353.193 216.703 352.82 217.188C352.447 217.655 352.045 218.047 351.616 218.364C351.205 218.681 350.767 218.84 350.3 218.84Z" fill="#FF9A04"/>
<g clip-path="url(#clip1_656_2)">
<path d="M152.83 451H144V459.899H152.83V451ZM151.356 458.413H145.474V452.486H151.358V458.416L151.356 458.413Z" fill="#D9D9D9"/>
<path d="M149.884 453.969H146.946V456.93H149.884V453.969Z" fill="#D9D9D9"/>
<path d="M144 474.726H152.83V465.826H144V474.726ZM145.474 467.312H151.358V473.242H145.474V467.312Z" fill="#D9D9D9"/>
<path d="M149.884 468.796H146.946V471.757H149.884V468.796Z" fill="#D9D9D9"/>
<path d="M158.711 451V459.899H167.541V451H158.711ZM166.07 458.413H160.186V452.486H166.07V458.416V458.413Z" fill="#D9D9D9"/>
<path d="M164.595 453.969H161.657V456.93H164.595V453.969Z" fill="#D9D9D9"/>
<path d="M146.946 461.382H144V464.343H148.41V462.857H146.946V461.382Z" fill="#D9D9D9"/>
<path d="M151.356 461.382H148.41V462.86H151.356V461.382Z" fill="#D9D9D9"/>
<path d="M152.83 461.382V462.857H151.356V464.343H154.302V461.382H152.827H152.83Z" fill="#D9D9D9"/>
<path d="M157.239 456.93H155.765V459.899H157.239V456.93Z" fill="#D9D9D9"/>
<path d="M155.768 459.899H154.302V461.385H155.768V459.899Z" fill="#D9D9D9"/>
<path d="M157.237 461.38H155.771V462.866H157.237V461.38Z" fill="#D9D9D9"/>
<path d="M157.24 455.444V452.486H155.765V451H154.302V456.93H155.765V455.444H157.24Z" fill="#D9D9D9"/>
<path d="M157.323 464.479H154.385V467.448H157.323V464.479Z" fill="#D9D9D9"/>
<path d="M157.323 468.931H154.385V470.406H155.849V471.892H157.323V468.931Z" fill="#D9D9D9"/>
<path d="M155.852 471.892H154.385V474.861H155.852V471.892Z" fill="#D9D9D9"/>
<path d="M158.798 467.448H157.323V468.934H158.798V467.448Z" fill="#D9D9D9"/>
<path d="M158.798 471.892H157.323V473.378H158.798V471.892Z" fill="#D9D9D9"/>
<path d="M167.595 460.931C165.762 463.273 164.841 465.886 164.738 468.836C164.719 469.339 164.895 469.513 165.35 469.467C165.744 469.426 165.859 469.543 165.859 469.798V475H167.684C167.684 475 167.593 463.425 167.593 460.931H167.595Z" fill="#FFA808"/>
<path d="M163.792 463.458C163.792 462.673 163.808 462.037 163.798 461.401C163.798 461.371 163.803 461.341 163.803 461.314V460.918H162.752V464.539H162.008V460.918H160.957V464.539H160.167V460.918H159.116V461.475C159.116 462.746 159.097 464.017 159.132 465.289C159.156 466.15 159.455 466.943 160.269 467.364C160.725 467.6 160.692 467.945 160.692 468.317V472.656C160.692 472.99 160.692 473.324 160.692 473.658C160.692 473.693 160.692 473.729 160.692 473.764V474.997H162.269V473.949C162.269 473.862 162.28 473.772 162.28 473.68C162.269 472.096 162.269 470.51 162.269 468.926V468.326C162.269 467.842 162.391 467.437 162.946 467.149C163.399 466.916 163.579 466.389 163.698 465.873C163.83 465.289 163.806 464.704 163.806 464.164V463.626C163.806 463.569 163.792 463.509 163.795 463.455L163.792 463.458Z" fill="#FFA808"/>
<path d="M177.611 470.607V457.482H173.169V455.395H184.49V457.482H180.048V470.607H177.611Z" fill="#D9D9D9"/>
<path d="M184.425 470.607L189.945 455.395H192.662L198.182 470.607H195.595L194.344 467H188.242L186.969 470.607H184.425ZM188.953 465.022H193.654L191.282 458.286L188.953 465.022Z" fill="#D9D9D9"/>
<path d="M200.662 470.607V455.395H206.204C207.726 455.395 208.902 455.743 209.729 456.438C210.557 457.134 210.969 458.047 210.969 459.177C210.969 460.016 210.761 460.711 210.344 461.263C209.926 461.814 209.408 462.205 208.791 462.436C209.338 462.64 209.826 462.928 210.257 463.306C210.689 463.683 211.031 464.123 211.282 464.631C211.532 465.139 211.659 465.696 211.659 466.305C211.659 467.117 211.473 467.848 211.098 468.5C210.724 469.151 210.174 469.665 209.449 470.042C208.724 470.42 207.821 470.607 206.743 470.607H200.662ZM203.12 461.589H206.009C206.842 461.589 207.462 461.412 207.864 461.056C208.265 460.701 208.468 460.19 208.468 459.524C208.468 458.859 208.265 458.37 207.864 458.014C207.462 457.658 206.829 457.482 205.966 457.482H203.12V461.589ZM203.12 468.521H206.398C207.303 468.521 207.993 468.318 208.468 467.913C208.942 467.508 209.179 466.9 209.179 466.087C209.179 465.275 208.929 464.667 208.425 464.262C207.92 463.857 207.23 463.653 206.354 463.653H203.12V468.521Z" fill="#D9D9D9"/>
<path d="M214.484 470.607V455.395H216.942V468.543H223.626V470.607H214.484Z" fill="#D9D9D9"/>
<path d="M226.494 470.607V455.395H236.068V457.482H228.952V461.545H235.098V463.61H228.952V468.521H236.068V470.607H226.494Z" fill="#D9D9D9"/>
<path d="M252.41 470.868L250.901 469.391C250.254 469.869 249.539 470.235 248.755 470.488C247.971 470.741 247.141 470.868 246.265 470.868C245.216 470.868 244.227 470.681 243.3 470.303C242.372 469.926 241.561 469.393 240.863 468.706C240.165 468.019 239.623 467.193 239.235 466.229C238.847 465.264 238.653 464.189 238.653 463.001C238.653 461.814 238.847 460.739 239.235 459.774C239.623 458.81 240.165 457.984 240.863 457.297C241.561 456.61 242.37 456.077 243.289 455.7C244.208 455.322 245.2 455.135 246.265 455.135C247.329 455.135 248.321 455.319 249.24 455.689C250.159 456.058 250.968 456.588 251.666 457.275C252.364 457.962 252.909 458.794 253.305 459.763C253.701 460.733 253.898 461.814 253.898 463.001C253.898 463.944 253.771 464.816 253.52 465.62C253.27 466.424 252.914 467.139 252.453 467.761L253.984 469.217L252.41 470.868ZM241.176 463.001C241.176 464.205 241.405 465.229 241.866 466.076C242.327 466.924 242.944 467.565 243.72 468C244.496 468.434 245.345 468.652 246.265 468.652C246.855 468.652 247.399 468.584 247.903 468.445C248.407 468.307 248.86 468.095 249.262 467.804L246.933 465.522L248.507 463.871L250.728 466.066C250.944 465.674 251.105 465.226 251.213 464.718C251.321 464.21 251.375 463.64 251.375 463.001C251.375 461.771 251.146 460.733 250.685 459.894C250.224 459.054 249.607 458.419 248.831 457.992C248.054 457.566 247.2 457.351 246.265 457.351C245.329 457.351 244.496 457.568 243.72 458.003C242.944 458.438 242.327 459.076 241.866 459.916C241.405 460.755 241.176 461.784 241.176 463.001Z" fill="#FFA808"/>
<path d="M256.917 470.607V455.395H261.898C262.962 455.395 263.873 455.561 264.636 455.895C265.399 456.229 265.987 456.713 266.404 457.351C266.822 457.989 267.03 458.785 267.03 459.742C267.03 460.858 266.739 461.733 266.156 462.371C265.574 463.01 264.774 463.444 263.752 463.675L268 470.607H265.089L261.316 464.088H259.375V470.607H256.917ZM259.375 462.002H261.855C262.545 462.002 263.086 461.907 263.483 461.719C263.879 461.532 264.154 461.266 264.313 460.926C264.472 460.586 264.55 460.19 264.55 459.742C264.55 459.293 264.472 458.875 264.313 458.536C264.154 458.196 263.879 457.935 263.483 457.753C263.086 457.571 262.545 457.482 261.855 457.482H259.375V462.002Z" fill="#FFA808"/>
</g>
<rect x="298" width="114" height="142" fill="#FF9A04"/>
<path d="M40.704 60.28C39.2107 60.28 37.82 60.0373 36.532 59.552C35.2627 59.048 34.152 58.348 33.2 57.452C32.2667 56.5373 31.5387 55.464 31.016 54.232C30.4933 53 30.232 51.656 30.232 50.2C30.232 48.744 30.4933 47.4 31.016 46.168C31.5387 44.936 32.276 43.872 33.228 42.976C34.18 42.0613 35.2907 41.3613 36.56 40.876C37.8293 40.372 39.22 40.12 40.732 40.12C42.3373 40.12 43.8027 40.4 45.128 40.96C46.4533 41.5013 47.5733 42.3133 48.488 43.396L46.136 45.608C45.4267 44.8427 44.6333 44.2733 43.756 43.9C42.8787 43.508 41.9267 43.312 40.9 43.312C39.8733 43.312 38.9307 43.48 38.072 43.816C37.232 44.152 36.4947 44.628 35.86 45.244C35.244 45.86 34.7587 46.588 34.404 47.428C34.068 48.268 33.9 49.192 33.9 50.2C33.9 51.208 34.068 52.132 34.404 52.972C34.7587 53.812 35.244 54.54 35.86 55.156C36.4947 55.772 37.232 56.248 38.072 56.584C38.9307 56.92 39.8733 57.088 40.9 57.088C41.9267 57.088 42.8787 56.9013 43.756 56.528C44.6333 56.136 45.4267 55.548 46.136 54.764L48.488 57.004C47.5733 58.068 46.4533 58.88 45.128 59.44C43.8027 60 42.328 60.28 40.704 60.28ZM63.5496 60.28C62.0189 60.28 60.6096 60.028 59.3216 59.524C58.0336 59.02 56.9136 58.32 55.9616 57.424C55.0096 56.5093 54.2723 55.4453 53.7496 54.232C53.2269 53 52.9656 51.656 52.9656 50.2C52.9656 48.744 53.2269 47.4093 53.7496 46.196C54.2723 44.964 55.0096 43.9 55.9616 43.004C56.9136 42.0893 58.0336 41.38 59.3216 40.876C60.6096 40.372 62.0096 40.12 63.5216 40.12C65.0523 40.12 66.4523 40.372 67.7216 40.876C69.0096 41.38 70.1296 42.0893 71.0816 43.004C72.0336 43.9 72.7709 44.964 73.2936 46.196C73.8163 47.4093 74.0776 48.744 74.0776 50.2C74.0776 51.656 73.8163 53 73.2936 54.232C72.7709 55.464 72.0336 56.528 71.0816 57.424C70.1296 58.32 69.0096 59.02 67.7216 59.524C66.4523 60.028 65.0616 60.28 63.5496 60.28ZM63.5216 57.088C64.5109 57.088 65.4256 56.92 66.2656 56.584C67.1056 56.248 67.8336 55.772 68.4496 55.156C69.0656 54.5213 69.5416 53.7933 69.8776 52.972C70.2323 52.132 70.4096 51.208 70.4096 50.2C70.4096 49.192 70.2323 48.2773 69.8776 47.456C69.5416 46.616 69.0656 45.888 68.4496 45.272C67.8336 44.6373 67.1056 44.152 66.2656 43.816C65.4256 43.48 64.5109 43.312 63.5216 43.312C62.5323 43.312 61.6176 43.48 60.7776 43.816C59.9563 44.152 59.2283 44.6373 58.5936 45.272C57.9776 45.888 57.4923 46.616 57.1376 47.456C56.8016 48.2773 56.6336 49.192 56.6336 50.2C56.6336 51.1893 56.8016 52.104 57.1376 52.944C57.4923 53.784 57.9776 54.5213 58.5936 55.156C59.2096 55.772 59.9376 56.248 60.7776 56.584C61.6176 56.92 62.5323 57.088 63.5216 57.088ZM80.7359 60V40.4H83.7319L96.0239 55.492H94.5399V40.4H98.1519V60H95.1559L82.8639 44.908H84.3479V60H80.7359ZM110.18 60V43.48H103.684V40.4H120.316V43.48H113.82V60H110.18ZM122.091 60L130.911 40.4H134.495L143.343 60H139.535L131.947 42.332H133.403L125.843 60H122.091ZM126.151 55.464L127.131 52.608H137.715L138.695 55.464H126.151ZM157.434 60.28C155.941 60.28 154.55 60.0373 153.262 59.552C151.993 59.048 150.882 58.348 149.93 57.452C148.997 56.5373 148.269 55.464 147.746 54.232C147.224 53 146.962 51.656 146.962 50.2C146.962 48.744 147.224 47.4 147.746 46.168C148.269 44.936 149.006 43.872 149.958 42.976C150.91 42.0613 152.021 41.3613 153.29 40.876C154.56 40.372 155.95 40.12 157.462 40.12C159.068 40.12 160.533 40.4 161.858 40.96C163.184 41.5013 164.304 42.3133 165.218 43.396L162.866 45.608C162.157 44.8427 161.364 44.2733 160.486 43.9C159.609 43.508 158.657 43.312 157.63 43.312C156.604 43.312 155.661 43.48 154.802 43.816C153.962 44.152 153.225 44.628 152.59 45.244C151.974 45.86 151.489 46.588 151.134 47.428C150.798 48.268 150.63 49.192 150.63 50.2C150.63 51.208 150.798 52.132 151.134 52.972C151.489 53.812 151.974 54.54 152.59 55.156C153.225 55.772 153.962 56.248 154.802 56.584C155.661 56.92 156.604 57.088 157.63 57.088C158.657 57.088 159.609 56.9013 160.486 56.528C161.364 56.136 162.157 55.548 162.866 54.764L165.218 57.004C164.304 58.068 163.184 58.88 161.858 59.44C160.533 60 159.058 60.28 157.434 60.28ZM175.263 60V43.48H168.767V40.4H185.399V43.48H178.903V60H175.263ZM190.931 60V40.4H194.571V56.92H204.819V60H190.931ZM213.853 48.548H223.597V51.544H213.853V48.548ZM214.133 56.948H225.193V60H210.493V40.4H224.801V43.452H214.133V56.948ZM238.127 60.28C236.596 60.28 235.131 60.0653 233.731 59.636C232.331 59.188 231.22 58.6187 230.399 57.928L231.659 55.1C232.443 55.716 233.413 56.2293 234.571 56.64C235.728 57.0507 236.913 57.256 238.127 57.256C239.153 57.256 239.984 57.144 240.619 56.92C241.253 56.696 241.72 56.3973 242.019 56.024C242.317 55.632 242.467 55.1933 242.467 54.708C242.467 54.1107 242.252 53.6347 241.823 53.28C241.393 52.9067 240.833 52.6173 240.143 52.412C239.471 52.188 238.715 51.9827 237.875 51.796C237.053 51.6093 236.223 51.3947 235.383 51.152C234.561 50.8907 233.805 50.564 233.115 50.172C232.443 49.7613 231.892 49.22 231.463 48.548C231.033 47.876 230.819 47.0173 230.819 45.972C230.819 44.908 231.099 43.9373 231.659 43.06C232.237 42.164 233.105 41.4547 234.263 40.932C235.439 40.3907 236.923 40.12 238.715 40.12C239.891 40.12 241.057 40.2693 242.215 40.568C243.372 40.8667 244.38 41.296 245.239 41.856L244.091 44.684C243.213 44.1613 242.308 43.7787 241.375 43.536C240.441 43.2747 239.545 43.144 238.687 43.144C237.679 43.144 236.857 43.2653 236.223 43.508C235.607 43.7507 235.149 44.068 234.851 44.46C234.571 44.852 234.431 45.3 234.431 45.804C234.431 46.4013 234.636 46.8867 235.047 47.26C235.476 47.6147 236.027 47.8947 236.699 48.1C237.389 48.3053 238.155 48.5107 238.995 48.716C239.835 48.9027 240.665 49.1173 241.487 49.36C242.327 49.6027 243.083 49.92 243.755 50.312C244.445 50.704 244.996 51.236 245.407 51.908C245.836 52.58 246.051 53.4293 246.051 54.456C246.051 55.5013 245.761 56.472 245.183 57.368C244.623 58.2453 243.755 58.9547 242.579 59.496C241.403 60.0187 239.919 60.28 238.127 60.28ZM258.536 60.28C257.005 60.28 255.54 60.0653 254.14 59.636C252.74 59.188 251.629 58.6187 250.808 57.928L252.068 55.1C252.852 55.716 253.823 56.2293 254.98 56.64C256.137 57.0507 257.323 57.256 258.536 57.256C259.563 57.256 260.393 57.144 261.028 56.92C261.663 56.696 262.129 56.3973 262.428 56.024C262.727 55.632 262.876 55.1933 262.876 54.708C262.876 54.1107 262.661 53.6347 262.232 53.28C261.803 52.9067 261.243 52.6173 260.552 52.412C259.88 52.188 259.124 51.9827 258.284 51.796C257.463 51.6093 256.632 51.3947 255.792 51.152C254.971 50.8907 254.215 50.564 253.524 50.172C252.852 49.7613 252.301 49.22 251.872 48.548C251.443 47.876 251.228 47.0173 251.228 45.972C251.228 44.908 251.508 43.9373 252.068 43.06C252.647 42.164 253.515 41.4547 254.672 40.932C255.848 40.3907 257.332 40.12 259.124 40.12C260.3 40.12 261.467 40.2693 262.624 40.568C263.781 40.8667 264.789 41.296 265.648 41.856L264.5 44.684C263.623 44.1613 262.717 43.7787 261.784 43.536C260.851 43.2747 259.955 43.144 259.096 43.144C258.088 43.144 257.267 43.2653 256.632 43.508C256.016 43.7507 255.559 44.068 255.26 44.46C254.98 44.852 254.84 45.3 254.84 45.804C254.84 46.4013 255.045 46.8867 255.456 47.26C255.885 47.6147 256.436 47.8947 257.108 48.1C257.799 48.3053 258.564 48.5107 259.404 48.716C260.244 48.9027 261.075 49.1173 261.896 49.36C262.736 49.6027 263.492 49.92 264.164 50.312C264.855 50.704 265.405 51.236 265.816 51.908C266.245 52.58 266.46 53.4293 266.46 54.456C266.46 55.5013 266.171 56.472 265.592 57.368C265.032 58.2453 264.164 58.9547 262.988 59.496C261.812 60.0187 260.328 60.28 258.536 60.28Z" fill="#101026"/>
<path d="M30.96 98V78.4H35.524L43.644 91.728H41.236L49.132 78.4H53.696L53.752 98H48.656L48.6 86.156H49.468L43.56 96.068H41.096L35.02 86.156H36.084V98H30.96ZM63.3308 85.988H72.4308V90.132H63.3308V85.988ZM63.7228 93.716H73.9708V98H58.2348V78.4H73.6068V82.684H63.7228V93.716ZM77.6073 98V78.4H82.1713L92.9793 91.448H90.8233V78.4H96.2553V98H91.6913L80.8833 84.952H83.0393V98H77.6073ZM109.77 98.392C106.877 98.392 104.618 97.5987 102.994 96.012C101.37 94.4253 100.558 92.176 100.558 89.264V78.4H106.102V89.096C106.102 90.776 106.429 91.98 107.082 92.708C107.754 93.436 108.669 93.8 109.826 93.8C110.983 93.8 111.889 93.436 112.542 92.708C113.195 91.98 113.522 90.776 113.522 89.096V78.4H118.982V89.264C118.982 92.176 118.17 94.4253 116.546 96.012C114.922 97.5987 112.663 98.392 109.77 98.392ZM136.43 94.864V81.536H140.742V94.864H136.43ZM131.67 90.244V86.156H145.474V90.244H131.67ZM168.221 98.392C166.653 98.392 165.206 98.14 163.881 97.636C162.556 97.132 161.398 96.4227 160.409 95.508C159.438 94.5747 158.682 93.492 158.141 92.26C157.6 91.028 157.329 89.6747 157.329 88.2C157.329 86.7253 157.6 85.372 158.141 84.14C158.682 82.908 159.438 81.8347 160.409 80.92C161.398 79.9867 162.556 79.268 163.881 78.764C165.206 78.26 166.653 78.008 168.221 78.008C169.808 78.008 171.254 78.26 172.561 78.764C173.886 79.268 175.034 79.9867 176.005 80.92C176.976 81.8347 177.732 82.908 178.273 84.14C178.833 85.372 179.113 86.7253 179.113 88.2C179.113 89.6747 178.833 91.0373 178.273 92.288C177.732 93.52 176.976 94.5933 176.005 95.508C175.034 96.4227 173.886 97.132 172.561 97.636C171.254 98.14 169.808 98.392 168.221 98.392ZM168.221 93.8C168.968 93.8 169.658 93.6693 170.293 93.408C170.946 93.1467 171.506 92.7733 171.973 92.288C172.458 91.784 172.832 91.1867 173.093 90.496C173.373 89.8053 173.513 89.04 173.513 88.2C173.513 87.3413 173.373 86.576 173.093 85.904C172.832 85.2133 172.458 84.6253 171.973 84.14C171.506 83.636 170.946 83.2533 170.293 82.992C169.658 82.7307 168.968 82.6 168.221 82.6C167.474 82.6 166.774 82.7307 166.121 82.992C165.486 83.2533 164.926 83.636 164.441 84.14C163.974 84.6253 163.601 85.2133 163.321 85.904C163.06 86.576 162.929 87.3413 162.929 88.2C162.929 89.04 163.06 89.8053 163.321 90.496C163.601 91.1867 163.974 91.784 164.441 92.288C164.926 92.7733 165.486 93.1467 166.121 93.408C166.774 93.6693 167.474 93.8 168.221 93.8ZM182.577 98V78.4H191.537C193.329 78.4 194.869 78.6893 196.157 79.268C197.463 79.8467 198.471 80.6867 199.181 81.788C199.89 82.8707 200.245 84.1587 200.245 85.652C200.245 87.1267 199.89 88.4053 199.181 89.488C198.471 90.552 197.463 91.3733 196.157 91.952C194.869 92.512 193.329 92.792 191.537 92.792H185.657L188.121 90.468V98H182.577ZM194.701 98L189.829 90.86H195.737L200.637 98H194.701ZM188.121 91.056L185.657 88.508H191.201C192.358 88.508 193.217 88.256 193.777 87.752C194.355 87.248 194.645 86.548 194.645 85.652C194.645 84.7373 194.355 84.028 193.777 83.524C193.217 83.02 192.358 82.768 191.201 82.768H185.657L188.121 80.22V91.056ZM203.863 98V78.4H213.131C215.297 78.4 217.201 78.8013 218.843 79.604C220.486 80.4067 221.765 81.536 222.679 82.992C223.613 84.448 224.079 86.184 224.079 88.2C224.079 90.1973 223.613 91.9333 222.679 93.408C221.765 94.864 220.486 95.9933 218.843 96.796C217.201 97.5987 215.297 98 213.131 98H203.863ZM209.407 93.576H212.907C214.027 93.576 214.998 93.3707 215.819 92.96C216.659 92.5307 217.313 91.9147 217.779 91.112C218.246 90.2907 218.479 89.32 218.479 88.2C218.479 87.0613 218.246 86.0907 217.779 85.288C217.313 84.4853 216.659 83.8787 215.819 83.468C214.998 83.0387 214.027 82.824 212.907 82.824H209.407V93.576ZM232.652 85.988H241.752V90.132H232.652V85.988ZM233.044 93.716H243.292V98H227.556V78.4H242.928V82.684H233.044V93.716ZM246.929 98V78.4H255.889C257.681 78.4 259.221 78.6893 260.509 79.268C261.815 79.8467 262.823 80.6867 263.533 81.788C264.242 82.8707 264.597 84.1587 264.597 85.652C264.597 87.1267 264.242 88.4053 263.533 89.488C262.823 90.552 261.815 91.3733 260.509 91.952C259.221 92.512 257.681 92.792 255.889 92.792H250.009L252.473 90.468V98H246.929ZM259.053 98L254.181 90.86H260.089L264.989 98H259.053ZM252.473 91.056L250.009 88.508H255.553C256.71 88.508 257.569 88.256 258.129 87.752C258.707 87.248 258.997 86.548 258.997 85.652C258.997 84.7373 258.707 84.028 258.129 83.524C257.569 83.02 256.71 82.768 255.553 82.768H250.009L252.473 80.22V91.056Z" fill="black"/>
<path d="M329.104 50V39.776H325.072V37.4H336.052V39.776H332.02V50H329.104ZM335.332 50L340.948 37.4H343.828L349.462 50H346.402L341.794 38.876H342.946L338.32 50H335.332ZM338.14 47.3L338.914 45.086H345.394L346.186 47.3H338.14ZM350.769 50V37.4H356.925C358.509 37.4 359.697 37.7 360.489 38.3C361.293 38.9 361.695 39.692 361.695 40.676C361.695 41.336 361.533 41.912 361.209 42.404C360.885 42.884 360.441 43.256 359.877 43.52C359.313 43.784 358.665 43.916 357.933 43.916L358.275 43.178C359.067 43.178 359.769 43.31 360.381 43.574C360.993 43.826 361.467 44.204 361.803 44.708C362.151 45.212 362.325 45.83 362.325 46.562C362.325 47.642 361.899 48.488 361.047 49.1C360.195 49.7 358.941 50 357.285 50H350.769ZM353.667 47.804H357.069C357.825 47.804 358.395 47.684 358.779 47.444C359.175 47.192 359.373 46.796 359.373 46.256C359.373 45.728 359.175 45.338 358.779 45.086C358.395 44.822 357.825 44.69 357.069 44.69H353.451V42.566H356.565C357.273 42.566 357.813 42.446 358.185 42.206C358.569 41.954 358.761 41.576 358.761 41.072C358.761 40.58 358.569 40.214 358.185 39.974C357.813 39.722 357.273 39.596 356.565 39.596H353.667V47.804ZM364.533 50V37.4H367.449V47.624H373.767V50H364.533ZM378.078 42.476H384.144V44.744H378.078V42.476ZM378.294 47.66H385.152V50H375.396V37.4H384.918V39.74H378.294V47.66Z" fill="#101026"/>
<path d="M326.584 98V92.96L339.544 80.72C340.568 79.792 341.32 78.96 341.8 78.224C342.28 77.488 342.6 76.816 342.76 76.208C342.952 75.6 343.048 75.04 343.048 74.528C343.048 73.184 342.584 72.16 341.656 71.456C340.76 70.72 339.432 70.352 337.672 70.352C336.264 70.352 334.952 70.624 333.736 71.168C332.552 71.712 331.544 72.56 330.712 73.712L325.048 70.064C326.328 68.144 328.12 66.624 330.424 65.504C332.728 64.384 335.384 63.824 338.392 63.824C340.888 63.824 343.064 64.24 344.92 65.072C346.808 65.872 348.264 67.008 349.288 68.48C350.344 69.952 350.872 71.712 350.872 73.76C350.872 74.848 350.728 75.936 350.44 77.024C350.184 78.08 349.64 79.2 348.808 80.384C348.008 81.568 346.824 82.896 345.256 84.368L334.504 94.496L333.016 91.664H351.976V98H326.584ZM354.332 90.944V85.712L370.172 64.4H378.332L362.828 85.712L359.036 84.608H385.484V90.944H354.332ZM372.428 98V90.944L372.668 84.608V78.32H380.012V98H372.428Z" fill="#101026"/>
<path d="M206 177L175.689 124.5L236.311 124.5L206 177Z" fill="#FF9A04"/>
<rect x="120" y="249" width="172" height="172" rx="15" fill="white"/>
<path d="M183.507 312.599C183.507 297.88 183.507 283.106 183.507 268.108C168.81 268.108 154.033 268.108 139.004 268.108C139.004 283.039 139.004 297.736 139.004 312.599C153.849 312.599 168.551 312.599 183.507 312.599ZM145.53 306.127C145.53 295.398 145.53 284.899 145.53 274.467C156.213 274.467 166.639 274.467 177.203 274.467C177.203 285.06 177.203 295.48 177.203 306.127C166.444 306.127 155.941 306.127 145.53 306.127Z" fill="black"/>
<path d="M228.889 268.137C228.889 282.825 228.889 297.596 228.889 312.624C243.822 312.624 258.522 312.624 273.393 312.624C273.393 297.786 273.393 283.089 273.393 268.137C258.672 268.137 243.895 268.137 228.889 268.137ZM266.892 274.523C266.892 285.252 266.892 295.75 266.892 306.183C256.209 306.183 245.781 306.183 235.217 306.183C235.217 295.589 235.217 285.169 235.217 274.523C245.978 274.523 256.481 274.523 266.892 274.523Z" fill="black"/>
<path d="M183.504 402.364C183.504 387.658 183.504 372.884 183.504 357.88C168.819 357.88 154.04 357.88 139 357.88C139 372.798 139 387.495 139 402.364C153.839 402.364 168.542 402.364 183.504 402.364ZM145.501 395.981C145.501 385.227 145.501 374.728 145.501 364.317C156.232 364.317 166.734 364.317 177.176 364.317C177.176 374.997 177.176 385.419 177.176 395.981C166.581 395.981 156.155 395.981 145.501 395.981Z" fill="black"/>
<path d="M196.544 306.404C196.544 306.373 196.544 306.342 196.544 306.309C196.574 306.309 196.603 306.309 196.632 306.309C196.632 306.34 196.632 306.371 196.632 306.404C196.603 306.404 196.574 306.404 196.544 306.404Z" fill="black"/>
<path d="M209.373 344.783C209.402 344.783 209.433 344.783 209.463 344.783C209.463 344.812 209.463 344.841 209.463 344.87C209.433 344.87 209.402 344.87 209.373 344.872C209.373 344.843 209.373 344.812 209.373 344.783Z" fill="black"/>
<path d="M215.789 325.635C215.789 325.606 215.789 325.575 215.789 325.546C215.818 325.546 215.849 325.546 215.878 325.546C215.878 325.575 215.878 325.606 215.878 325.635C215.849 325.635 215.818 325.635 215.789 325.635Z" fill="black"/>
<path d="M190.025 319.001C190.054 319.003 190.085 319.003 190.114 319.005C190.114 319.038 190.114 319.07 190.114 319.103C190.118 319.107 190.025 319.001 190.025 319.001Z" fill="black"/>
<path d="M202.96 312.812C202.96 314.797 202.96 316.788 202.96 319.224C205.239 319.224 207.308 319.224 209.375 319.224C209.375 321.207 209.375 323.198 209.375 325.636C211.654 325.636 213.723 325.636 215.79 325.636C215.79 327.613 215.79 329.597 215.79 331.901C213.718 331.901 211.755 331.901 209.375 331.901C209.375 336.41 209.375 340.597 209.375 344.783C205.255 344.783 201.132 344.783 196.546 344.783C196.546 347.067 196.546 349.133 196.546 351.196C194.486 351.196 192.428 351.196 190.412 351.196C190.412 344.597 190.412 338.373 190.412 331.927C194.664 331.927 198.683 331.927 202.817 331.927C202.817 329.739 202.817 327.785 202.817 325.491C200.673 325.491 198.712 325.491 196.419 325.491C196.419 323.19 196.419 321.231 196.419 319.302C194.094 319.193 192.101 319.1 190.113 319.005C190.109 314.836 190.109 310.668 190.109 306.404C192.584 306.404 194.567 306.404 196.543 306.404C196.543 308.388 196.543 310.376 196.543 312.812C198.825 312.812 200.894 312.812 202.96 312.812Z" fill="black"/>
<path d="M177.585 325.648C177.585 327.96 177.585 329.92 177.585 332.102C179.711 332.102 181.601 332.102 183.555 332.102C183.555 334.293 183.555 336.249 183.555 338.552C179.254 338.552 175.153 338.552 170.83 338.552C170.83 342.922 170.83 346.943 170.83 351.037C166.491 351.037 162.393 351.037 158.156 351.037C158.156 348.855 158.156 346.868 158.156 344.885C160.213 344.885 162.274 344.885 164.623 344.885C164.623 336.072 164.623 327.724 164.623 319.101C173.299 319.101 181.663 319.101 190.029 319.105C190.032 321.176 190.032 323.249 190.032 325.65C185.75 325.648 181.646 325.648 177.585 325.648Z" fill="black"/>
<path d="M158.156 344.792C158.156 344.823 158.156 344.852 158.156 344.883C158.125 344.883 158.096 344.883 158.065 344.883L158.156 344.792Z" fill="black"/>
<path d="M190.027 319.005C190.023 319.001 190.116 319.107 190.113 319.103C190.083 319.103 190.056 319.103 190.027 319.103C190.029 319.07 190.029 319.038 190.027 319.005Z" fill="black"/>
<path d="M228.707 351.197C228.707 351.226 228.707 351.255 228.707 351.284C228.676 351.284 228.643 351.284 228.612 351.284C228.612 351.255 228.612 351.226 228.612 351.197C228.643 351.197 228.676 351.197 228.707 351.197Z" fill="black"/>
<path d="M202.959 389.756C202.959 389.726 202.959 389.697 202.959 389.668C202.991 389.668 203.022 389.668 203.053 389.668C203.053 389.697 203.053 389.726 203.053 389.756C203.022 389.756 202.991 389.756 202.959 389.756Z" fill="black"/>
<path d="M215.589 402.38C209.194 402.38 203.042 402.38 196.552 402.38C196.552 400.275 196.552 398.308 196.552 396.014C194.254 396.014 192.293 396.014 190.43 396.014C190.43 391.575 190.43 387.482 190.43 383.478C192.573 383.478 194.457 383.478 196.672 383.478C196.672 385.612 196.672 387.574 196.672 389.756C198.986 389.756 200.975 389.756 202.958 389.756C202.958 391.732 202.958 393.711 202.958 395.905C205.115 395.905 207.065 395.905 209.463 395.905C209.463 393.868 209.463 391.812 209.463 389.756C211.523 389.756 213.583 389.756 215.589 389.756C215.589 394.225 215.589 398.315 215.589 402.38Z" fill="black"/>
<path d="M267.095 351.184C267.126 351.184 267.155 351.184 267.186 351.184L267.095 351.275C267.095 351.244 267.095 351.215 267.095 351.184Z" fill="black"/>
<path d="M260.769 344.719C258.389 344.719 256.434 344.719 254.368 344.719C254.368 342.418 254.368 340.436 254.368 338.46C256.351 338.46 258.34 338.46 260.778 338.46C260.778 336.183 260.778 334.116 260.778 332.052C264.96 332.052 269.144 332.052 273.355 332.052C273.355 334.326 273.355 336.276 273.355 338.552C271.198 338.552 269.242 338.552 267.095 338.552C267.095 342.982 267.095 347.084 267.095 351.183C264.985 351.189 262.878 351.194 260.769 351.2C260.769 349.144 260.769 347.084 260.769 344.719Z" fill="black"/>
<path d="M254.368 338.46C254.337 338.46 254.306 338.46 254.273 338.46C254.273 338.431 254.273 338.402 254.273 338.373C254.304 338.373 254.335 338.373 254.368 338.373C254.368 338.4 254.368 338.431 254.368 338.46Z" fill="black"/>
<path d="M260.677 351.202C260.708 351.202 260.738 351.202 260.769 351.202C260.769 351.233 260.769 351.262 260.769 351.293L260.677 351.202Z" fill="black"/>
<path d="M216.064 274.355C216.064 276.652 216.064 278.608 216.064 280.779C218.175 280.779 220.062 280.779 222.067 280.779C222.067 282.958 222.067 284.91 222.067 286.99C222.061 286.99 222.058 286.99 222.052 286.99C222.052 289.269 222.052 291.214 222.052 293.15C219.943 293.15 217.834 293.15 215.727 293.15C215.727 291.097 215.727 289.043 215.727 286.99C213.72 286.99 211.707 286.99 209.647 286.99C209.647 280.482 209.647 274.264 209.647 268.131C213.97 268.131 218.062 268.131 222.08 268.131C222.08 270.262 222.08 272.147 222.08 274.357C219.956 274.355 217.996 274.355 216.064 274.355Z" fill="black"/>
<path d="M158.156 344.792L158.065 344.883C158.065 344.852 158.065 344.823 158.065 344.792C158.094 344.792 158.125 344.792 158.156 344.792Z" fill="black"/>
<path d="M151.654 344.774C151.685 344.774 151.714 344.774 151.745 344.774C151.745 344.803 151.745 344.834 151.745 344.865L151.654 344.774Z" fill="black"/>
<path d="M151.745 338.263C147.158 338.263 143.052 338.263 139.037 338.263C139.037 336.03 139.037 334.145 139.037 332.219C145.446 332.219 151.679 332.219 158.065 332.219C158.065 336.55 158.065 340.672 158.065 344.792C155.958 344.786 153.85 344.781 151.745 344.775C151.745 342.712 151.745 340.646 151.745 338.263Z" fill="black"/>
<path d="M139.099 351.03C139.099 348.866 139.099 346.918 139.099 344.865C143.441 344.865 147.546 344.865 151.652 344.865C151.652 346.919 151.652 348.972 151.652 351.03C147.207 351.03 143.125 351.03 139.099 351.03Z" fill="black"/>
<path d="M151.654 344.774L151.745 344.865C151.714 344.865 151.685 344.865 151.654 344.865C151.654 344.836 151.654 344.805 151.654 344.774Z" fill="black"/>
<path d="M145.417 325.367C145.417 323.261 145.417 321.382 145.417 319.348C149.65 319.348 153.737 319.348 157.965 319.348C157.965 321.395 157.965 323.274 157.965 325.367C153.606 325.367 149.515 325.367 145.417 325.367Z" fill="black"/>
<path d="M196.643 293.495C196.643 293.526 196.643 293.555 196.643 293.586C196.614 293.586 196.583 293.586 196.552 293.586L196.643 293.495Z" fill="black"/>
<path d="M196.643 293.586C198.703 293.586 200.765 293.586 202.956 293.586C202.956 298.071 202.956 302.193 202.956 306.309C200.849 306.309 198.741 306.309 196.634 306.309C196.636 302.069 196.64 297.828 196.643 293.586Z" fill="black"/>
<path d="M273.397 319.43C273.397 321.56 273.397 323.437 273.397 325.413C269.047 325.413 264.859 325.413 260.672 325.413C260.668 323.373 260.668 321.341 260.668 319.43C265.308 319.43 269.39 319.43 273.397 319.43Z" fill="black"/>
<path d="M260.672 325.413C260.672 325.447 260.672 325.48 260.672 325.515C260.676 325.519 260.583 325.413 260.583 325.413C260.614 325.413 260.643 325.413 260.672 325.413Z" fill="black"/>
<path d="M183.57 351.021C181.42 351.021 179.468 351.021 177.479 351.021C177.479 348.924 177.479 347.047 177.479 344.989C179.722 344.989 181.601 344.989 183.57 344.989C183.57 347.107 183.57 349.06 183.57 351.021Z" fill="black"/>
<path d="M222.089 306.607C222.089 308.733 222.089 310.605 222.089 312.59C219.883 312.59 217.827 312.59 215.772 312.59C215.769 310.552 215.769 308.521 215.769 306.607C218.254 306.607 220.201 306.607 222.089 306.607Z" fill="black"/>
<path d="M215.789 319.134C215.818 319.134 215.849 319.134 215.878 319.134C215.878 319.165 215.878 319.196 215.878 319.229C215.849 319.229 215.82 319.229 215.79 319.229C215.789 319.196 215.789 319.165 215.789 319.134Z" fill="black"/>
<path d="M209.463 312.814C211.535 312.772 213.61 312.73 215.686 312.691C215.723 314.841 215.754 316.987 215.787 319.134C213.677 319.134 211.57 319.134 209.461 319.134C209.463 317.027 209.463 314.921 209.463 312.814Z" fill="black"/>
<path d="M209.463 319.134C209.463 319.163 209.463 319.195 209.463 319.224C209.433 319.224 209.402 319.224 209.373 319.224C209.373 319.195 209.373 319.163 209.373 319.134C209.404 319.134 209.433 319.134 209.463 319.134Z" fill="black"/>
<path d="M215.735 312.65C215.71 312.621 215.681 312.588 215.681 312.588C215.71 312.588 215.741 312.588 215.77 312.588C215.77 312.622 215.77 312.655 215.77 312.69C215.741 312.69 215.714 312.692 215.686 312.692C215.686 312.659 215.684 312.626 215.684 312.591C215.684 312.591 215.712 312.622 215.735 312.65Z" fill="black"/>
<path d="M203.049 306.399C205.114 306.399 207.18 306.399 209.375 306.399C209.375 308.751 209.375 310.74 209.375 312.723C207.266 312.723 205.156 312.723 203.049 312.723C203.049 310.614 203.049 308.506 203.049 306.399Z" fill="black"/>
<path d="M209.375 312.723C209.404 312.723 209.434 312.723 209.463 312.723C209.463 312.754 209.463 312.785 209.463 312.816C209.434 312.816 209.404 312.818 209.375 312.818C209.375 312.785 209.375 312.754 209.375 312.723Z" fill="black"/>
<path d="M203.049 312.723C203.049 312.752 203.049 312.783 203.049 312.812C203.02 312.812 202.989 312.812 202.959 312.812C202.959 312.783 202.959 312.752 202.959 312.723C202.989 312.723 203.018 312.723 203.049 312.723Z" fill="black"/>
<path d="M202.987 306.368L202.954 306.397C202.954 306.368 202.954 306.339 202.954 306.309C202.985 306.309 203.016 306.309 203.047 306.309C203.047 306.339 203.047 306.368 203.047 306.397C203.016 306.397 202.985 306.397 202.954 306.397C202.954 306.399 202.972 306.381 202.987 306.368Z" fill="black"/>
<path d="M222.052 293.243C222.052 293.212 222.052 293.181 222.052 293.15C222.081 293.15 222.111 293.15 222.14 293.15L222.052 293.243Z" fill="black"/>
<path d="M215.635 293.15C215.664 293.15 215.696 293.15 215.725 293.15C215.725 293.179 215.725 293.21 215.725 293.239L215.635 293.15Z" fill="black"/>
<path d="M248.113 319.403C250.274 319.403 252.22 319.403 254.267 319.403C254.267 321.592 254.267 323.564 254.267 325.533C252.219 325.533 250.171 325.533 248.113 325.533C248.113 323.258 248.113 321.313 248.113 319.403Z" fill="black"/>
<path d="M254.268 325.535C254.299 325.535 254.328 325.535 254.359 325.535L254.268 325.626C254.268 325.595 254.268 325.564 254.268 325.535Z" fill="black"/>
<path d="M248.125 338.373C248.125 336.068 248.125 334.116 248.125 332.054C250.318 332.054 252.297 332.054 254.273 332.054C254.273 334.16 254.273 336.267 254.273 338.375C252.221 338.373 250.168 338.373 248.125 338.373Z" fill="black"/>
<path d="M260.69 331.958C260.719 331.958 260.75 331.958 260.78 331.958C260.78 331.989 260.78 332.02 260.78 332.051C260.75 332.051 260.721 332.051 260.692 332.051C260.69 332.021 260.69 331.99 260.69 331.958Z" fill="black"/>
<path d="M260.674 325.515C260.646 325.515 260.617 325.515 260.59 325.517C260.59 325.484 260.588 325.451 260.588 325.418C260.584 325.413 260.676 325.519 260.674 325.515Z" fill="black"/>
<path d="M254.359 325.535C254.359 325.564 254.359 325.595 254.359 325.625C254.328 325.625 254.299 325.626 254.268 325.626L254.359 325.535Z" fill="black"/>
<path d="M254.359 325.625C256.435 325.588 258.51 325.55 260.59 325.517C260.626 327.666 260.657 329.812 260.69 331.96C258.581 331.96 256.472 331.96 254.362 331.96C254.36 329.847 254.359 327.736 254.359 325.625Z" fill="black"/>
<path d="M254.333 332.02L254.364 332.052C254.335 332.052 254.306 332.052 254.277 332.052C254.277 332.021 254.277 331.99 254.277 331.958C254.306 331.958 254.335 331.958 254.364 331.958C254.364 331.989 254.364 332.02 254.364 332.052C254.362 332.052 254.346 332.034 254.333 332.02Z" fill="black"/>
<path d="M190.385 287.346C192.55 287.346 194.499 287.346 196.551 287.346C196.551 289.545 196.551 291.521 196.551 293.495C194.499 293.495 192.446 293.495 190.385 293.495C190.385 291.198 190.385 289.251 190.385 287.346Z" fill="black"/>
<path d="M196.643 293.495L196.552 293.586C196.552 293.555 196.552 293.526 196.552 293.495C196.581 293.495 196.612 293.495 196.643 293.495Z" fill="black"/>
<path d="M202.751 280.498C202.751 282.697 202.751 284.673 202.751 286.647C200.699 286.647 198.646 286.647 196.584 286.647C196.584 284.366 196.584 282.43 196.584 280.54C194.506 280.54 192.45 280.54 190.37 280.54C190.37 276.285 190.37 272.2 190.37 268C194.577 268 198.588 268 202.751 268C202.751 272.407 202.751 276.483 202.751 280.498Z" fill="black"/>
<path d="M202.751 286.736C202.751 286.705 202.751 286.676 202.751 286.645C202.782 286.645 202.811 286.645 202.843 286.645L202.751 286.736Z" fill="black"/>
<path d="M267.186 351.184C267.186 351.215 267.186 351.244 267.186 351.275C267.157 351.275 267.126 351.275 267.095 351.275L267.186 351.184Z" fill="black"/>
<path d="M273.402 377.133C273.402 379.259 273.402 381.138 273.402 383.154C271.368 383.154 269.489 383.154 267.365 383.154C267.365 380.963 267.365 379.011 267.365 377.133C269.542 377.133 271.496 377.133 273.402 377.133Z" fill="black"/>
<path d="M273.331 389.915C273.331 392.079 273.331 394.029 273.331 395.977C271.22 395.977 269.342 395.977 267.323 395.977C267.323 393.724 267.323 391.845 267.323 389.915C269.456 389.915 271.408 389.915 273.331 389.915Z" fill="black"/>
<path d="M196.639 351.284C196.608 351.284 196.575 351.284 196.544 351.284C196.544 351.255 196.544 351.226 196.544 351.197C196.575 351.197 196.607 351.197 196.639 351.197C196.639 351.226 196.639 351.255 196.639 351.284Z" fill="black"/>
<path d="M260.677 351.293C260.677 351.264 260.677 351.233 260.677 351.202L260.769 351.293C260.739 351.293 260.708 351.293 260.677 351.293Z" fill="black"/>
<path d="M203.053 389.668C205.158 389.668 207.264 389.668 209.369 389.668C209.369 387.683 209.369 385.692 209.369 383.373C211.563 383.373 213.533 383.373 215.721 383.373C215.721 376.881 215.721 370.723 215.721 364.315C222.176 364.315 228.409 364.315 235.023 364.315C235.023 366.3 235.023 368.36 235.023 370.418C233.036 370.418 231.046 370.418 228.721 370.418C228.721 374.767 228.721 378.87 228.721 383.202C226.495 383.202 224.611 383.202 222.487 383.202C222.487 385.386 222.487 387.343 222.487 389.657C224.419 389.657 226.387 389.657 228.57 389.657C228.57 391.881 228.57 393.77 228.57 396.005C235.029 396.005 241.274 396.005 247.859 396.005C247.859 398.306 247.859 400.267 247.859 402.378C252.226 402.378 256.247 402.378 260.502 402.378C260.502 400.422 260.502 398.467 260.502 396.156C258.542 396.156 256.574 396.156 254.47 396.156C254.47 393.932 254.47 392.048 254.47 389.816C256.433 389.816 258.398 389.816 260.546 389.816C260.546 387.515 260.546 385.556 260.546 383.362C258.535 383.362 256.649 383.362 254.541 383.362C254.541 381.178 254.541 379.219 254.541 377.02C256.444 377.02 258.329 377.02 260.475 377.02C260.475 374.836 260.475 372.878 260.475 370.568C258.608 370.568 256.638 370.568 254.499 370.568C254.499 368.348 254.499 366.461 254.499 364.23C256.371 364.23 258.336 364.23 260.677 364.23V364.226C262.823 364.226 264.925 364.226 267.209 364.226C267.209 364.235 267.209 364.242 267.209 364.251C267.209 366.386 267.209 368.187 267.209 370.232C269.216 370.232 271.17 370.232 273.345 370.232C273.345 368.349 273.345 366.397 273.345 364.251C273.345 362.086 273.345 359.838 273.345 357.423H273.351C273.351 355.519 273.351 353.572 273.351 351.275C271.289 351.275 269.237 351.275 267.184 351.275C267.184 353.249 267.184 355.225 267.184 357.423C267.193 357.423 267.2 357.423 267.208 357.423C267.208 357.701 267.208 357.975 267.208 358.247C265.119 358.247 263.022 358.247 260.675 358.247C260.675 355.895 260.675 353.59 260.675 351.293C256.563 351.293 252.447 351.293 247.998 351.293C247.998 349.107 247.998 347.146 247.998 345.011C245.705 345.011 243.749 345.011 241.566 345.011C241.566 349.149 241.566 353.165 241.566 357.414C237.26 357.414 233.172 357.414 228.61 357.414C228.61 355.404 228.61 353.344 228.61 351.286C226.557 351.286 224.501 351.286 222.14 351.286C222.14 353.579 222.14 355.537 222.14 357.409C219.859 357.409 217.912 357.409 215.881 357.409C215.881 353.07 215.881 348.97 215.881 344.872C217.865 344.872 219.853 344.872 222.291 344.872C222.291 342.595 222.291 340.528 222.291 338.464C224.353 338.464 226.418 338.464 228.707 338.464C228.707 342.955 228.707 347.076 228.707 351.196C230.692 351.196 232.68 351.196 235.001 351.196C235.001 346.963 235.001 342.86 235.001 338.537C237.218 338.537 239.107 338.537 241.241 338.537C241.241 334.222 241.241 330.126 241.241 325.539C239.253 325.539 237.193 325.539 235.131 325.539C235.131 323.555 235.131 321.565 235.131 319.229C228.553 319.229 222.215 319.229 215.876 319.229C215.876 321.335 215.876 323.44 215.876 325.548C217.94 325.548 220.005 325.548 222.202 325.548C222.202 330.133 222.202 334.253 222.202 338.371C220.217 338.371 218.224 338.371 215.787 338.371C215.787 340.65 215.787 342.719 215.787 344.786C213.677 344.816 211.57 344.843 209.461 344.872C209.461 349.051 209.461 353.229 209.461 357.451C207.103 357.451 205.155 357.451 202.883 357.451C202.883 355.3 202.883 353.346 202.883 351.284C200.587 351.284 198.61 351.284 196.636 351.284C196.636 353.262 196.636 355.243 196.636 357.546C194.472 357.546 192.51 357.546 190.365 357.546C190.365 359.832 190.365 362.08 190.365 364.319C192.843 364.319 194.89 364.319 196.931 364.319C196.931 366.414 196.931 368.508 196.931 370.82C194.439 370.82 192.393 370.82 190.365 370.82C190.365 372.833 190.365 374.863 190.365 376.94C194.581 376.94 198.763 376.94 202.943 376.94C202.983 381.182 203.018 385.424 203.053 389.668ZM228.891 331.793C228.891 329.631 228.891 327.683 228.891 325.628C231.09 325.628 233.066 325.628 235.042 325.628C235.042 327.679 235.042 329.732 235.042 331.793C232.742 331.793 230.796 331.793 228.891 331.793ZM241.63 364.226C243.856 364.226 245.737 364.226 247.715 364.226C247.715 372.749 247.715 381.109 247.715 389.487C243.429 389.487 239.339 389.487 235.115 389.487C235.115 383.014 235.115 376.763 235.115 370.512C237.18 370.512 239.249 370.512 241.63 370.512C241.63 368.107 241.63 366.142 241.63 364.226ZM203.038 376.848C203.038 372.665 203.038 368.481 203.038 364.275C205.328 364.275 207.277 364.275 209.196 364.275C209.196 368.574 209.196 372.655 209.196 376.848C206.999 376.848 205.018 376.848 203.038 376.848Z" fill="black"/>
<path d="M209.369 389.668C209.4 389.668 209.431 389.668 209.464 389.668C209.464 389.697 209.464 389.726 209.464 389.756C209.433 389.756 209.402 389.756 209.369 389.756C209.369 389.726 209.369 389.697 209.369 389.668Z" fill="black"/>
<path d="M151.858 299.803C151.858 293.287 151.858 287.14 151.858 280.904C158.253 280.904 164.479 280.904 170.708 280.904C170.708 287.326 170.708 293.55 170.708 299.803C164.331 299.803 158.182 299.803 151.858 299.803Z" fill="black"/>
<path d="M260.61 280.896C260.61 287.233 260.61 293.38 260.61 299.697C254.068 299.697 247.841 299.697 241.65 299.697C241.65 293.301 241.65 287.155 241.65 280.896C248.038 280.896 254.264 280.896 260.61 280.896Z" fill="black"/>
<path d="M151.862 389.452C151.862 383.044 151.862 376.896 151.862 370.614C158.184 370.614 164.333 370.614 170.701 370.614C170.701 377.106 170.701 383.329 170.701 389.452C164.241 389.452 158.014 389.452 151.862 389.452Z" fill="black"/>
</g>
<defs>
<clipPath id="clip0_656_2">
<rect width="412" height="512" fill="white"/>
</clipPath>
<clipPath id="clip1_656_2">
<rect width="124" height="24" fill="white" transform="translate(144 451)"/>
</clipPath>
</defs>
</svg>
