<svg width="159" height="258" viewBox="0 0 159 258" fill="none" xmlns="http://www.w3.org/2000/svg">
<path d="M158.74 0.6521H0V257.3H158.74V0.6521Z" fill="white"/>
<mask id="mask0_653_12" style="mask-type:luminance" maskUnits="userSpaceOnUse" x="0" y="0" width="159" height="258">
<path d="M158.74 0H0V257.953H158.74V0Z" fill="white"/>
</mask>
<g mask="url(#mask0_653_12)">
<path d="M184.205 76.679C181.369 76.679 181.369 73.723 178.533 73.723C175.697 73.723 175.697 76.679 172.861 76.679C170.025 76.679 170.025 73.723 167.19 73.723C164.355 73.723 164.355 76.679 161.519 76.679C158.683 76.679 158.683 73.723 155.847 73.723C153.012 73.723 153.012 76.679 150.176 76.679C147.34 76.679 147.34 73.723 144.504 73.723C141.668 73.723 141.668 76.679 138.833 76.679C135.997 76.679 135.997 73.723 133.161 73.723C130.325 73.723 130.325 76.679 127.49 76.679C124.654 76.6789 124.654 73.723 121.818 73.723C118.982 73.723 118.982 76.6789 116.146 76.6789C113.31 76.6789 113.31 73.723 110.474 73.723C107.638 73.723 107.638 76.6789 104.802 76.6789C101.966 76.6789 101.966 73.723 99.1291 73.723C96.2931 73.723 96.2931 76.6789 93.4571 76.6789C90.6211 76.6789 90.6211 73.723 87.7851 73.723C84.9491 73.723 84.9491 76.6789 82.1131 76.6789C79.2771 76.6789 79.2771 73.723 76.4411 73.723C73.6051 73.723 73.6051 76.6789 70.7691 76.6789C67.9321 76.6789 67.9321 73.723 65.0961 73.723C62.2601 73.723 62.2601 76.6789 59.4231 76.6789C56.5871 76.6789 56.5871 73.723 53.7501 73.723C50.9141 73.7229 50.9141 76.6789 48.0771 76.6789C45.2411 76.6789 45.2411 73.7229 42.4041 73.7229C39.5681 73.7229 39.5681 76.6789 36.7321 76.6789C33.8951 76.6789 33.8951 73.7229 31.0591 73.7229C28.2231 73.7229 28.2231 76.6789 25.3871 76.6789C22.5511 76.6789 22.5511 73.7229 19.7141 73.7229C16.8771 73.7229 16.8781 76.6789 14.0411 76.6789C11.2041 76.6789 11.2041 73.7229 8.36809 73.7229C5.53209 73.7229 5.53108 76.6789 2.69508 76.6789C-0.141916 76.6789 -0.14192 73.7229 -2.97792 73.7229C-5.81492 73.7229 -5.81492 76.6789 -8.65192 76.6789C-11.4889 76.6789 -11.4889 73.7229 -14.3259 73.7229C-17.1629 73.7229 -17.1629 76.6789 -19.9999 76.6789L-19.9999 -22.0001L184.205 -22L184.205 76.679Z" fill="#FF9A04"/>
</g>
<path d="M66.372 122.422C66.372 114.362 66.372 106.272 66.372 98.0591C58.324 98.0591 50.232 98.0591 42.002 98.0591C42.002 106.235 42.002 114.283 42.002 122.422C50.131 122.422 58.182 122.422 66.372 122.422ZM45.576 118.878C45.576 113.003 45.576 107.254 45.576 101.541C51.426 101.541 57.135 101.541 62.92 101.541C62.92 107.342 62.92 113.048 62.92 118.878C57.028 118.878 51.277 118.878 45.576 118.878Z" fill="black"/>
<path d="M91.2229 98.075C91.2229 106.118 91.2229 114.207 91.2229 122.436C99.3999 122.436 107.45 122.436 115.593 122.436C115.593 114.311 115.593 106.263 115.593 98.075C107.532 98.075 99.4399 98.075 91.2229 98.075ZM112.033 101.572C112.033 107.447 112.033 113.196 112.033 118.909C106.183 118.909 100.473 118.909 94.6879 118.909C94.6879 113.108 94.6879 107.402 94.6879 101.572C100.581 101.572 106.332 101.572 112.033 101.572Z" fill="black"/>
<path d="M66.37 171.577C66.37 163.524 66.37 155.434 66.37 147.218C58.329 147.218 50.236 147.218 42 147.218C42 155.387 42 163.435 42 171.577C50.126 171.577 58.177 171.577 66.37 171.577ZM45.56 168.082C45.56 162.193 45.56 156.444 45.56 150.743C51.436 150.743 57.187 150.743 62.905 150.743C62.905 156.591 62.905 162.298 62.905 168.082C57.103 168.082 51.394 168.082 45.56 168.082Z" fill="black"/>
<path d="M73.511 119.03C73.511 119.013 73.511 118.996 73.511 118.978C73.527 118.978 73.543 118.978 73.559 118.978C73.559 118.995 73.559 119.012 73.559 119.03C73.543 119.03 73.527 119.03 73.511 119.03Z" fill="black"/>
<path d="M80.5359 140.046C80.5519 140.046 80.5689 140.046 80.5849 140.046C80.5849 140.062 80.5849 140.078 80.5849 140.094C80.5689 140.094 80.5519 140.094 80.5359 140.095C80.5359 140.079 80.5359 140.062 80.5359 140.046Z" fill="black"/>
<path d="M84.0491 129.561C84.0491 129.545 84.0491 129.528 84.0491 129.512C84.0651 129.512 84.0821 129.512 84.0981 129.512C84.0981 129.528 84.0981 129.545 84.0981 129.561C84.0821 129.561 84.0651 129.561 84.0491 129.561Z" fill="black"/>
<path d="M69.9409 125.928C69.9569 125.929 69.9739 125.929 69.9899 125.93C69.9899 125.948 69.9899 125.966 69.9899 125.984C69.9919 125.986 69.9409 125.928 69.9409 125.928Z" fill="black"/>
<path d="M77.0241 122.539C77.0241 123.626 77.0241 124.716 77.0241 126.05C78.2721 126.05 79.4051 126.05 80.5371 126.05C80.5371 127.136 80.5371 128.226 80.5371 129.561C81.7851 129.561 82.9181 129.561 84.0501 129.561C84.0501 130.644 84.0501 131.73 84.0501 132.992C82.9151 132.992 81.8401 132.992 80.5371 132.992C80.5371 135.461 80.5371 137.754 80.5371 140.046C78.2811 140.046 76.0231 140.046 73.5121 140.046C73.5121 141.297 73.5121 142.428 73.5121 143.558C72.3841 143.558 71.2571 143.558 70.1531 143.558C70.1531 139.944 70.1531 136.536 70.1531 133.006C72.4811 133.006 74.6821 133.006 76.9461 133.006C76.9461 131.808 76.9461 130.738 76.9461 129.482C75.7721 129.482 74.6981 129.482 73.4421 129.482C73.4421 128.222 73.4421 127.149 73.4421 126.093C72.1691 126.033 71.0781 125.982 69.9891 125.93C69.9871 123.647 69.9871 121.365 69.9871 119.03C71.3421 119.03 72.4281 119.03 73.5101 119.03C73.5101 120.116 73.5101 121.205 73.5101 122.539C74.7601 122.539 75.8931 122.539 77.0241 122.539Z" fill="black"/>
<path d="M63.129 129.568C63.129 130.834 63.129 131.907 63.129 133.102C64.293 133.102 65.328 133.102 66.398 133.102C66.398 134.302 66.398 135.373 66.398 136.634C64.043 136.634 61.797 136.634 59.43 136.634C59.43 139.027 59.43 141.229 59.43 143.471C57.054 143.471 54.81 143.471 52.49 143.471C52.49 142.276 52.49 141.188 52.49 140.102C53.616 140.102 54.745 140.102 56.031 140.102C56.031 135.276 56.031 130.705 56.031 125.983C60.782 125.983 65.362 125.983 69.943 125.985C69.945 127.119 69.945 128.254 69.945 129.569C67.6 129.568 65.353 129.568 63.129 129.568Z" fill="black"/>
<path d="M52.4899 140.051C52.4899 140.068 52.4899 140.084 52.4899 140.101C52.4729 140.101 52.4569 140.101 52.4399 140.101L52.4899 140.051Z" fill="black"/>
<path d="M69.942 125.93C69.94 125.928 69.991 125.986 69.989 125.984C69.973 125.984 69.958 125.984 69.942 125.984C69.943 125.966 69.943 125.948 69.942 125.93Z" fill="black"/>
<path d="M91.123 143.558C91.123 143.574 91.123 143.59 91.123 143.606C91.106 143.606 91.088 143.606 91.071 143.606C91.071 143.59 91.071 143.574 91.071 143.558C91.088 143.558 91.106 143.558 91.123 143.558Z" fill="black"/>
<path d="M77.0239 164.673C77.0239 164.657 77.0239 164.641 77.0239 164.625C77.0409 164.625 77.0579 164.625 77.0749 164.625C77.0749 164.641 77.0749 164.657 77.0749 164.673C77.0579 164.673 77.0409 164.673 77.0239 164.673Z" fill="black"/>
<path d="M83.9401 171.586C80.4381 171.586 77.0691 171.586 73.5151 171.586C73.5151 170.433 73.5151 169.356 73.5151 168.1C72.2571 168.1 71.1831 168.1 70.1631 168.1C70.1631 165.669 70.1631 163.428 70.1631 161.235C71.3361 161.235 72.3681 161.235 73.5811 161.235C73.5811 162.404 73.5811 163.478 73.5811 164.673C74.8481 164.673 75.9371 164.673 77.0231 164.673C77.0231 165.755 77.0231 166.839 77.0231 168.04C78.2041 168.04 79.2721 168.04 80.5851 168.04C80.5851 166.925 80.5851 165.799 80.5851 164.673C81.7131 164.673 82.8411 164.673 83.9401 164.673C83.9401 167.12 83.9401 169.36 83.9401 171.586Z" fill="black"/>
<path d="M112.144 143.551C112.161 143.551 112.177 143.551 112.194 143.551L112.144 143.601C112.144 143.584 112.144 143.568 112.144 143.551Z" fill="black"/>
<path d="M108.68 140.011C107.377 140.011 106.306 140.011 105.175 140.011C105.175 138.751 105.175 137.666 105.175 136.584C106.261 136.584 107.35 136.584 108.685 136.584C108.685 135.337 108.685 134.205 108.685 133.075C110.975 133.075 113.266 133.075 115.572 133.075C115.572 134.32 115.572 135.388 115.572 136.634C114.391 136.634 113.32 136.634 112.144 136.634C112.144 139.06 112.144 141.306 112.144 143.551C110.989 143.554 109.835 143.557 108.68 143.56C108.68 142.434 108.68 141.306 108.68 140.011Z" fill="black"/>
<path d="M105.175 136.584C105.158 136.584 105.141 136.584 105.123 136.584C105.123 136.568 105.123 136.552 105.123 136.536C105.14 136.536 105.157 136.536 105.175 136.536C105.175 136.551 105.175 136.568 105.175 136.584Z" fill="black"/>
<path d="M108.63 143.561C108.647 143.561 108.663 143.561 108.68 143.561C108.68 143.578 108.68 143.594 108.68 143.611L108.63 143.561Z" fill="black"/>
<path d="M84.2 101.48C84.2 102.738 84.2 103.809 84.2 104.998C85.356 104.998 86.389 104.998 87.487 104.998C87.487 106.191 87.487 107.26 87.487 108.399C87.484 108.399 87.482 108.399 87.479 108.399C87.479 109.647 87.479 110.712 87.479 111.772C86.324 111.772 85.169 111.772 84.015 111.772C84.015 110.648 84.015 109.523 84.015 108.399C82.916 108.399 81.814 108.399 80.686 108.399C80.686 104.835 80.686 101.43 80.686 98.072C83.053 98.072 85.294 98.072 87.494 98.072C87.494 99.239 87.494 100.271 87.494 101.481C86.331 101.48 85.258 101.48 84.2 101.48Z" fill="black"/>
<path d="M52.4899 140.051L52.4399 140.101C52.4399 140.084 52.4399 140.068 52.4399 140.051C52.4559 140.051 52.4729 140.051 52.4899 140.051Z" fill="black"/>
<path d="M48.929 140.041C48.946 140.041 48.962 140.041 48.979 140.041C48.979 140.057 48.979 140.074 48.979 140.091L48.929 140.041Z" fill="black"/>
<path d="M48.979 136.476C46.467 136.476 44.219 136.476 42.02 136.476C42.02 135.253 42.02 134.221 42.02 133.166C45.53 133.166 48.943 133.166 52.44 133.166C52.44 135.538 52.44 137.795 52.44 140.051C51.286 140.048 50.132 140.045 48.979 140.042C48.979 138.912 48.979 137.781 48.979 136.476Z" fill="black"/>
<path d="M42.054 143.467C42.054 142.282 42.054 141.215 42.054 140.091C44.432 140.091 46.68 140.091 48.928 140.091C48.928 141.216 48.928 142.34 48.928 143.467C46.494 143.467 44.259 143.467 42.054 143.467Z" fill="black"/>
<path d="M48.929 140.041L48.979 140.091C48.962 140.091 48.946 140.091 48.929 140.091C48.929 140.075 48.929 140.058 48.929 140.041Z" fill="black"/>
<path d="M45.5139 129.414C45.5139 128.261 45.5139 127.232 45.5139 126.118C47.8319 126.118 50.0699 126.118 52.3849 126.118C52.3849 127.239 52.3849 128.268 52.3849 129.414C49.9979 129.414 47.7579 129.414 45.5139 129.414Z" fill="black"/>
<path d="M73.5649 111.961C73.5649 111.978 73.5649 111.994 73.5649 112.011C73.5489 112.011 73.5319 112.011 73.5149 112.011L73.5649 111.961Z" fill="black"/>
<path d="M73.5651 112.011C74.6931 112.011 75.8221 112.011 77.0221 112.011C77.0221 114.467 77.0221 116.724 77.0221 118.978C75.8681 118.978 74.7141 118.978 73.5601 118.978C73.5611 116.656 73.5631 114.334 73.5651 112.011Z" fill="black"/>
<path d="M115.595 126.163C115.595 127.329 115.595 128.357 115.595 129.439C113.213 129.439 110.92 129.439 108.627 129.439C108.625 128.322 108.625 127.209 108.625 126.163C111.166 126.163 113.401 126.163 115.595 126.163Z" fill="black"/>
<path d="M108.627 129.439C108.627 129.458 108.627 129.476 108.627 129.495C108.629 129.497 108.578 129.439 108.578 129.439C108.595 129.439 108.611 129.439 108.627 129.439Z" fill="black"/>
<path d="M66.406 143.462C65.229 143.462 64.16 143.462 63.071 143.462C63.071 142.314 63.071 141.286 63.071 140.159C64.299 140.159 65.328 140.159 66.406 140.159C66.406 141.319 66.406 142.388 66.406 143.462Z" fill="black"/>
<path d="M87.4991 119.141C87.4991 120.305 87.4991 121.33 87.4991 122.417C86.2911 122.417 85.1651 122.417 84.0401 122.417C84.0381 121.301 84.0381 120.189 84.0381 119.141C85.3991 119.141 86.4651 119.141 87.4991 119.141Z" fill="black"/>
<path d="M84.0491 126.001C84.0651 126.001 84.0821 126.001 84.0981 126.001C84.0981 126.018 84.0981 126.035 84.0981 126.053C84.0821 126.053 84.0661 126.053 84.0501 126.053C84.0491 126.035 84.0491 126.018 84.0491 126.001Z" fill="black"/>
<path d="M80.585 122.54C81.72 122.517 82.856 122.494 83.993 122.473C84.013 123.65 84.03 124.825 84.048 126.001C82.893 126.001 81.739 126.001 80.584 126.001C80.585 124.847 80.585 123.694 80.585 122.54Z" fill="black"/>
<path d="M80.5849 126.001C80.5849 126.017 80.5849 126.034 80.5849 126.05C80.5689 126.05 80.5519 126.05 80.5359 126.05C80.5359 126.034 80.5359 126.017 80.5359 126.001C80.5529 126.001 80.5689 126.001 80.5849 126.001Z" fill="black"/>
<path d="M84.02 122.45C84.006 122.434 83.99 122.416 83.99 122.416C84.006 122.416 84.023 122.416 84.039 122.416C84.039 122.435 84.039 122.453 84.039 122.472C84.023 122.472 84.008 122.473 83.993 122.473C83.993 122.455 83.992 122.437 83.992 122.418C83.992 122.418 84.007 122.435 84.02 122.45Z" fill="black"/>
<path d="M77.073 119.027C78.204 119.027 79.335 119.027 80.537 119.027C80.537 120.315 80.537 121.404 80.537 122.49C79.382 122.49 78.227 122.49 77.073 122.49C77.073 121.335 77.073 120.181 77.073 119.027Z" fill="black"/>
<path d="M80.5371 122.49C80.5531 122.49 80.5691 122.49 80.5851 122.49C80.5851 122.507 80.5851 122.524 80.5851 122.541C80.5691 122.541 80.5531 122.542 80.5371 122.542C80.5371 122.524 80.5371 122.507 80.5371 122.49Z" fill="black"/>
<path d="M77.0729 122.49C77.0729 122.506 77.0729 122.523 77.0729 122.539C77.0569 122.539 77.0399 122.539 77.0239 122.539C77.0239 122.523 77.0239 122.506 77.0239 122.49C77.0399 122.49 77.0559 122.49 77.0729 122.49Z" fill="black"/>
<path d="M77.039 119.01L77.021 119.026C77.021 119.01 77.021 118.994 77.021 118.978C77.038 118.978 77.055 118.978 77.072 118.978C77.072 118.994 77.072 119.01 77.072 119.026C77.055 119.026 77.038 119.026 77.021 119.026C77.021 119.027 77.031 119.017 77.039 119.01Z" fill="black"/>
<path d="M87.479 111.823C87.479 111.806 87.479 111.789 87.479 111.772C87.495 111.772 87.511 111.772 87.527 111.772L87.479 111.823Z" fill="black"/>
<path d="M83.9651 111.772C83.9811 111.772 83.9981 111.772 84.0141 111.772C84.0141 111.788 84.0141 111.805 84.0141 111.821L83.9651 111.772Z" fill="black"/>
<path d="M101.75 126.148C102.933 126.148 103.999 126.148 105.12 126.148C105.12 127.347 105.12 128.427 105.12 129.505C103.998 129.505 102.877 129.505 101.75 129.505C101.75 128.259 101.75 127.194 101.75 126.148Z" fill="black"/>
<path d="M105.12 129.506C105.137 129.506 105.153 129.506 105.17 129.506L105.12 129.556C105.12 129.539 105.12 129.522 105.12 129.506Z" fill="black"/>
<path d="M101.756 136.536C101.756 135.274 101.756 134.205 101.756 133.076C102.957 133.076 104.041 133.076 105.123 133.076C105.123 134.229 105.123 135.383 105.123 136.537C103.999 136.536 102.875 136.536 101.756 136.536Z" fill="black"/>
<path d="M108.637 133.023C108.653 133.023 108.67 133.023 108.686 133.023C108.686 133.04 108.686 133.057 108.686 133.074C108.67 133.074 108.654 133.074 108.638 133.074C108.637 133.058 108.637 133.041 108.637 133.023Z" fill="black"/>
<path d="M108.628 129.495C108.613 129.495 108.597 129.495 108.582 129.496C108.582 129.478 108.581 129.46 108.581 129.442C108.579 129.439 108.629 129.497 108.628 129.495Z" fill="black"/>
<path d="M105.17 129.506C105.17 129.522 105.17 129.539 105.17 129.555C105.153 129.555 105.137 129.556 105.12 129.556L105.17 129.506Z" fill="black"/>
<path d="M105.17 129.555C106.307 129.535 107.443 129.514 108.582 129.496C108.602 130.673 108.619 131.848 108.637 133.024C107.482 133.024 106.327 133.024 105.172 133.024C105.171 131.867 105.17 130.711 105.17 129.555Z" fill="black"/>
<path d="M105.156 133.057L105.173 133.075C105.157 133.075 105.141 133.075 105.125 133.075C105.125 133.058 105.125 133.041 105.125 133.023C105.141 133.023 105.157 133.023 105.173 133.023C105.173 133.04 105.173 133.057 105.173 133.075C105.172 133.075 105.163 133.065 105.156 133.057Z" fill="black"/>
<path d="M70.1379 108.594C71.3239 108.594 72.3909 108.594 73.5149 108.594C73.5149 109.798 73.5149 110.88 73.5149 111.961C72.3909 111.961 71.2669 111.961 70.1379 111.961C70.1379 110.703 70.1379 109.637 70.1379 108.594Z" fill="black"/>
<path d="M73.5649 111.961L73.5149 112.011C73.5149 111.994 73.5149 111.978 73.5149 111.961C73.5309 111.961 73.5479 111.961 73.5649 111.961Z" fill="black"/>
<path d="M76.9099 104.844C76.9099 106.048 76.9099 107.13 76.9099 108.211C75.7859 108.211 74.6619 108.211 73.5329 108.211C73.5329 106.962 73.5329 105.902 73.5329 104.867C72.3949 104.867 71.2689 104.867 70.1299 104.867C70.1299 102.537 70.1299 100.3 70.1299 98C72.4339 98 74.6299 98 76.9099 98C76.9099 100.413 76.9099 102.645 76.9099 104.844Z" fill="black"/>
<path d="M76.9099 108.26C76.9099 108.243 76.9099 108.227 76.9099 108.21C76.9269 108.21 76.9429 108.21 76.9599 108.21L76.9099 108.26Z" fill="black"/>
<path d="M112.194 143.551C112.194 143.568 112.194 143.584 112.194 143.601C112.178 143.601 112.161 143.601 112.144 143.601L112.194 143.551Z" fill="black"/>
<path d="M115.598 157.761C115.598 158.925 115.598 159.954 115.598 161.058C114.484 161.058 113.455 161.058 112.292 161.058C112.292 159.858 112.292 158.789 112.292 157.761C113.484 157.761 114.554 157.761 115.598 157.761Z" fill="black"/>
<path d="M115.559 164.76C115.559 165.945 115.559 167.013 115.559 168.08C114.403 168.08 113.375 168.08 112.269 168.08C112.269 166.846 112.269 165.817 112.269 164.76C113.437 164.76 114.506 164.76 115.559 164.76Z" fill="black"/>
<path d="M73.563 143.606C73.546 143.606 73.528 143.606 73.511 143.606C73.511 143.59 73.511 143.574 73.511 143.558C73.528 143.558 73.545 143.558 73.563 143.558C73.563 143.574 73.563 143.59 73.563 143.606Z" fill="black"/>
<path d="M108.63 143.611C108.63 143.595 108.63 143.578 108.63 143.561L108.68 143.611C108.664 143.611 108.647 143.611 108.63 143.611Z" fill="black"/>
<path d="M77.075 164.625C78.228 164.625 79.381 164.625 80.534 164.625C80.534 163.538 80.534 162.448 80.534 161.178C81.735 161.178 82.814 161.178 84.012 161.178C84.012 157.623 84.012 154.251 84.012 150.742C87.547 150.742 90.96 150.742 94.582 150.742C94.582 151.829 94.582 152.957 94.582 154.084C93.494 154.084 92.404 154.084 91.131 154.084C91.131 156.465 91.131 158.712 91.131 161.084C89.912 161.084 88.88 161.084 87.717 161.084C87.717 162.28 87.717 163.352 87.717 164.619C88.775 164.619 89.853 164.619 91.048 164.619C91.048 165.837 91.048 166.871 91.048 168.095C94.585 168.095 98.005 168.095 101.611 168.095C101.611 169.355 101.611 170.429 101.611 171.585C104.002 171.585 106.204 171.585 108.534 171.585C108.534 170.514 108.534 169.443 108.534 168.178C107.461 168.178 106.383 168.178 105.231 168.178C105.231 166.96 105.231 165.928 105.231 164.706C106.306 164.706 107.382 164.706 108.558 164.706C108.558 163.446 108.558 162.373 108.558 161.172C107.457 161.172 106.424 161.172 105.27 161.172C105.27 159.976 105.27 158.903 105.27 157.699C106.312 157.699 107.344 157.699 108.519 157.699C108.519 156.503 108.519 155.431 108.519 154.166C107.497 154.166 106.418 154.166 105.247 154.166C105.247 152.95 105.247 151.917 105.247 150.695C106.272 150.695 107.348 150.695 108.63 150.695V150.693C109.805 150.693 110.956 150.693 112.207 150.693C112.207 150.698 112.207 150.702 112.207 150.707C112.207 151.876 112.207 152.862 112.207 153.982C113.306 153.982 114.376 153.982 115.567 153.982C115.567 152.951 115.567 151.882 115.567 150.707C115.567 149.521 115.567 148.29 115.567 146.968H115.57C115.57 145.925 115.57 144.859 115.57 143.601C114.441 143.601 113.317 143.601 112.193 143.601C112.193 144.682 112.193 145.764 112.193 146.968C112.198 146.968 112.202 146.968 112.206 146.968C112.206 147.12 112.206 147.27 112.206 147.419C111.062 147.419 109.914 147.419 108.629 147.419C108.629 146.131 108.629 144.869 108.629 143.611C106.377 143.611 104.123 143.611 101.687 143.611C101.687 142.414 101.687 141.34 101.687 140.171C100.431 140.171 99.36 140.171 98.165 140.171C98.165 142.437 98.165 144.636 98.165 146.963C95.807 146.963 93.568 146.963 91.07 146.963C91.07 145.862 91.07 144.734 91.07 143.607C89.946 143.607 88.82 143.607 87.527 143.607C87.527 144.863 87.527 145.935 87.527 146.96C86.278 146.96 85.2119 146.96 84.0999 146.96C84.0999 144.584 84.0999 142.339 84.0999 140.095C85.1859 140.095 86.275 140.095 87.61 140.095C87.61 138.848 87.61 137.716 87.61 136.586C88.739 136.586 89.87 136.586 91.123 136.586C91.123 139.045 91.123 141.302 91.123 143.558C92.21 143.558 93.299 143.558 94.57 143.558C94.57 141.24 94.57 138.993 94.57 136.626C95.784 136.626 96.8179 136.626 97.9869 136.626C97.9869 134.263 97.9869 132.02 97.9869 129.508C96.8979 129.508 95.7699 129.508 94.6409 129.508C94.6409 128.422 94.6409 127.332 94.6409 126.053C91.0389 126.053 87.568 126.053 84.097 126.053C84.097 127.206 84.097 128.359 84.097 129.513C85.227 129.513 86.358 129.513 87.561 129.513C87.561 132.024 87.561 134.28 87.561 136.535C86.474 136.535 85.383 136.535 84.048 136.535C84.048 137.783 84.048 138.916 84.048 140.048C82.893 140.064 81.739 140.079 80.584 140.095C80.584 142.383 80.584 144.671 80.584 146.983C79.293 146.983 78.226 146.983 76.982 146.983C76.982 145.805 76.982 144.735 76.982 143.606C75.725 143.606 74.642 143.606 73.561 143.606C73.561 144.689 73.561 145.774 73.561 147.035C72.376 147.035 71.302 147.035 70.127 147.035C70.127 148.287 70.127 149.518 70.127 150.744C71.484 150.744 72.6049 150.744 73.7229 150.744C73.7229 151.891 73.7229 153.038 73.7229 154.304C72.3579 154.304 71.238 154.304 70.127 154.304C70.127 155.406 70.127 156.518 70.127 157.655C72.436 157.655 74.7259 157.655 77.0149 157.655C77.0369 159.978 77.056 162.301 77.075 164.625ZM91.2239 132.933C91.2239 131.749 91.2239 130.682 91.2239 129.557C92.4279 129.557 93.51 129.557 94.592 129.557C94.592 130.68 94.592 131.804 94.592 132.933C93.333 132.933 92.2669 132.933 91.2239 132.933ZM98.2 150.693C99.419 150.693 100.449 150.693 101.532 150.693C101.532 155.36 101.532 159.938 101.532 164.526C99.185 164.526 96.945 164.526 94.632 164.526C94.632 160.981 94.632 157.558 94.632 154.135C95.763 154.135 96.896 154.135 98.2 154.135C98.2 152.818 98.2 151.742 98.2 150.693ZM77.067 157.605C77.067 155.314 77.067 153.023 77.067 150.72C78.321 150.72 79.388 150.72 80.439 150.72C80.439 153.074 80.439 155.309 80.439 157.605C79.236 157.605 78.151 157.605 77.067 157.605Z" fill="black"/>
<path d="M80.5339 164.625C80.5509 164.625 80.5679 164.625 80.5859 164.625C80.5859 164.641 80.5859 164.657 80.5859 164.673C80.5689 164.673 80.5519 164.673 80.5339 164.673C80.5339 164.657 80.5339 164.641 80.5339 164.625Z" fill="black"/>
<path d="M49.041 115.415C49.041 111.847 49.041 108.481 49.041 105.066C52.543 105.066 55.952 105.066 59.363 105.066C59.363 108.583 59.363 111.991 59.363 115.415C55.871 115.415 52.504 115.415 49.041 115.415Z" fill="black"/>
<path d="M108.593 105.062C108.593 108.532 108.593 111.898 108.593 115.357C105.011 115.357 101.601 115.357 98.2109 115.357C98.2109 111.855 98.2109 108.489 98.2109 105.062C101.709 105.062 105.118 105.062 108.593 105.062Z" fill="black"/>
<path d="M49.043 164.507C49.043 160.998 49.043 157.631 49.043 154.191C52.505 154.191 55.872 154.191 59.359 154.191C59.359 157.746 59.359 161.154 59.359 164.507C55.822 164.507 52.412 164.507 49.043 164.507Z" fill="black"/>
<path d="M23.84 32V23.6H27.68C28.448 23.6 29.108 23.724 29.66 23.972C30.22 24.22 30.652 24.58 30.956 25.052C31.26 25.516 31.412 26.068 31.412 26.708C31.412 27.34 31.26 27.888 30.956 28.352C30.652 28.808 30.22 29.16 29.66 29.408C29.108 29.648 28.448 29.768 27.68 29.768H25.16L26.216 28.772V32H23.84ZM29.036 32L26.948 28.94H29.48L31.58 32H29.036ZM26.216 29.024L25.16 27.932H27.536C28.032 27.932 28.4 27.824 28.64 27.608C28.888 27.392 29.012 27.092 29.012 26.708C29.012 26.316 28.888 26.012 28.64 25.796C28.4 25.58 28.032 25.472 27.536 25.472H25.16L26.216 24.38V29.024ZM36.0228 32.108C35.2548 32.108 34.5828 31.964 34.0068 31.676C33.4388 31.38 32.9948 30.98 32.6748 30.476C32.3628 29.964 32.2068 29.384 32.2068 28.736C32.2068 28.088 32.3588 27.512 32.6628 27.008C32.9748 26.496 33.4028 26.1 33.9468 25.82C34.4908 25.532 35.1028 25.388 35.7828 25.388C36.4228 25.388 37.0068 25.52 37.5348 25.784C38.0628 26.04 38.4828 26.42 38.7948 26.924C39.1068 27.428 39.2628 28.04 39.2628 28.76C39.2628 28.84 39.2588 28.932 39.2508 29.036C39.2428 29.14 39.2348 29.236 39.2268 29.324H34.0788V28.124H38.0148L37.1508 28.46C37.1588 28.164 37.1028 27.908 36.9828 27.692C36.8708 27.476 36.7108 27.308 36.5028 27.188C36.3028 27.068 36.0668 27.008 35.7948 27.008C35.5228 27.008 35.2828 27.068 35.0748 27.188C34.8748 27.308 34.7188 27.48 34.6068 27.704C34.4948 27.92 34.4388 28.176 34.4388 28.472V28.82C34.4388 29.14 34.5028 29.416 34.6308 29.648C34.7668 29.88 34.9588 30.06 35.2068 30.188C35.4548 30.308 35.7508 30.368 36.0948 30.368C36.4148 30.368 36.6868 30.324 36.9108 30.236C37.1428 30.14 37.3708 29.996 37.5948 29.804L38.7948 31.052C38.4828 31.396 38.0988 31.66 37.6428 31.844C37.1868 32.02 36.6468 32.108 36.0228 32.108ZM42.678 32.108C42.126 32.108 41.586 32.044 41.058 31.916C40.538 31.788 40.118 31.628 39.798 31.436L40.482 29.876C40.786 30.06 41.142 30.208 41.55 30.32C41.958 30.424 42.358 30.476 42.75 30.476C43.134 30.476 43.398 30.436 43.542 30.356C43.694 30.276 43.77 30.168 43.77 30.032C43.77 29.904 43.698 29.812 43.554 29.756C43.418 29.692 43.234 29.644 43.002 29.612C42.778 29.58 42.53 29.544 42.258 29.504C41.986 29.464 41.71 29.412 41.43 29.348C41.158 29.276 40.906 29.172 40.674 29.036C40.45 28.892 40.27 28.7 40.134 28.46C39.998 28.22 39.93 27.916 39.93 27.548C39.93 27.132 40.05 26.764 40.29 26.444C40.538 26.116 40.898 25.86 41.37 25.676C41.842 25.484 42.418 25.388 43.098 25.388C43.554 25.388 44.014 25.436 44.478 25.532C44.95 25.62 45.346 25.756 45.666 25.94L44.982 27.488C44.662 27.304 44.342 27.18 44.022 27.116C43.702 27.044 43.398 27.008 43.11 27.008C42.726 27.008 42.454 27.052 42.294 27.14C42.142 27.228 42.066 27.336 42.066 27.464C42.066 27.592 42.134 27.692 42.27 27.764C42.406 27.828 42.586 27.88 42.81 27.92C43.042 27.952 43.294 27.988 43.566 28.028C43.838 28.06 44.11 28.112 44.382 28.184C44.662 28.256 44.914 28.364 45.138 28.508C45.37 28.644 45.554 28.832 45.69 29.072C45.826 29.304 45.894 29.604 45.894 29.972C45.894 30.372 45.77 30.732 45.522 31.052C45.282 31.372 44.922 31.628 44.442 31.82C43.97 32.012 43.382 32.108 42.678 32.108ZM49.7805 32.108C48.9485 32.108 48.3005 31.904 47.8365 31.496C47.3725 31.08 47.1405 30.456 47.1405 29.624V24.044H49.4205V29.6C49.4205 29.832 49.4845 30.016 49.6125 30.152C49.7405 30.28 49.9045 30.344 50.1045 30.344C50.3765 30.344 50.6085 30.276 50.8005 30.14L51.3645 31.736C51.1725 31.864 50.9365 31.956 50.6565 32.012C50.3765 32.076 50.0845 32.108 49.7805 32.108ZM46.1925 27.44V25.736H50.9085V27.44H46.1925ZM56.2157 32V30.788L56.0597 30.488V28.256C56.0597 27.896 55.9477 27.62 55.7237 27.428C55.5077 27.228 55.1597 27.128 54.6797 27.128C54.3677 27.128 54.0517 27.18 53.7317 27.284C53.4117 27.38 53.1397 27.516 52.9157 27.692L52.1477 26.144C52.5157 25.904 52.9557 25.72 53.4677 25.592C53.9877 25.456 54.5037 25.388 55.0157 25.388C56.0717 25.388 56.8877 25.632 57.4637 26.12C58.0477 26.6 58.3397 27.356 58.3397 28.388V32H56.2157ZM54.2957 32.108C53.7757 32.108 53.3357 32.02 52.9757 31.844C52.6157 31.668 52.3397 31.428 52.1477 31.124C51.9637 30.82 51.8717 30.48 51.8717 30.104C51.8717 29.704 51.9717 29.36 52.1717 29.072C52.3797 28.776 52.6957 28.552 53.1197 28.4C53.5437 28.24 54.0917 28.16 54.7637 28.16H56.2997V29.348H55.0757C54.7077 29.348 54.4477 29.408 54.2957 29.528C54.1517 29.648 54.0797 29.808 54.0797 30.008C54.0797 30.208 54.1557 30.368 54.3077 30.488C54.4597 30.608 54.6677 30.668 54.9317 30.668C55.1797 30.668 55.4037 30.608 55.6037 30.488C55.8117 30.36 55.9637 30.168 56.0597 29.912L56.3717 30.752C56.2517 31.2 56.0157 31.54 55.6637 31.772C55.3197 31.996 54.8637 32.108 54.2957 32.108ZM62.5149 32.108C61.9869 32.108 61.5109 32.004 61.0869 31.796C60.6709 31.588 60.3429 31.264 60.1029 30.824C59.8709 30.376 59.7549 29.812 59.7549 29.132V25.496H62.0349V28.76C62.0349 29.264 62.1269 29.624 62.3109 29.84C62.5029 30.056 62.7709 30.164 63.1149 30.164C63.3389 30.164 63.5429 30.112 63.7269 30.008C63.9109 29.904 64.0589 29.74 64.1709 29.516C64.2829 29.284 64.3389 28.988 64.3389 28.628V25.496H66.6189V32H64.4469V30.164L64.8669 30.68C64.6429 31.16 64.3189 31.52 63.8949 31.76C63.4709 31.992 63.0109 32.108 62.5149 32.108ZM68.0875 32V25.496H70.2595V27.392L69.9355 26.852C70.1275 26.364 70.4395 26 70.8715 25.76C71.3035 25.512 71.8275 25.388 72.4435 25.388V27.44C72.3395 27.424 72.2475 27.416 72.1675 27.416C72.0955 27.408 72.0155 27.404 71.9275 27.404C71.4635 27.404 71.0875 27.532 70.7995 27.788C70.5115 28.036 70.3675 28.444 70.3675 29.012V32H68.0875ZM76.9579 32V30.788L76.8019 30.488V28.256C76.8019 27.896 76.6899 27.62 76.4659 27.428C76.2499 27.228 75.9019 27.128 75.4219 27.128C75.1099 27.128 74.7939 27.18 74.4739 27.284C74.1539 27.38 73.8819 27.516 73.6579 27.692L72.8899 26.144C73.2579 25.904 73.6979 25.72 74.2099 25.592C74.7299 25.456 75.2459 25.388 75.7579 25.388C76.8139 25.388 77.6299 25.632 78.2059 26.12C78.7899 26.6 79.0819 27.356 79.0819 28.388V32H76.9579ZM75.0379 32.108C74.5179 32.108 74.0779 32.02 73.7179 31.844C73.3579 31.668 73.0819 31.428 72.8899 31.124C72.7059 30.82 72.6139 30.48 72.6139 30.104C72.6139 29.704 72.7139 29.36 72.9139 29.072C73.1219 28.776 73.4379 28.552 73.8619 28.4C74.2859 28.24 74.8339 28.16 75.5059 28.16H77.0419V29.348H75.8179C75.4499 29.348 75.1899 29.408 75.0379 29.528C74.8939 29.648 74.8219 29.808 74.8219 30.008C74.8219 30.208 74.8979 30.368 75.0499 30.488C75.2019 30.608 75.4099 30.668 75.6739 30.668C75.9219 30.668 76.1459 30.608 76.3459 30.488C76.5539 30.36 76.7059 30.168 76.8019 29.912L77.1139 30.752C76.9939 31.2 76.7579 31.54 76.4059 31.772C76.0619 31.996 75.6059 32.108 75.0379 32.108ZM84.7571 25.388C85.2611 25.388 85.7171 25.492 86.1251 25.7C86.5331 25.9 86.8531 26.212 87.0851 26.636C87.3251 27.06 87.4451 27.608 87.4451 28.28V32H85.1651V28.652C85.1651 28.188 85.0691 27.852 84.8771 27.644C84.6931 27.428 84.4331 27.32 84.0971 27.32C83.8571 27.32 83.6371 27.376 83.4371 27.488C83.2371 27.592 83.0811 27.756 82.9691 27.98C82.8571 28.204 82.8011 28.496 82.8011 28.856V32H80.5211V25.496H82.6931V27.344L82.2731 26.804C82.5211 26.332 82.8611 25.98 83.2931 25.748C83.7251 25.508 84.2131 25.388 84.7571 25.388ZM91.7805 32.108C90.9485 32.108 90.3005 31.904 89.8365 31.496C89.3725 31.08 89.1405 30.456 89.1405 29.624V24.044H91.4205V29.6C91.4205 29.832 91.4845 30.016 91.6125 30.152C91.7405 30.28 91.9045 30.344 92.1045 30.344C92.3765 30.344 92.6085 30.276 92.8005 30.14L93.3645 31.736C93.1725 31.864 92.9365 31.956 92.6565 32.012C92.3765 32.076 92.0845 32.108 91.7805 32.108ZM88.1925 27.44V25.736H92.9085V27.44H88.1925ZM97.8439 32V23.6H99.7999L104.432 29.192H103.508V23.6H105.836V32H103.88L99.2479 26.408H100.172V32H97.8439ZM111.376 32V30.788L111.22 30.488V28.256C111.22 27.896 111.108 27.62 110.884 27.428C110.668 27.228 110.32 27.128 109.84 27.128C109.528 27.128 109.212 27.18 108.892 27.284C108.572 27.38 108.3 27.516 108.076 27.692L107.308 26.144C107.676 25.904 108.116 25.72 108.628 25.592C109.148 25.456 109.664 25.388 110.176 25.388C111.232 25.388 112.048 25.632 112.624 26.12C113.208 26.6 113.5 27.356 113.5 28.388V32H111.376ZM109.456 32.108C108.936 32.108 108.496 32.02 108.136 31.844C107.776 31.668 107.5 31.428 107.308 31.124C107.124 30.82 107.032 30.48 107.032 30.104C107.032 29.704 107.132 29.36 107.332 29.072C107.54 28.776 107.856 28.552 108.28 28.4C108.704 28.24 109.252 28.16 109.924 28.16H111.46V29.348H110.236C109.868 29.348 109.608 29.408 109.456 29.528C109.312 29.648 109.24 29.808 109.24 30.008C109.24 30.208 109.316 30.368 109.468 30.488C109.62 30.608 109.828 30.668 110.092 30.668C110.34 30.668 110.564 30.608 110.764 30.488C110.972 30.36 111.124 30.168 111.22 29.912L111.532 30.752C111.412 31.2 111.176 31.54 110.824 31.772C110.48 31.996 110.024 32.108 109.456 32.108ZM123.411 25.388C123.915 25.388 124.363 25.492 124.755 25.7C125.155 25.9 125.467 26.212 125.691 26.636C125.923 27.06 126.039 27.608 126.039 28.28V32H123.759V28.652C123.759 28.188 123.671 27.852 123.495 27.644C123.319 27.428 123.079 27.32 122.775 27.32C122.559 27.32 122.363 27.372 122.187 27.476C122.011 27.58 121.875 27.74 121.779 27.956C121.683 28.164 121.635 28.436 121.635 28.772V32H119.355V28.652C119.355 28.188 119.267 27.852 119.091 27.644C118.923 27.428 118.683 27.32 118.371 27.32C118.147 27.32 117.947 27.372 117.771 27.476C117.603 27.58 117.467 27.74 117.363 27.956C117.267 28.164 117.219 28.436 117.219 28.772V32H114.939V25.496H117.111V27.308L116.679 26.792C116.919 26.328 117.247 25.98 117.663 25.748C118.079 25.508 118.543 25.388 119.055 25.388C119.639 25.388 120.151 25.54 120.591 25.844C121.039 26.14 121.339 26.604 121.491 27.236L120.747 27.08C120.979 26.552 121.327 26.14 121.791 25.844C122.263 25.54 122.803 25.388 123.411 25.388ZM130.968 32.108C130.2 32.108 129.528 31.964 128.952 31.676C128.384 31.38 127.94 30.98 127.62 30.476C127.308 29.964 127.152 29.384 127.152 28.736C127.152 28.088 127.304 27.512 127.608 27.008C127.92 26.496 128.348 26.1 128.892 25.82C129.436 25.532 130.048 25.388 130.728 25.388C131.368 25.388 131.952 25.52 132.48 25.784C133.008 26.04 133.428 26.42 133.74 26.924C134.052 27.428 134.208 28.04 134.208 28.76C134.208 28.84 134.204 28.932 134.196 29.036C134.188 29.14 134.18 29.236 134.172 29.324H129.024V28.124H132.96L132.096 28.46C132.104 28.164 132.048 27.908 131.928 27.692C131.816 27.476 131.656 27.308 131.448 27.188C131.248 27.068 131.012 27.008 130.74 27.008C130.468 27.008 130.228 27.068 130.02 27.188C129.82 27.308 129.664 27.48 129.552 27.704C129.44 27.92 129.384 28.176 129.384 28.472V28.82C129.384 29.14 129.448 29.416 129.576 29.648C129.712 29.88 129.904 30.06 130.152 30.188C130.4 30.308 130.696 30.368 131.04 30.368C131.36 30.368 131.632 30.324 131.856 30.236C132.088 30.14 132.316 29.996 132.54 29.804L133.74 31.052C133.428 31.396 133.044 31.66 132.588 31.844C132.132 32.02 131.592 32.108 130.968 32.108Z" fill="white"/>
<path d="M57.3182 46.0653V45.1818H61.9602V46.0653H60.1619V51H59.1165V46.0653H57.3182ZM63.4716 51.0881C63.1951 51.0881 62.946 51.0388 62.7244 50.9403C62.5047 50.84 62.3305 50.6922 62.2017 50.4972C62.0748 50.3021 62.0114 50.0616 62.0114 49.7756C62.0114 49.5294 62.0568 49.3258 62.1477 49.1648C62.2386 49.0038 62.3627 48.875 62.5199 48.7784C62.6771 48.6818 62.8542 48.6089 63.0511 48.5597C63.25 48.5085 63.4555 48.4716 63.6676 48.4489C63.9233 48.4223 64.1307 48.3987 64.2898 48.3778C64.4489 48.3551 64.5644 48.321 64.6364 48.2756C64.7102 48.2282 64.7472 48.1553 64.7472 48.0568V48.0398C64.7472 47.8258 64.6837 47.66 64.5568 47.5426C64.4299 47.4252 64.2472 47.3665 64.0085 47.3665C63.7566 47.3665 63.5568 47.4214 63.4091 47.5312C63.2633 47.6411 63.1648 47.7708 63.1136 47.9205L62.1534 47.7841C62.2292 47.5189 62.3542 47.2973 62.5284 47.1193C62.7027 46.9394 62.9157 46.8049 63.1676 46.7159C63.4195 46.625 63.6979 46.5795 64.0028 46.5795C64.2131 46.5795 64.4223 46.6042 64.6307 46.6534C64.839 46.7027 65.0294 46.7841 65.2017 46.8977C65.3741 47.0095 65.5123 47.1619 65.6165 47.3551C65.7225 47.5483 65.7756 47.7898 65.7756 48.0795V51H64.7869V50.4006H64.7528C64.6903 50.5218 64.6023 50.6354 64.4886 50.7415C64.3769 50.8456 64.2358 50.9299 64.0653 50.9943C63.8968 51.0568 63.6989 51.0881 63.4716 51.0881ZM63.7386 50.3324C63.9451 50.3324 64.1241 50.2917 64.2756 50.2102C64.4271 50.1269 64.5436 50.017 64.625 49.8807C64.7083 49.7443 64.75 49.5956 64.75 49.4347V48.9205C64.7178 48.947 64.6629 48.9716 64.5852 48.9943C64.5095 49.017 64.4242 49.0369 64.3295 49.054C64.2348 49.071 64.1411 49.0862 64.0483 49.0994C63.9555 49.1127 63.875 49.1241 63.8068 49.1335C63.6534 49.1544 63.5161 49.1884 63.3949 49.2358C63.2737 49.2831 63.178 49.3494 63.108 49.4347C63.0379 49.518 63.0028 49.6259 63.0028 49.7585C63.0028 49.9479 63.072 50.0909 63.2102 50.1875C63.3485 50.2841 63.5246 50.3324 63.7386 50.3324ZM66.8551 51V45.1818H67.8835V47.358H67.9261C67.9792 47.2519 68.054 47.1392 68.1506 47.0199C68.2472 46.8987 68.3778 46.7955 68.5426 46.7102C68.7074 46.6231 68.9176 46.5795 69.1733 46.5795C69.5104 46.5795 69.8144 46.6657 70.0852 46.8381C70.358 47.0085 70.5739 47.2614 70.733 47.5966C70.8939 47.9299 70.9744 48.339 70.9744 48.8239C70.9744 49.303 70.8958 49.7102 70.7386 50.0455C70.5814 50.3807 70.3674 50.6364 70.0966 50.8125C69.8258 50.9886 69.5189 51.0767 69.1761 51.0767C68.9261 51.0767 68.7188 51.035 68.554 50.9517C68.3892 50.8684 68.2566 50.768 68.1562 50.6506C68.0578 50.5312 67.9811 50.4186 67.9261 50.3125H67.8665V51H66.8551ZM67.8636 48.8182C67.8636 49.1004 67.9034 49.3475 67.983 49.5597C68.0644 49.7718 68.1809 49.9375 68.3324 50.0568C68.4858 50.1742 68.6714 50.233 68.8892 50.233C69.1165 50.233 69.3068 50.1723 69.4602 50.0511C69.6136 49.928 69.7292 49.7604 69.8068 49.5483C69.8864 49.3343 69.9261 49.0909 69.9261 48.8182C69.9261 48.5473 69.8873 48.3068 69.8097 48.0966C69.732 47.8864 69.6165 47.7216 69.4631 47.6023C69.3097 47.483 69.1184 47.4233 68.8892 47.4233C68.6695 47.4233 68.483 47.4811 68.3295 47.5966C68.1761 47.7121 68.0597 47.8741 67.9801 48.0824C67.9025 48.2907 67.8636 48.536 67.8636 48.8182ZM72.8771 45.1818V51H71.8487V45.1818H72.8771ZM75.8665 51.0852C75.429 51.0852 75.0511 50.9943 74.733 50.8125C74.4167 50.6288 74.1733 50.3693 74.0028 50.0341C73.8324 49.697 73.7472 49.3002 73.7472 48.8438C73.7472 48.3949 73.8324 48.0009 74.0028 47.6619C74.1752 47.321 74.4157 47.0559 74.7244 46.8665C75.0331 46.6752 75.3958 46.5795 75.8125 46.5795C76.0814 46.5795 76.3352 46.6231 76.5739 46.7102C76.8144 46.7955 77.0265 46.928 77.2102 47.108C77.3958 47.2879 77.5417 47.517 77.6477 47.7955C77.7538 48.072 77.8068 48.4015 77.8068 48.7841V49.0994H74.2301V48.4062H76.821C76.8191 48.2093 76.7765 48.0341 76.6932 47.8807C76.6098 47.7254 76.4934 47.6032 76.3438 47.5142C76.196 47.4252 76.0237 47.3807 75.8267 47.3807C75.6165 47.3807 75.4318 47.4318 75.2727 47.5341C75.1136 47.6345 74.9896 47.767 74.9006 47.9318C74.8134 48.0947 74.7689 48.2737 74.767 48.4688V49.0739C74.767 49.3277 74.8134 49.5455 74.9062 49.7273C74.9991 49.9072 75.1288 50.0455 75.2955 50.142C75.4621 50.2367 75.6572 50.2841 75.8807 50.2841C76.0303 50.2841 76.1657 50.2633 76.2869 50.2216C76.4081 50.178 76.5133 50.1146 76.6023 50.0312C76.6913 49.9479 76.7585 49.8447 76.804 49.7216L77.7642 49.8295C77.7036 50.0833 77.5881 50.3049 77.4176 50.4943C77.2491 50.6818 77.0331 50.8277 76.7699 50.9318C76.5066 51.0341 76.2055 51.0852 75.8665 51.0852ZM85.4879 45.1818V51H84.5504L81.8089 47.0369H81.7607V51H80.7067V45.1818H81.6499L84.3885 49.1477H84.4396V45.1818H85.4879ZM88.4943 51.0852C88.0682 51.0852 87.6989 50.9915 87.3864 50.804C87.0739 50.6165 86.8314 50.3542 86.6591 50.017C86.4886 49.6799 86.4034 49.286 86.4034 48.8352C86.4034 48.3845 86.4886 47.9896 86.6591 47.6506C86.8314 47.3116 87.0739 47.0483 87.3864 46.8608C87.6989 46.6733 88.0682 46.5795 88.4943 46.5795C88.9205 46.5795 89.2898 46.6733 89.6023 46.8608C89.9148 47.0483 90.1563 47.3116 90.3267 47.6506C90.4991 47.9896 90.5852 48.3845 90.5852 48.8352C90.5852 49.286 90.4991 49.6799 90.3267 50.017C90.1563 50.3542 89.9148 50.6165 89.6023 50.804C89.2898 50.9915 88.9205 51.0852 88.4943 51.0852ZM88.5 50.2614C88.7311 50.2614 88.9242 50.1979 89.0795 50.071C89.2348 49.9422 89.3504 49.7699 89.4261 49.554C89.5038 49.3381 89.5426 49.0975 89.5426 48.8324C89.5426 48.5653 89.5038 48.3239 89.4261 48.108C89.3504 47.8902 89.2348 47.7169 89.0795 47.5881C88.9242 47.4593 88.7311 47.3949 88.5 47.3949C88.2633 47.3949 88.0663 47.4593 87.9091 47.5881C87.7538 47.7169 87.6373 47.8902 87.5597 48.108C87.4839 48.3239 87.446 48.5653 87.446 48.8324C87.446 49.0975 87.4839 49.3381 87.5597 49.554C87.6373 49.7699 87.7538 49.9422 87.9091 50.071C88.0663 50.1979 88.2633 50.2614 88.5 50.2614Z" fill="white"/>
<path d="M15.796 198.044C15.332 198.044 14.888 197.964 14.464 197.804C14.048 197.644 13.708 197.4 13.444 197.072C13.18 196.744 13.048 196.336 13.048 195.848C13.048 195.416 13.144 195.08 13.336 194.84C13.528 194.592 13.768 194.42 14.056 194.324C14.344 194.228 14.624 194.18 14.896 194.18C14.64 194.452 14.444 194.732 14.308 195.02C14.18 195.308 14.116 195.584 14.116 195.848C14.116 196.12 14.184 196.376 14.32 196.616C14.464 196.848 14.676 197.036 14.956 197.18C15.236 197.332 15.584 197.408 16 197.408C16.36 197.408 16.708 197.348 17.044 197.228C17.388 197.108 17.668 196.928 17.884 196.688C18.108 196.448 18.22 196.148 18.22 195.788C18.22 195.46 18.124 195.18 17.932 194.948C17.748 194.708 17.508 194.496 17.212 194.312C16.916 194.12 16.604 193.94 16.276 193.772C15.948 193.596 15.636 193.408 15.34 193.208C15.044 193.008 14.8 192.776 14.608 192.512C14.424 192.248 14.332 191.932 14.332 191.564C14.332 191.236 14.412 190.888 14.572 190.52C14.74 190.144 14.976 189.792 15.28 189.464C15.584 189.136 15.952 188.872 16.384 188.672C16.816 188.464 17.296 188.36 17.824 188.36C18.376 188.36 18.764 188.476 18.988 188.708C19.212 188.94 19.324 189.244 19.324 189.62C19.324 189.916 19.272 190.232 19.168 190.568C19.064 190.904 18.936 191.224 18.784 191.528C18.64 191.832 18.5 192.092 18.364 192.308C18.188 192.268 18.056 192.2 17.968 192.104C17.88 192 17.836 191.864 17.836 191.696C17.836 191.528 17.868 191.34 17.932 191.132C18.004 190.924 18.084 190.708 18.172 190.484C18.268 190.26 18.348 190.044 18.412 189.836C18.484 189.62 18.52 189.432 18.52 189.272C18.52 189.128 18.476 189.016 18.388 188.936C18.308 188.856 18.14 188.816 17.884 188.816C17.5 188.816 17.148 188.9 16.828 189.068C16.508 189.236 16.228 189.448 15.988 189.704C15.756 189.96 15.576 190.232 15.448 190.52C15.32 190.8 15.256 191.056 15.256 191.288C15.256 191.576 15.348 191.824 15.532 192.032C15.716 192.232 15.952 192.416 16.24 192.584C16.536 192.752 16.844 192.92 17.164 193.088C17.492 193.256 17.8 193.444 18.088 193.652C18.384 193.86 18.624 194.108 18.808 194.396C18.992 194.684 19.084 195.036 19.084 195.452C19.084 195.868 18.988 196.236 18.796 196.556C18.612 196.876 18.36 197.144 18.04 197.36C17.72 197.584 17.364 197.752 16.972 197.864C16.588 197.984 16.196 198.044 15.796 198.044ZM21.1646 197.672C20.7486 197.672 20.4046 197.54 20.1326 197.276C19.8686 197.02 19.7366 196.624 19.7366 196.088C19.7366 195.696 19.8126 195.312 19.9646 194.936C20.1166 194.56 20.3206 194.224 20.5766 193.928C20.8326 193.624 21.1166 193.384 21.4286 193.208C21.7486 193.032 22.0726 192.944 22.4006 192.944C22.7366 192.944 22.9766 193.028 23.1206 193.196C23.2726 193.364 23.3486 193.56 23.3486 193.784C23.3486 194.008 23.2926 194.228 23.1806 194.444C23.0766 194.652 22.9326 194.756 22.7486 194.756C22.5966 194.756 22.4726 194.68 22.3766 194.528C22.4566 194.472 22.5406 194.368 22.6286 194.216C22.7166 194.064 22.7606 193.868 22.7606 193.628C22.7606 193.564 22.7446 193.516 22.7126 193.484C22.6806 193.444 22.6206 193.424 22.5326 193.424C22.3326 193.424 22.1206 193.516 21.8966 193.7C21.6806 193.876 21.4766 194.108 21.2846 194.396C21.1006 194.676 20.9486 194.976 20.8286 195.296C20.7166 195.608 20.6606 195.896 20.6606 196.16C20.6606 196.384 20.7166 196.592 20.8286 196.784C20.9486 196.968 21.1766 197.06 21.5126 197.06C21.8166 197.06 22.1326 196.972 22.4606 196.796C22.7886 196.62 23.0966 196.376 23.3846 196.064C23.6726 195.744 23.9046 195.364 24.0806 194.924L24.3206 195.14C24.1286 195.628 23.8606 196.064 23.5166 196.448C23.1806 196.824 22.8046 197.12 22.3886 197.336C21.9806 197.56 21.5726 197.672 21.1646 197.672ZM24.4767 197.564C24.2127 197.564 23.9847 197.476 23.7927 197.3C23.5927 197.124 23.4927 196.86 23.4927 196.508C23.4927 196.228 23.5567 195.924 23.6847 195.596C23.8127 195.268 23.9887 194.944 24.2127 194.624C24.4367 194.304 24.6927 194.016 24.9807 193.76C25.2687 193.496 25.5767 193.284 25.9047 193.124C26.2327 192.964 26.5607 192.884 26.8887 192.884C27.2327 192.884 27.5247 192.972 27.7647 193.148C28.0047 193.324 28.1247 193.556 28.1247 193.844C28.1247 194.06 28.0487 194.216 27.8967 194.312C27.7447 194.408 27.5647 194.436 27.3567 194.396C27.3727 194.324 27.3847 194.252 27.3927 194.18C27.4087 194.108 27.4167 194.032 27.4167 193.952C27.4167 193.792 27.3847 193.648 27.3207 193.52C27.2567 193.392 27.1207 193.328 26.9127 193.328C26.6887 193.328 26.4607 193.404 26.2287 193.556C25.9967 193.708 25.7727 193.908 25.5567 194.156C25.3487 194.396 25.1607 194.664 24.9927 194.96C24.8247 195.248 24.6927 195.532 24.5967 195.812C24.5007 196.092 24.4527 196.344 24.4527 196.568C24.4527 196.824 24.5447 196.952 24.7287 196.952C24.9127 196.952 25.1167 196.864 25.3407 196.688C25.5647 196.504 25.7887 196.276 26.0127 196.004C26.2447 195.732 26.4647 195.456 26.6727 195.176C26.8807 194.888 27.0607 194.644 27.2127 194.444C27.2367 194.404 27.2687 194.384 27.3087 194.384C27.3407 194.392 27.4007 194.412 27.4887 194.444C27.5847 194.468 27.6727 194.508 27.7527 194.564C27.8327 194.62 27.8727 194.692 27.8727 194.78C27.8727 194.86 27.8367 194.964 27.7647 195.092C27.7007 195.212 27.6207 195.348 27.5247 195.5C27.4367 195.644 27.3567 195.792 27.2847 195.944C27.2207 196.088 27.1887 196.228 27.1887 196.364C27.1887 196.468 27.2167 196.568 27.2727 196.664C27.3287 196.752 27.4207 196.796 27.5487 196.796C27.7407 196.796 28.0087 196.656 28.3527 196.376C28.7047 196.088 29.0607 195.604 29.4207 194.924L29.6487 195.152C29.4567 195.584 29.2247 195.968 28.9527 196.304C28.6887 196.632 28.4087 196.888 28.1127 197.072C27.8167 197.264 27.5167 197.36 27.2127 197.36C26.8847 197.36 26.6407 197.256 26.4807 197.048C26.3207 196.84 26.2327 196.616 26.2167 196.376C26.2167 196.36 26.2167 196.348 26.2167 196.34C26.2167 196.332 26.2167 196.324 26.2167 196.316C25.8967 196.7 25.6007 197.004 25.3287 197.228C25.0647 197.452 24.7807 197.564 24.4767 197.564ZM33.1807 197.24C32.8687 197.24 32.6287 197.16 32.4607 197C32.3007 196.848 32.2207 196.652 32.2207 196.412C32.2207 196.252 32.2487 196.084 32.3047 195.908C32.3607 195.724 32.4167 195.54 32.4727 195.356C32.5287 195.172 32.5567 194.996 32.5567 194.828C32.5567 194.652 32.5127 194.532 32.4247 194.468C32.3447 194.396 32.2487 194.36 32.1367 194.36C31.8967 194.36 31.6487 194.46 31.3927 194.66C31.1447 194.852 30.9007 195.096 30.6607 195.392C30.4287 195.688 30.2087 195.996 30.0007 196.316C29.7927 196.636 29.6127 196.924 29.4607 197.18C29.3087 197.18 29.1647 197.152 29.0287 197.096C28.8927 197.048 28.7767 196.96 28.6807 196.832C28.6887 196.792 28.7367 196.672 28.8247 196.472C28.9047 196.264 28.9967 196.02 29.1007 195.74C29.2047 195.452 29.2967 195.152 29.3767 194.84C29.4567 194.528 29.4967 194.244 29.4967 193.988C29.5527 193.924 29.6367 193.86 29.7487 193.796C29.8687 193.732 29.9927 193.7 30.1207 193.7C30.4007 193.7 30.5407 193.82 30.5407 194.06C30.5407 194.156 30.5207 194.3 30.4807 194.492C30.4487 194.676 30.4007 194.888 30.3367 195.128C30.5447 194.848 30.7727 194.584 31.0207 194.336C31.2687 194.088 31.5247 193.888 31.7887 193.736C32.0607 193.576 32.3327 193.496 32.6047 193.496C32.9487 193.496 33.2007 193.612 33.3607 193.844C33.5287 194.076 33.6127 194.332 33.6127 194.612C33.6127 194.852 33.5727 195.076 33.4927 195.284C33.4127 195.492 33.3327 195.688 33.2527 195.872C33.1807 196.056 33.1447 196.236 33.1447 196.412C33.1447 196.54 33.1727 196.632 33.2287 196.688C33.2927 196.736 33.3607 196.76 33.4327 196.76C33.6247 196.76 33.8247 196.668 34.0327 196.484C34.2407 196.3 34.4367 196.068 34.6207 195.788C34.8127 195.5 34.9807 195.212 35.1247 194.924L35.3287 195.092C35.1607 195.484 34.9687 195.844 34.7527 196.172C34.5447 196.492 34.3087 196.752 34.0447 196.952C33.7887 197.144 33.5007 197.24 33.1807 197.24ZM41.9698 197.24C41.6578 197.24 41.4178 197.16 41.2498 197C41.0898 196.848 41.0098 196.652 41.0098 196.412C41.0098 196.252 41.0378 196.084 41.0938 195.908C41.1498 195.724 41.2058 195.54 41.2618 195.356C41.3178 195.172 41.3458 194.996 41.3458 194.828C41.3458 194.652 41.3018 194.532 41.2138 194.468C41.1338 194.396 41.0378 194.36 40.9258 194.36C40.6858 194.36 40.4378 194.46 40.1818 194.66C39.9338 194.852 39.6898 195.096 39.4498 195.392C39.2178 195.688 38.9978 195.996 38.7898 196.316C38.5818 196.636 38.4018 196.924 38.2498 197.18C38.0978 197.18 37.9538 197.152 37.8178 197.096C37.6818 197.048 37.5658 196.96 37.4698 196.832C37.4778 196.792 37.5258 196.672 37.6138 196.472C37.6938 196.264 37.7858 196.02 37.8898 195.74C37.9938 195.452 38.0858 195.152 38.1658 194.84C38.2458 194.528 38.2858 194.244 38.2858 193.988C38.3418 193.924 38.4258 193.86 38.5378 193.796C38.6578 193.732 38.7818 193.7 38.9098 193.7C39.1898 193.7 39.3298 193.82 39.3298 194.06C39.3298 194.156 39.3098 194.3 39.2698 194.492C39.2378 194.676 39.1898 194.888 39.1258 195.128C39.3338 194.848 39.5618 194.584 39.8098 194.336C40.0578 194.088 40.3138 193.888 40.5778 193.736C40.8498 193.576 41.1218 193.496 41.3938 193.496C41.7378 193.496 41.9898 193.612 42.1498 193.844C42.3178 194.076 42.4018 194.332 42.4018 194.612C42.4018 194.852 42.3618 195.076 42.2818 195.284C42.2018 195.492 42.1218 195.688 42.0418 195.872C41.9698 196.056 41.9338 196.236 41.9338 196.412C41.9338 196.54 41.9618 196.632 42.0178 196.688C42.0818 196.736 42.1498 196.76 42.2218 196.76C42.4138 196.76 42.6138 196.668 42.8218 196.484C43.0298 196.3 43.2258 196.068 43.4098 195.788C43.6018 195.5 43.7698 195.212 43.9138 194.924L44.1178 195.092C43.9498 195.484 43.7578 195.844 43.5418 196.172C43.3338 196.492 43.0978 196.752 42.8338 196.952C42.5778 197.144 42.2898 197.24 41.9698 197.24ZM44.3897 197.384C44.0297 197.384 43.7817 197.264 43.6457 197.024C43.5177 196.792 43.4537 196.536 43.4537 196.256C43.4537 196 43.4937 195.74 43.5737 195.476C43.6537 195.204 43.7617 194.952 43.8977 194.72C44.0417 194.488 44.1977 194.304 44.3657 194.168C44.5417 194.024 44.7177 193.952 44.8937 193.952C44.9497 193.952 45.0137 193.964 45.0857 193.988C45.1657 194.004 45.2217 194.032 45.2537 194.072C45.1577 194.192 45.0577 194.34 44.9537 194.516C44.8577 194.692 44.7657 194.88 44.6777 195.08C44.5977 195.272 44.5337 195.468 44.4857 195.668C44.4377 195.868 44.4137 196.052 44.4137 196.22C44.4137 196.38 44.4417 196.512 44.4977 196.616C44.5617 196.72 44.6697 196.772 44.8217 196.772C44.9737 196.772 45.1537 196.688 45.3617 196.52C45.5777 196.344 45.7817 196.144 45.9737 195.92C45.7177 195.688 45.5337 195.436 45.4217 195.164C45.3097 194.884 45.2537 194.548 45.2537 194.156C45.2537 193.988 45.2937 193.796 45.3737 193.58C45.4617 193.364 45.5977 193.176 45.7817 193.016C45.9737 192.856 46.2297 192.776 46.5497 192.776C46.8937 192.776 47.1337 192.872 47.2697 193.064C47.4137 193.256 47.4857 193.484 47.4857 193.748C47.4857 194.044 47.4057 194.376 47.2457 194.744C47.0937 195.112 46.9097 195.46 46.6937 195.788C46.7897 195.836 46.9017 195.86 47.0297 195.86C47.1497 195.86 47.2937 195.832 47.4617 195.776C47.6297 195.72 47.7937 195.628 47.9537 195.5C48.1137 195.364 48.2417 195.184 48.3377 194.96L48.5537 195.116C48.3777 195.524 48.1417 195.824 47.8457 196.016C47.5577 196.2 47.2737 196.292 46.9937 196.292C46.8897 196.292 46.7857 196.284 46.6817 196.268C46.5777 196.244 46.4817 196.216 46.3937 196.184C46.1217 196.504 45.8097 196.784 45.4577 197.024C45.1057 197.264 44.7497 197.384 44.3897 197.384ZM46.2857 195.536C46.4777 195.256 46.6417 194.956 46.7777 194.636C46.9137 194.316 46.9817 194.02 46.9817 193.748C46.9817 193.564 46.9537 193.432 46.8977 193.352C46.8417 193.264 46.7577 193.22 46.6457 193.22C46.4937 193.22 46.3377 193.328 46.1777 193.544C46.0177 193.76 45.9377 194.032 45.9377 194.36C45.9377 194.528 45.9657 194.732 46.0217 194.972C46.0857 195.212 46.1737 195.4 46.2857 195.536ZM51.5545 197.456C51.2825 197.456 51.0985 197.336 51.0025 197.096C50.9145 196.864 50.8625 196.584 50.8465 196.256C50.8545 196.16 50.8585 196.028 50.8585 195.86C50.8665 195.692 50.8745 195.552 50.8825 195.44C50.7145 195.744 50.5305 196.044 50.3305 196.34C50.1305 196.636 49.9185 196.88 49.6945 197.072C49.4705 197.264 49.2345 197.36 48.9865 197.36C48.7145 197.36 48.4905 197.24 48.3145 197C48.1385 196.752 48.0505 196.456 48.0505 196.112C48.0505 195.88 48.0865 195.612 48.1585 195.308C48.2385 195.004 48.3345 194.708 48.4465 194.42C48.5665 194.132 48.6865 193.892 48.8065 193.7C48.9345 193.508 49.0465 193.412 49.1425 193.412C49.1985 193.412 49.2945 193.444 49.4305 193.508C49.5745 193.572 49.6625 193.656 49.6945 193.76C49.6065 193.888 49.4985 194.084 49.3705 194.348C49.2505 194.612 49.1425 194.896 49.0465 195.2C48.9585 195.496 48.9145 195.768 48.9145 196.016C48.9145 196.064 48.9185 196.148 48.9265 196.268C48.9425 196.38 48.9785 196.484 49.0345 196.58C49.0905 196.676 49.1745 196.724 49.2865 196.724C49.4625 196.724 49.6465 196.616 49.8385 196.4C50.0385 196.184 50.2385 195.912 50.4385 195.584C50.6385 195.256 50.8265 194.92 51.0025 194.576C51.0745 194.232 51.1345 193.984 51.1825 193.832C51.2305 193.68 51.2785 193.584 51.3265 193.544C51.3825 193.504 51.4465 193.484 51.5185 193.484C51.6705 193.484 51.7865 193.516 51.8665 193.58C51.9545 193.636 51.9985 193.72 51.9985 193.832C51.9985 193.84 51.9905 193.876 51.9745 193.94C51.9585 193.996 51.9465 194.032 51.9385 194.048C51.8905 194.216 51.8465 194.42 51.8065 194.66C51.7665 194.892 51.7345 195.144 51.7105 195.416C51.6865 195.68 51.6745 195.948 51.6745 196.22C51.6745 196.412 51.6865 196.564 51.7105 196.676C51.7345 196.78 51.7945 196.832 51.8905 196.832C52.0025 196.832 52.1305 196.764 52.2745 196.628C52.4265 196.492 52.5825 196.312 52.7425 196.088C52.9105 195.864 53.0705 195.62 53.2225 195.356C53.3825 195.084 53.5265 194.812 53.6545 194.54C53.6545 194.124 53.6825 193.808 53.7385 193.592C53.8025 193.376 53.8825 193.228 53.9785 193.148C54.0825 193.06 54.1945 193.016 54.3145 193.016C54.5145 193.016 54.6505 193.08 54.7225 193.208C54.8025 193.336 54.8425 193.444 54.8425 193.532C54.8425 193.612 54.8225 193.688 54.7825 193.76C54.7425 193.824 54.7105 193.884 54.6865 193.94C54.6305 194.06 54.5745 194.204 54.5185 194.372C54.4705 194.54 54.4465 194.752 54.4465 195.008C54.4465 195.144 54.4585 195.284 54.4825 195.428C54.5145 195.564 54.5665 195.676 54.6385 195.764C54.7185 195.852 54.8305 195.896 54.9745 195.896C55.1185 195.896 55.2625 195.832 55.4065 195.704C55.5585 195.576 55.7225 195.336 55.8985 194.984L56.1265 195.164C55.9505 195.58 55.7505 195.868 55.5265 196.028C55.3025 196.18 55.0865 196.256 54.8785 196.256C54.6145 196.256 54.3905 196.16 54.2065 195.968C54.0225 195.776 53.8785 195.54 53.7745 195.26C53.5745 195.604 53.3505 195.948 53.1025 196.292C52.8625 196.628 52.6105 196.904 52.3465 197.12C52.0825 197.344 51.8185 197.456 51.5545 197.456ZM59.422 197.564C59.158 197.564 58.93 197.476 58.738 197.3C58.538 197.124 58.438 196.86 58.438 196.508C58.438 196.228 58.502 195.924 58.63 195.596C58.758 195.268 58.934 194.944 59.158 194.624C59.382 194.304 59.638 194.016 59.926 193.76C60.214 193.496 60.522 193.284 60.85 193.124C61.178 192.964 61.506 192.884 61.834 192.884C62.178 192.884 62.47 192.972 62.71 193.148C62.95 193.324 63.07 193.556 63.07 193.844C63.07 194.06 62.994 194.216 62.842 194.312C62.69 194.408 62.51 194.436 62.302 194.396C62.318 194.324 62.33 194.252 62.338 194.18C62.354 194.108 62.362 194.032 62.362 193.952C62.362 193.792 62.33 193.648 62.266 193.52C62.202 193.392 62.066 193.328 61.858 193.328C61.634 193.328 61.406 193.404 61.174 193.556C60.942 193.708 60.718 193.908 60.502 194.156C60.294 194.396 60.106 194.664 59.938 194.96C59.77 195.248 59.638 195.532 59.542 195.812C59.446 196.092 59.398 196.344 59.398 196.568C59.398 196.824 59.49 196.952 59.674 196.952C59.858 196.952 60.062 196.864 60.286 196.688C60.51 196.504 60.734 196.276 60.958 196.004C61.19 195.732 61.41 195.456 61.618 195.176C61.826 194.888 62.006 194.644 62.158 194.444C62.182 194.404 62.214 194.384 62.254 194.384C62.286 194.392 62.346 194.412 62.434 194.444C62.53 194.468 62.618 194.508 62.698 194.564C62.778 194.62 62.818 194.692 62.818 194.78C62.818 194.86 62.782 194.964 62.71 195.092C62.646 195.212 62.566 195.348 62.47 195.5C62.382 195.644 62.302 195.792 62.23 195.944C62.166 196.088 62.134 196.228 62.134 196.364C62.134 196.468 62.162 196.568 62.218 196.664C62.274 196.752 62.366 196.796 62.494 196.796C62.686 196.796 62.954 196.656 63.298 196.376C63.65 196.088 64.006 195.604 64.366 194.924L64.594 195.152C64.402 195.584 64.17 195.968 63.898 196.304C63.634 196.632 63.354 196.888 63.058 197.072C62.762 197.264 62.462 197.36 62.158 197.36C61.83 197.36 61.586 197.256 61.426 197.048C61.266 196.84 61.178 196.616 61.162 196.376C61.162 196.36 61.162 196.348 61.162 196.34C61.162 196.332 61.162 196.324 61.162 196.316C60.842 196.7 60.546 197.004 60.274 197.228C60.01 197.452 59.726 197.564 59.422 197.564ZM68.126 197.24C67.814 197.24 67.574 197.16 67.406 197C67.246 196.848 67.166 196.652 67.166 196.412C67.166 196.252 67.194 196.084 67.25 195.908C67.306 195.724 67.362 195.54 67.418 195.356C67.474 195.172 67.502 194.996 67.502 194.828C67.502 194.652 67.458 194.532 67.37 194.468C67.29 194.396 67.194 194.36 67.082 194.36C66.842 194.36 66.594 194.46 66.338 194.66C66.09 194.852 65.846 195.096 65.606 195.392C65.374 195.688 65.154 195.996 64.946 196.316C64.738 196.636 64.558 196.924 64.406 197.18C64.254 197.18 64.11 197.152 63.974 197.096C63.838 197.048 63.722 196.96 63.626 196.832C63.634 196.792 63.682 196.672 63.77 196.472C63.85 196.264 63.942 196.02 64.046 195.74C64.15 195.452 64.242 195.152 64.322 194.84C64.402 194.528 64.442 194.244 64.442 193.988C64.498 193.924 64.582 193.86 64.694 193.796C64.814 193.732 64.938 193.7 65.066 193.7C65.346 193.7 65.486 193.82 65.486 194.06C65.486 194.156 65.466 194.3 65.426 194.492C65.394 194.676 65.346 194.888 65.282 195.128C65.49 194.848 65.718 194.584 65.966 194.336C66.214 194.088 66.47 193.888 66.734 193.736C67.006 193.576 67.278 193.496 67.55 193.496C67.894 193.496 68.146 193.612 68.306 193.844C68.474 194.076 68.558 194.332 68.558 194.612C68.558 194.852 68.518 195.076 68.438 195.284C68.358 195.492 68.278 195.688 68.198 195.872C68.126 196.056 68.09 196.236 68.09 196.412C68.09 196.54 68.118 196.632 68.174 196.688C68.238 196.736 68.306 196.76 68.378 196.76C68.57 196.76 68.77 196.668 68.978 196.484C69.186 196.3 69.382 196.068 69.566 195.788C69.758 195.5 69.926 195.212 70.07 194.924L70.274 195.092C70.106 195.484 69.914 195.844 69.698 196.172C69.49 196.492 69.254 196.752 68.99 196.952C68.734 197.144 68.446 197.24 68.126 197.24ZM70.5819 197.36C70.4299 197.36 70.2739 197.32 70.1139 197.24C69.9619 197.168 69.8339 197.052 69.7299 196.892C69.6179 196.732 69.5619 196.528 69.5619 196.28C69.5619 196.016 69.6259 195.72 69.7539 195.392C69.8819 195.064 70.0539 194.736 70.2699 194.408C70.4939 194.08 70.7499 193.78 71.0379 193.508C71.3339 193.236 71.6459 193.016 71.9739 192.848C72.3019 192.68 72.6339 192.596 72.9699 192.596C73.1539 192.596 73.2979 192.628 73.4019 192.692C73.5059 192.748 73.5579 192.844 73.5579 192.98C73.5579 193.02 73.5499 193.068 73.5339 193.124C73.5179 193.172 73.4779 193.216 73.4139 193.256C73.3819 193.208 73.3259 193.176 73.2459 193.16C73.1659 193.136 73.0819 193.124 72.9939 193.124C72.7299 193.124 72.4779 193.2 72.2379 193.352C71.9979 193.496 71.7779 193.684 71.5779 193.916C71.3779 194.148 71.2019 194.4 71.0499 194.672C70.9059 194.944 70.7939 195.208 70.7139 195.464C70.6339 195.712 70.5939 195.928 70.5939 196.112C70.5939 196.264 70.6259 196.388 70.6899 196.484C70.7539 196.572 70.8499 196.616 70.9779 196.616C71.1939 196.616 71.4499 196.492 71.7459 196.244C72.0499 195.988 72.3579 195.624 72.6699 195.152C72.9899 194.672 73.2779 194.1 73.5339 193.436C73.7099 192.98 73.8939 192.516 74.0859 192.044C74.2779 191.564 74.4699 191.104 74.6619 190.664C74.8539 190.224 75.0419 189.832 75.2259 189.488C75.4179 189.144 75.5979 188.872 75.7659 188.672C75.9419 188.464 76.1019 188.36 76.2459 188.36C76.3339 188.36 76.4099 188.396 76.4739 188.468C76.5459 188.532 76.5819 188.616 76.5819 188.72C76.5819 188.856 76.5139 189.076 76.3779 189.38C76.2499 189.676 76.0819 190.032 75.8739 190.448C75.6739 190.864 75.4539 191.316 75.2139 191.804C74.9819 192.284 74.7619 192.78 74.5539 193.292C74.3539 193.796 74.1859 194.296 74.0499 194.792C73.9219 195.28 73.8579 195.74 73.8579 196.172C73.8579 196.364 73.8739 196.496 73.9059 196.568C73.9459 196.632 74.0099 196.664 74.0979 196.664C74.2739 196.664 74.4699 196.596 74.6859 196.46C74.9019 196.324 75.1219 196.124 75.3459 195.86C75.5699 195.588 75.7739 195.264 75.9579 194.888L76.1859 195.08C76.0099 195.52 75.7859 195.908 75.5139 196.244C75.2419 196.58 74.9499 196.84 74.6379 197.024C74.3259 197.216 74.0179 197.312 73.7139 197.312C73.3859 197.312 73.1579 197.208 73.0299 197C72.9019 196.792 72.8379 196.548 72.8379 196.268C72.8379 196.14 72.8459 196.012 72.8619 195.884C72.8859 195.748 72.9099 195.616 72.9339 195.488C72.6859 195.848 72.4219 196.172 72.1419 196.46C71.8699 196.74 71.6019 196.96 71.3379 197.12C71.0739 197.28 70.8219 197.36 70.5819 197.36ZM80.1216 197.672C79.7056 197.672 79.3616 197.54 79.0896 197.276C78.8256 197.02 78.6936 196.624 78.6936 196.088C78.6936 195.696 78.7696 195.312 78.9216 194.936C79.0736 194.56 79.2776 194.224 79.5336 193.928C79.7896 193.624 80.0736 193.384 80.3856 193.208C80.7056 193.032 81.0296 192.944 81.3576 192.944C81.6936 192.944 81.9336 193.028 82.0776 193.196C82.2296 193.364 82.3056 193.56 82.3056 193.784C82.3056 194.008 82.2496 194.228 82.1376 194.444C82.0336 194.652 81.8896 194.756 81.7056 194.756C81.5536 194.756 81.4296 194.68 81.3336 194.528C81.4136 194.472 81.4976 194.368 81.5856 194.216C81.6736 194.064 81.7176 193.868 81.7176 193.628C81.7176 193.564 81.7016 193.516 81.6696 193.484C81.6376 193.444 81.5776 193.424 81.4896 193.424C81.2896 193.424 81.0776 193.516 80.8536 193.7C80.6376 193.876 80.4336 194.108 80.2416 194.396C80.0576 194.676 79.9056 194.976 79.7856 195.296C79.6736 195.608 79.6176 195.896 79.6176 196.16C79.6176 196.384 79.6736 196.592 79.7856 196.784C79.9056 196.968 80.1336 197.06 80.4696 197.06C80.7736 197.06 81.0896 196.972 81.4176 196.796C81.7456 196.62 82.0536 196.376 82.3416 196.064C82.6296 195.744 82.8616 195.364 83.0376 194.924L83.2776 195.14C83.0856 195.628 82.8176 196.064 82.4736 196.448C82.1376 196.824 81.7616 197.12 81.3456 197.336C80.9376 197.56 80.5296 197.672 80.1216 197.672ZM83.3137 197.456C83.1377 197.456 83.0097 197.32 82.9297 197.048C82.8577 196.776 82.8217 196.46 82.8217 196.1C82.8217 195.732 82.8817 195.288 83.0017 194.768C83.1297 194.248 83.2977 193.7 83.5057 193.124C83.7217 192.548 83.9577 191.984 84.2137 191.432C84.4777 190.88 84.7457 190.38 85.0177 189.932C85.2977 189.476 85.5617 189.112 85.8097 188.84C86.0657 188.568 86.2897 188.432 86.4817 188.432C86.6497 188.432 86.7777 188.524 86.8657 188.708C86.9537 188.892 86.9977 189.084 86.9977 189.284C86.9977 189.5 86.9457 189.768 86.8417 190.088C86.7457 190.4 86.6097 190.736 86.4337 191.096C86.2577 191.456 86.0497 191.812 85.8097 192.164C85.5777 192.508 85.3217 192.824 85.0417 193.112C84.7697 193.4 84.4857 193.632 84.1897 193.808C84.0857 194.08 84.0017 194.336 83.9377 194.576C83.8817 194.808 83.8417 195.028 83.8177 195.236C83.7937 195.444 83.7817 195.648 83.7817 195.848C83.7817 195.888 83.7817 195.932 83.7817 195.98C83.7897 196.02 83.7937 196.06 83.7937 196.1C83.8257 196.052 83.8777 195.928 83.9497 195.728C84.0217 195.528 84.1177 195.296 84.2377 195.032C84.3657 194.76 84.5217 194.496 84.7057 194.24C84.8897 193.976 85.1057 193.76 85.3537 193.592C85.6017 193.416 85.8857 193.328 86.2057 193.328C86.4777 193.328 86.6897 193.392 86.8417 193.52C86.9937 193.64 87.1017 193.792 87.1657 193.976C87.2297 194.152 87.2617 194.332 87.2617 194.516C87.2617 194.772 87.2177 195.012 87.1297 195.236C87.0497 195.46 86.9657 195.672 86.8777 195.872C86.7977 196.064 86.7577 196.248 86.7577 196.424C86.7577 196.568 86.7897 196.668 86.8537 196.724C86.9177 196.78 86.9937 196.808 87.0817 196.808C87.2577 196.808 87.4617 196.72 87.6937 196.544C87.9337 196.368 88.1697 196.136 88.4017 195.848C88.6417 195.552 88.8457 195.228 89.0137 194.876L89.2057 195.08C89.0217 195.48 88.8057 195.848 88.5577 196.184C88.3097 196.52 88.0377 196.788 87.7417 196.988C87.4457 197.188 87.1257 197.288 86.7817 197.288C86.4777 197.288 86.2457 197.208 86.0857 197.048C85.9257 196.888 85.8457 196.688 85.8457 196.448C85.8457 196.28 85.8737 196.096 85.9297 195.896C85.9937 195.688 86.0537 195.48 86.1097 195.272C86.1657 195.064 86.1937 194.876 86.1937 194.708C86.1937 194.516 86.1497 194.384 86.0617 194.312C85.9817 194.24 85.8817 194.204 85.7617 194.204C85.5617 194.204 85.3817 194.284 85.2217 194.444C85.0617 194.596 84.9177 194.796 84.7897 195.044C84.6617 195.292 84.5417 195.556 84.4297 195.836C84.3177 196.108 84.2057 196.368 84.0937 196.616C83.9817 196.864 83.8617 197.064 83.7337 197.216C83.6137 197.376 83.4737 197.456 83.3137 197.456ZM84.4417 193.04C84.6497 192.856 84.8497 192.636 85.0417 192.38C85.2337 192.124 85.4097 191.86 85.5697 191.588C85.7377 191.308 85.8817 191.04 86.0017 190.784C86.1297 190.52 86.2297 190.284 86.3017 190.076C86.3737 189.868 86.4137 189.708 86.4217 189.596C86.4217 189.588 86.4217 189.584 86.4217 189.584C86.4217 189.576 86.4217 189.568 86.4217 189.56C86.3737 189.56 86.2697 189.66 86.1097 189.86C85.9577 190.052 85.7777 190.316 85.5697 190.652C85.3697 190.98 85.1657 191.352 84.9577 191.768C84.7577 192.184 84.5857 192.608 84.4417 193.04ZM90.0834 197.528C89.5714 197.528 89.1754 197.388 88.8954 197.108C88.6234 196.836 88.4874 196.492 88.4874 196.076C88.4874 195.724 88.5754 195.352 88.7514 194.96C88.9354 194.56 89.1794 194.188 89.4834 193.844C89.7874 193.492 90.1234 193.208 90.4914 192.992C90.8594 192.776 91.2274 192.668 91.5954 192.668C91.8034 192.668 91.9994 192.724 92.1834 192.836C92.3754 192.94 92.4714 193.152 92.4714 193.472C92.4714 193.776 92.3834 194.06 92.2074 194.324C92.0314 194.588 91.7954 194.824 91.4994 195.032C91.2034 195.24 90.8754 195.412 90.5154 195.548C90.1634 195.676 89.8074 195.76 89.4474 195.8C89.4394 195.832 89.4314 195.868 89.4234 195.908C89.4234 195.94 89.4234 195.996 89.4234 196.076C89.4234 196.116 89.4274 196.188 89.4354 196.292C89.4514 196.388 89.4874 196.492 89.5434 196.604C89.5994 196.716 89.6914 196.812 89.8194 196.892C89.9474 196.972 90.1234 197.012 90.3474 197.012C90.6834 197.012 91.0194 196.92 91.3554 196.736C91.6994 196.544 92.0194 196.292 92.3154 195.98C92.6194 195.668 92.8714 195.32 93.0714 194.936L93.3114 195.128C93.0954 195.608 92.8154 196.028 92.4714 196.388C92.1354 196.748 91.7594 197.028 91.3434 197.228C90.9354 197.428 90.5154 197.528 90.0834 197.528ZM89.5794 195.356C89.7874 195.332 90.0194 195.26 90.2754 195.14C90.5314 195.02 90.7754 194.868 91.0074 194.684C91.2474 194.5 91.4434 194.3 91.5954 194.084C91.7474 193.86 91.8234 193.636 91.8234 193.412C91.8234 193.324 91.8074 193.264 91.7754 193.232C91.7434 193.2 91.6914 193.184 91.6194 193.184C91.4354 193.184 91.2434 193.252 91.0434 193.388C90.8434 193.516 90.6474 193.688 90.4554 193.904C90.2634 194.112 90.0914 194.344 89.9394 194.6C89.7874 194.856 89.6674 195.108 89.5794 195.356ZM94.1373 197.672C93.7213 197.672 93.3773 197.54 93.1053 197.276C92.8413 197.02 92.7092 196.624 92.7092 196.088C92.7092 195.696 92.7853 195.312 92.9373 194.936C93.0893 194.56 93.2933 194.224 93.5493 193.928C93.8053 193.624 94.0893 193.384 94.4013 193.208C94.7213 193.032 95.0453 192.944 95.3733 192.944C95.7093 192.944 95.9493 193.028 96.0933 193.196C96.2453 193.364 96.3213 193.56 96.3213 193.784C96.3213 194.008 96.2653 194.228 96.1533 194.444C96.0493 194.652 95.9053 194.756 95.7213 194.756C95.5693 194.756 95.4453 194.68 95.3493 194.528C95.4293 194.472 95.5133 194.368 95.6013 194.216C95.6893 194.064 95.7333 193.868 95.7333 193.628C95.7333 193.564 95.7173 193.516 95.6853 193.484C95.6533 193.444 95.5933 193.424 95.5053 193.424C95.3053 193.424 95.0933 193.516 94.8693 193.7C94.6533 193.876 94.4493 194.108 94.2573 194.396C94.0733 194.676 93.9213 194.976 93.8013 195.296C93.6893 195.608 93.6333 195.896 93.6333 196.16C93.6333 196.384 93.6893 196.592 93.8013 196.784C93.9213 196.968 94.1493 197.06 94.4853 197.06C94.7893 197.06 95.1053 196.972 95.4333 196.796C95.7613 196.62 96.0693 196.376 96.3573 196.064C96.6453 195.744 96.8773 195.364 97.0533 194.924L97.2933 195.14C97.1013 195.628 96.8333 196.064 96.4893 196.448C96.1533 196.824 95.7773 197.12 95.3613 197.336C94.9533 197.56 94.5453 197.672 94.1373 197.672ZM100.581 197.456C100.333 197.456 100.117 197.376 99.9333 197.216C99.7493 197.056 99.6013 196.856 99.4893 196.616C99.3773 196.376 99.2933 196.132 99.2373 195.884C99.1813 195.628 99.1533 195.408 99.1533 195.224C99.2653 195.2 99.4053 195.164 99.5733 195.116C99.7413 195.068 99.9133 195.004 100.089 194.924C100.265 194.836 100.409 194.732 100.521 194.612C100.641 194.484 100.701 194.332 100.701 194.156C100.701 194.012 100.653 193.896 100.557 193.808C100.469 193.72 100.341 193.676 100.173 193.676C99.9493 193.676 99.7373 193.752 99.5373 193.904C99.3373 194.048 99.1493 194.24 98.9733 194.48C98.8053 194.72 98.6493 194.98 98.5053 195.26C98.3693 195.54 98.2453 195.812 98.1333 196.076C98.0293 196.34 97.9413 196.568 97.8693 196.76C97.7813 197 97.6973 197.16 97.6173 197.24C97.5373 197.328 97.4213 197.372 97.2693 197.372C97.2133 197.372 97.1453 197.356 97.0653 197.324C96.9933 197.292 96.9293 197.212 96.8733 197.084C96.8253 196.956 96.8013 196.752 96.8013 196.472C96.8013 195.984 96.8693 195.448 97.0053 194.864C97.1413 194.28 97.3213 193.688 97.5453 193.088C97.7773 192.48 98.0293 191.9 98.3013 191.348C98.5733 190.796 98.8493 190.3 99.1293 189.86C99.4093 189.42 99.6693 189.072 99.9093 188.816C100.157 188.56 100.361 188.432 100.521 188.432C100.657 188.432 100.769 188.516 100.857 188.684C100.953 188.844 101.001 189.052 101.001 189.308C101.001 189.58 100.941 189.884 100.821 190.22C100.701 190.548 100.529 190.884 100.305 191.228C100.089 191.564 99.8293 191.884 99.5253 192.188C99.2213 192.492 98.8853 192.752 98.5173 192.968C98.2933 193.488 98.1213 194.004 98.0013 194.516C97.8813 195.02 97.8053 195.468 97.7733 195.86C97.9173 195.532 98.0813 195.196 98.2653 194.852C98.4493 194.508 98.6533 194.188 98.8773 193.892C99.1013 193.588 99.3413 193.344 99.5973 193.16C99.8613 192.976 100.141 192.884 100.437 192.884C100.757 192.884 101.037 192.996 101.277 193.22C101.517 193.444 101.637 193.724 101.637 194.06C101.637 194.3 101.573 194.508 101.445 194.684C101.317 194.86 101.157 195.008 100.965 195.128C100.781 195.24 100.593 195.324 100.401 195.38C100.209 195.436 100.045 195.468 99.9093 195.476C99.9333 195.58 99.9653 195.712 100.005 195.872C100.053 196.032 100.113 196.188 100.185 196.34C100.257 196.492 100.349 196.62 100.461 196.724C100.573 196.828 100.705 196.88 100.857 196.88C101.057 196.88 101.261 196.788 101.469 196.604C101.685 196.42 101.893 196.176 102.093 195.872C102.301 195.568 102.485 195.232 102.645 194.864L102.813 195.068C102.677 195.468 102.489 195.852 102.249 196.22C102.017 196.588 101.757 196.884 101.469 197.108C101.181 197.34 100.885 197.456 100.581 197.456ZM98.8653 192.152C99.0813 191.96 99.3093 191.724 99.5493 191.444C99.7893 191.156 99.9933 190.852 100.161 190.532C100.337 190.204 100.429 189.892 100.437 189.596C100.437 189.588 100.437 189.584 100.437 189.584C100.437 189.576 100.437 189.568 100.437 189.56C100.357 189.592 100.229 189.732 100.053 189.98C99.8853 190.22 99.6973 190.528 99.4893 190.904C99.2813 191.28 99.0733 191.696 98.8653 192.152ZM106.229 197.384C105.87 197.384 105.622 197.264 105.486 197.024C105.357 196.792 105.293 196.536 105.293 196.256C105.293 196 105.333 195.74 105.413 195.476C105.494 195.204 105.602 194.952 105.738 194.72C105.882 194.488 106.038 194.304 106.206 194.168C106.382 194.024 106.558 193.952 106.734 193.952C106.79 193.952 106.854 193.964 106.926 193.988C107.006 194.004 107.062 194.032 107.094 194.072C106.998 194.192 106.898 194.34 106.794 194.516C106.698 194.692 106.606 194.88 106.518 195.08C106.438 195.272 106.374 195.468 106.326 195.668C106.278 195.868 106.254 196.052 106.254 196.22C106.254 196.38 106.282 196.512 106.338 196.616C106.402 196.72 106.51 196.772 106.662 196.772C106.814 196.772 106.994 196.688 107.201 196.52C107.418 196.344 107.622 196.144 107.814 195.92C107.558 195.688 107.374 195.436 107.262 195.164C107.15 194.884 107.094 194.548 107.094 194.156C107.094 193.988 107.134 193.796 107.214 193.58C107.302 193.364 107.438 193.176 107.622 193.016C107.814 192.856 108.07 192.776 108.39 192.776C108.734 192.776 108.974 192.872 109.11 193.064C109.254 193.256 109.326 193.484 109.326 193.748C109.326 194.044 109.246 194.376 109.086 194.744C108.934 195.112 108.75 195.46 108.534 195.788C108.63 195.836 108.742 195.86 108.87 195.86C108.99 195.86 109.134 195.832 109.302 195.776C109.47 195.72 109.634 195.628 109.794 195.5C109.954 195.364 110.082 195.184 110.178 194.96L110.394 195.116C110.218 195.524 109.982 195.824 109.686 196.016C109.398 196.2 109.114 196.292 108.834 196.292C108.73 196.292 108.626 196.284 108.521 196.268C108.418 196.244 108.322 196.216 108.234 196.184C107.962 196.504 107.65 196.784 107.298 197.024C106.946 197.264 106.59 197.384 106.229 197.384ZM108.126 195.536C108.318 195.256 108.482 194.956 108.618 194.636C108.754 194.316 108.822 194.02 108.822 193.748C108.822 193.564 108.794 193.432 108.738 193.352C108.682 193.264 108.598 193.22 108.486 193.22C108.334 193.22 108.178 193.328 108.018 193.544C107.858 193.76 107.778 194.032 107.778 194.36C107.778 194.528 107.806 194.732 107.862 194.972C107.926 195.212 108.014 195.4 108.126 195.536ZM110.814 197.36C110.542 197.36 110.318 197.236 110.142 196.988C109.974 196.732 109.89 196.44 109.89 196.112C109.89 195.888 109.926 195.624 109.998 195.32C110.07 195.016 110.162 194.72 110.274 194.432C110.394 194.144 110.514 193.904 110.634 193.712C110.762 193.52 110.878 193.424 110.982 193.424C111.038 193.424 111.122 193.456 111.234 193.52C111.354 193.576 111.458 193.648 111.546 193.736C111.458 193.864 111.35 194.06 111.222 194.324C111.102 194.588 110.994 194.872 110.898 195.176C110.802 195.48 110.754 195.756 110.754 196.004C110.754 196.036 110.758 196.112 110.766 196.232C110.782 196.352 110.814 196.464 110.862 196.568C110.91 196.672 110.994 196.724 111.114 196.724C111.25 196.724 111.394 196.652 111.546 196.508C111.706 196.356 111.866 196.164 112.026 195.932C112.194 195.692 112.354 195.436 112.506 195.164C112.666 194.892 112.806 194.628 112.926 194.372C113.054 194.116 113.158 193.9 113.238 193.724C113.31 193.732 113.402 193.752 113.514 193.784C113.634 193.816 113.738 193.86 113.826 193.916C113.914 193.964 113.958 194.036 113.958 194.132C113.958 194.156 113.918 194.256 113.838 194.432C113.766 194.6 113.678 194.804 113.574 195.044C113.478 195.284 113.39 195.532 113.31 195.788C113.238 196.036 113.202 196.256 113.202 196.448C113.202 196.56 113.222 196.66 113.262 196.748C113.31 196.828 113.398 196.868 113.526 196.868C113.694 196.868 113.894 196.792 114.126 196.64C114.358 196.488 114.598 196.268 114.846 195.98C115.094 195.692 115.314 195.348 115.506 194.948L115.686 195.092C115.51 195.524 115.282 195.912 115.002 196.256C114.722 196.6 114.422 196.868 114.102 197.06C113.782 197.26 113.47 197.36 113.166 197.36C112.934 197.36 112.758 197.304 112.638 197.192C112.526 197.088 112.45 196.952 112.41 196.784C112.37 196.608 112.346 196.432 112.338 196.256C112.338 196.216 112.338 196.176 112.338 196.136C112.338 196.088 112.338 196.048 112.338 196.016C112.202 196.232 112.054 196.444 111.894 196.652C111.734 196.852 111.562 197.02 111.378 197.156C111.202 197.292 111.014 197.36 110.814 197.36ZM117.419 197.312C117.123 197.312 116.883 197.232 116.699 197.072C116.515 196.92 116.423 196.712 116.423 196.448C116.423 196.224 116.479 195.984 116.591 195.728C116.703 195.472 116.815 195.22 116.927 194.972C117.047 194.724 117.107 194.504 117.107 194.312C117.107 194.128 117.047 193.976 116.927 193.856C116.807 193.728 116.667 193.624 116.507 193.544C116.331 193.984 116.131 194.412 115.907 194.828C115.691 195.236 115.515 195.556 115.379 195.788L115.199 195.44C115.311 195.232 115.459 194.936 115.643 194.552C115.827 194.168 116.003 193.74 116.171 193.268C116.091 193.188 116.051 193.08 116.051 192.944C116.051 192.736 116.115 192.54 116.243 192.356C116.371 192.172 116.495 192.08 116.615 192.08C116.711 192.08 116.779 192.136 116.819 192.248C116.867 192.352 116.891 192.424 116.891 192.464C116.891 192.504 116.871 192.576 116.831 192.68C116.799 192.784 116.775 192.86 116.759 192.908C116.767 192.996 116.835 193.084 116.963 193.172C117.099 193.252 117.251 193.348 117.419 193.46C117.587 193.572 117.735 193.712 117.863 193.88C117.991 194.048 118.055 194.26 118.055 194.516C118.055 194.748 118.003 194.984 117.899 195.224C117.795 195.464 117.691 195.688 117.587 195.896C117.483 196.104 117.431 196.284 117.431 196.436C117.431 196.548 117.459 196.624 117.515 196.664C117.579 196.696 117.651 196.712 117.731 196.712C117.923 196.712 118.123 196.656 118.331 196.544C118.539 196.424 118.743 196.272 118.943 196.088C119.143 195.904 119.319 195.712 119.471 195.512C119.623 195.304 119.739 195.116 119.819 194.948L120.107 195.164C119.955 195.508 119.735 195.848 119.447 196.184C119.159 196.512 118.839 196.784 118.487 197C118.135 197.208 117.779 197.312 117.419 197.312ZM128.952 197.372C128.64 197.372 128.408 197.28 128.256 197.096C128.104 196.912 128.028 196.692 128.028 196.436C128.028 196.252 128.056 196.068 128.112 195.884C128.168 195.7 128.224 195.52 128.28 195.344C128.336 195.16 128.364 194.996 128.364 194.852C128.364 194.716 128.336 194.624 128.28 194.576C128.232 194.52 128.168 194.492 128.088 194.492C127.904 194.492 127.688 194.632 127.44 194.912C127.2 195.192 126.9 195.6 126.54 196.136C126.412 196.328 126.292 196.532 126.18 196.748C126.068 196.956 125.968 197.132 125.88 197.276C125.808 197.276 125.712 197.264 125.592 197.24C125.48 197.216 125.38 197.18 125.292 197.132C125.204 197.092 125.16 197.036 125.16 196.964C125.16 196.892 125.2 196.752 125.28 196.544C125.36 196.336 125.452 196.096 125.556 195.824C125.66 195.544 125.752 195.272 125.832 195.008C125.912 194.736 125.952 194.508 125.952 194.324C125.952 194.212 125.932 194.124 125.892 194.06C125.852 193.996 125.788 193.964 125.7 193.964C125.532 193.964 125.328 194.064 125.088 194.264C124.856 194.464 124.608 194.728 124.344 195.056C124.088 195.376 123.844 195.736 123.612 196.136C123.388 196.528 123.204 196.924 123.06 197.324C122.972 197.324 122.864 197.304 122.736 197.264C122.608 197.232 122.496 197.188 122.4 197.132C122.304 197.084 122.256 197.04 122.256 197C122.256 196.992 122.284 196.88 122.34 196.664C122.396 196.44 122.464 196.164 122.544 195.836C122.624 195.508 122.708 195.172 122.796 194.828C122.884 194.484 122.96 194.184 123.024 193.928C123.048 193.84 123.136 193.764 123.288 193.7C123.44 193.628 123.572 193.592 123.684 193.592C123.796 193.592 123.892 193.628 123.972 193.7C124.052 193.772 124.092 193.868 124.092 193.988C124.092 194.068 124.076 194.184 124.044 194.336C124.012 194.488 123.972 194.66 123.924 194.852C124.092 194.628 124.268 194.408 124.452 194.192C124.644 193.968 124.84 193.768 125.04 193.592C125.248 193.416 125.452 193.276 125.652 193.172C125.86 193.068 126.064 193.016 126.264 193.016C126.56 193.016 126.76 193.124 126.864 193.34C126.968 193.548 127.02 193.776 127.02 194.024C127.02 194.128 127.012 194.232 126.996 194.336C126.98 194.432 126.956 194.532 126.924 194.636C126.9 194.732 126.864 194.848 126.816 194.984C126.968 194.76 127.132 194.556 127.308 194.372C127.492 194.18 127.688 194.028 127.896 193.916C128.104 193.804 128.324 193.748 128.556 193.748C128.868 193.748 129.084 193.844 129.204 194.036C129.324 194.22 129.384 194.424 129.384 194.648C129.384 194.856 129.348 195.076 129.276 195.308C129.212 195.532 129.144 195.748 129.072 195.956C129.008 196.156 128.976 196.328 128.976 196.472C128.976 196.552 128.996 196.628 129.036 196.7C129.076 196.764 129.156 196.796 129.276 196.796C129.492 196.796 129.7 196.696 129.9 196.496C130.1 196.296 130.284 196.052 130.452 195.764C130.628 195.468 130.776 195.188 130.896 194.924L131.1 195.176C130.972 195.504 130.804 195.84 130.596 196.184C130.396 196.52 130.16 196.8 129.888 197.024C129.616 197.256 129.304 197.372 128.952 197.372ZM131.99 197.528C131.478 197.528 131.082 197.388 130.802 197.108C130.53 196.836 130.394 196.492 130.394 196.076C130.394 195.724 130.482 195.352 130.658 194.96C130.842 194.56 131.086 194.188 131.39 193.844C131.694 193.492 132.03 193.208 132.398 192.992C132.766 192.776 133.134 192.668 133.502 192.668C133.71 192.668 133.906 192.724 134.09 192.836C134.282 192.94 134.378 193.152 134.378 193.472C134.378 193.776 134.29 194.06 134.114 194.324C133.938 194.588 133.702 194.824 133.406 195.032C133.11 195.24 132.782 195.412 132.422 195.548C132.07 195.676 131.714 195.76 131.354 195.8C131.346 195.832 131.338 195.868 131.33 195.908C131.33 195.94 131.33 195.996 131.33 196.076C131.33 196.116 131.334 196.188 131.342 196.292C131.358 196.388 131.394 196.492 131.45 196.604C131.506 196.716 131.598 196.812 131.726 196.892C131.854 196.972 132.03 197.012 132.254 197.012C132.59 197.012 132.926 196.92 133.262 196.736C133.606 196.544 133.926 196.292 134.222 195.98C134.526 195.668 134.778 195.32 134.978 194.936L135.218 195.128C135.002 195.608 134.722 196.028 134.378 196.388C134.042 196.748 133.666 197.028 133.25 197.228C132.842 197.428 132.422 197.528 131.99 197.528ZM131.486 195.356C131.694 195.332 131.926 195.26 132.182 195.14C132.438 195.02 132.682 194.868 132.914 194.684C133.154 194.5 133.35 194.3 133.502 194.084C133.654 193.86 133.73 193.636 133.73 193.412C133.73 193.324 133.714 193.264 133.682 193.232C133.65 193.2 133.598 193.184 133.526 193.184C133.342 193.184 133.15 193.252 132.95 193.388C132.75 193.516 132.554 193.688 132.362 193.904C132.17 194.112 131.998 194.344 131.846 194.6C131.694 194.856 131.574 195.108 131.486 195.356ZM138.732 197.24C138.42 197.24 138.18 197.16 138.012 197C137.852 196.848 137.771 196.652 137.771 196.412C137.771 196.252 137.799 196.084 137.855 195.908C137.912 195.724 137.968 195.54 138.024 195.356C138.08 195.172 138.108 194.996 138.108 194.828C138.108 194.652 138.064 194.532 137.976 194.468C137.896 194.396 137.799 194.36 137.688 194.36C137.448 194.36 137.2 194.46 136.944 194.66C136.696 194.852 136.452 195.096 136.212 195.392C135.98 195.688 135.76 195.996 135.552 196.316C135.344 196.636 135.164 196.924 135.012 197.18C134.86 197.18 134.716 197.152 134.579 197.096C134.443 197.048 134.327 196.96 134.231 196.832C134.239 196.792 134.287 196.672 134.375 196.472C134.455 196.264 134.547 196.02 134.651 195.74C134.756 195.452 134.848 195.152 134.928 194.84C135.008 194.528 135.048 194.244 135.048 193.988C135.104 193.924 135.188 193.86 135.3 193.796C135.42 193.732 135.544 193.7 135.672 193.7C135.952 193.7 136.092 193.82 136.092 194.06C136.092 194.156 136.072 194.3 136.032 194.492C136 194.676 135.952 194.888 135.888 195.128C136.096 194.848 136.324 194.584 136.572 194.336C136.82 194.088 137.076 193.888 137.34 193.736C137.612 193.576 137.884 193.496 138.156 193.496C138.5 193.496 138.752 193.612 138.912 193.844C139.08 194.076 139.164 194.332 139.164 194.612C139.164 194.852 139.124 195.076 139.044 195.284C138.964 195.492 138.884 195.688 138.804 195.872C138.732 196.056 138.696 196.236 138.696 196.412C138.696 196.54 138.724 196.632 138.78 196.688C138.844 196.736 138.912 196.76 138.984 196.76C139.176 196.76 139.376 196.668 139.584 196.484C139.792 196.3 139.988 196.068 140.172 195.788C140.364 195.5 140.532 195.212 140.676 194.924L140.88 195.092C140.712 195.484 140.52 195.844 140.304 196.172C140.096 196.492 139.86 196.752 139.596 196.952C139.34 197.144 139.052 197.24 138.732 197.24ZM141.271 197.36C140.999 197.36 140.775 197.236 140.599 196.988C140.431 196.732 140.347 196.44 140.347 196.112C140.347 195.888 140.383 195.624 140.455 195.32C140.527 195.016 140.619 194.72 140.731 194.432C140.851 194.144 140.971 193.904 141.091 193.712C141.219 193.52 141.335 193.424 141.439 193.424C141.495 193.424 141.579 193.456 141.691 193.52C141.811 193.576 141.915 193.648 142.003 193.736C141.915 193.864 141.807 194.06 141.679 194.324C141.559 194.588 141.451 194.872 141.355 195.176C141.259 195.48 141.211 195.756 141.211 196.004C141.211 196.036 141.215 196.112 141.223 196.232C141.239 196.352 141.271 196.464 141.319 196.568C141.367 196.672 141.451 196.724 141.571 196.724C141.707 196.724 141.851 196.652 142.003 196.508C142.163 196.356 142.323 196.164 142.483 195.932C142.651 195.692 142.811 195.436 142.963 195.164C143.123 194.892 143.263 194.628 143.383 194.372C143.511 194.116 143.615 193.9 143.695 193.724C143.767 193.732 143.859 193.752 143.971 193.784C144.091 193.816 144.195 193.86 144.283 193.916C144.371 193.964 144.415 194.036 144.415 194.132C144.415 194.156 144.375 194.256 144.295 194.432C144.223 194.6 144.135 194.804 144.031 195.044C143.935 195.284 143.847 195.532 143.767 195.788C143.695 196.036 143.659 196.256 143.659 196.448C143.659 196.56 143.679 196.66 143.719 196.748C143.767 196.828 143.855 196.868 143.983 196.868C144.151 196.868 144.351 196.792 144.583 196.64C144.815 196.488 145.055 196.268 145.303 195.98C145.551 195.692 145.771 195.348 145.963 194.948L146.143 195.092C145.967 195.524 145.739 195.912 145.459 196.256C145.179 196.6 144.879 196.868 144.559 197.06C144.239 197.26 143.927 197.36 143.623 197.36C143.391 197.36 143.215 197.304 143.095 197.192C142.983 197.088 142.907 196.952 142.867 196.784C142.827 196.608 142.803 196.432 142.795 196.256C142.795 196.216 142.795 196.176 142.795 196.136C142.795 196.088 142.795 196.048 142.795 196.016C142.659 196.232 142.511 196.444 142.351 196.652C142.191 196.852 142.019 197.02 141.835 197.156C141.659 197.292 141.471 197.36 141.271 197.36Z" fill="#FF9A04"/>
<path d="M73.0474 212V207.8H75.0154C75.5194 207.8 75.9034 207.9 76.1674 208.1C76.4314 208.296 76.5634 208.56 76.5634 208.892C76.5634 209.116 76.5114 209.308 76.4074 209.468C76.3034 209.624 76.1634 209.746 75.9874 209.834C75.8154 209.918 75.6274 209.96 75.4234 209.96L75.5314 209.744C75.7674 209.744 75.9794 209.788 76.1674 209.876C76.3554 209.96 76.5034 210.084 76.6114 210.248C76.7234 210.412 76.7794 210.616 76.7794 210.86C76.7794 211.22 76.6414 211.5 76.3654 211.7C76.0894 211.9 75.6794 212 75.1354 212H73.0474ZM73.8274 211.388H75.0874C75.3794 211.388 75.6034 211.34 75.7594 211.244C75.9154 211.148 75.9934 210.994 75.9934 210.782C75.9934 210.574 75.9154 210.422 75.7594 210.326C75.6034 210.226 75.3794 210.176 75.0874 210.176H73.7674V209.57H74.9314C75.2034 209.57 75.4114 209.522 75.5554 209.426C75.7034 209.33 75.7774 209.186 75.7774 208.994C75.7774 208.798 75.7034 208.652 75.5554 208.556C75.4114 208.46 75.2034 208.412 74.9314 208.412H73.8274V211.388ZM77.8039 213.206C77.6479 213.206 77.4919 213.18 77.3359 213.128C77.1799 213.076 77.0499 213.004 76.9459 212.912L77.2459 212.36C77.3219 212.428 77.4079 212.482 77.5039 212.522C77.5999 212.562 77.6979 212.582 77.7979 212.582C77.9339 212.582 78.0439 212.548 78.1279 212.48C78.2119 212.412 78.2899 212.298 78.3619 212.138L78.5479 211.718L78.6079 211.628L79.8199 208.796H80.5399L79.0399 212.258C78.9399 212.498 78.8279 212.688 78.7039 212.828C78.5839 212.968 78.4479 213.066 78.2959 213.122C78.1479 213.178 77.9839 213.206 77.8039 213.206ZM78.4639 212.114L77.0179 208.796H77.7979L78.9739 211.562L78.4639 212.114Z" fill="#001D2B"/>
<g clip-path="url(#clip0_653_12)">
<path d="M46.1271 224H41V229.191H46.1271V224ZM45.271 228.324H41.8561V224.867H45.2726V228.326L45.271 228.324Z" fill="#1A1A1A"/>
<path d="M44.4166 225.732H42.7107V227.459H44.4166V225.732Z" fill="#1A1A1A"/>
<path d="M41 237.84H46.1271V232.649H41V237.84ZM41.8561 233.515H45.2726V236.975H41.8561V233.515Z" fill="#1A1A1A"/>
<path d="M44.4166 234.381H42.7107V236.108H44.4166V234.381Z" fill="#1A1A1A"/>
<path d="M49.542 224V229.191H54.6691V224H49.542ZM53.8146 228.324H50.3981V224.867H53.8146V228.326V228.324Z" fill="#1A1A1A"/>
<path d="M52.9586 225.732H51.2527V227.459H52.9586V225.732Z" fill="#1A1A1A"/>
<path d="M42.7106 230.056H41V231.784H43.5604V230.917H42.7106V230.056Z" fill="#1A1A1A"/>
<path d="M45.2709 230.056H43.5603V230.918H45.2709V230.056Z" fill="#1A1A1A"/>
<path d="M46.1271 230.056V230.917H45.271V231.784H46.9816V230.056H46.1255H46.1271Z" fill="#1A1A1A"/>
<path d="M48.6876 227.459H47.8315V229.191H48.6876V227.459Z" fill="#1A1A1A"/>
<path d="M47.8331 229.191H46.9817V230.058H47.8331V229.191Z" fill="#1A1A1A"/>
<path d="M48.6859 230.055H47.8345V230.921H48.6859V230.055Z" fill="#1A1A1A"/>
<path d="M48.6876 226.592V224.867H47.8315V224H46.9817V227.459H47.8315V226.592H48.6876Z" fill="#1A1A1A"/>
<path d="M48.7359 231.863H47.03V233.595H48.7359V231.863Z" fill="#1A1A1A"/>
<path d="M48.7359 234.46H47.03V235.32H47.8799V236.187H48.7359V234.46Z" fill="#1A1A1A"/>
<path d="M47.8814 236.187H47.03V237.919H47.8814V236.187Z" fill="#1A1A1A"/>
<path d="M49.5922 233.595H48.7361V234.462H49.5922V233.595Z" fill="#1A1A1A"/>
<path d="M49.5922 236.187H48.7361V237.054H49.5922V236.187Z" fill="#1A1A1A"/>
<path d="M54.7005 229.793C53.6363 231.159 53.101 232.684 53.0416 234.404C53.0306 234.698 53.1323 234.799 53.3968 234.772C53.6253 234.748 53.6926 234.816 53.6926 234.965V238H54.7522C54.7522 238 54.6989 231.248 54.6989 229.793H54.7005Z" fill="#FFA808"/>
<path d="M52.4922 231.267C52.4922 230.809 52.5016 230.438 52.4954 230.067C52.4954 230.05 52.4985 230.033 52.4985 230.017V229.785H51.8881V231.898H51.4562V229.785H50.8458V231.898H50.3872V229.785H49.7769V230.11C49.7769 230.852 49.7659 231.593 49.7863 232.335C49.8003 232.837 49.9741 233.3 50.4467 233.546C50.7112 233.684 50.6924 233.885 50.6924 234.102V236.632C50.6924 236.827 50.6924 237.022 50.6924 237.217C50.6924 237.238 50.6924 237.258 50.6924 237.279V237.998H51.608V237.387C51.608 237.336 51.6142 237.284 51.6142 237.23C51.608 236.306 51.608 235.381 51.608 234.457V234.107C51.608 233.825 51.6784 233.588 52.0008 233.42C52.2637 233.284 52.3686 232.977 52.4375 232.676C52.5141 232.335 52.5001 231.994 52.5001 231.679V231.365C52.5001 231.332 52.4922 231.297 52.4938 231.265L52.4922 231.267Z" fill="#FFA808"/>
<path d="M60.5162 235.438V227.781H57.937V226.564H64.5102V227.781H61.931V235.438H60.5162Z" fill="black"/>
<path d="M64.4727 235.438L67.6779 226.564H69.2554L72.4607 235.438H70.9582L70.232 233.333H66.6888L65.9501 235.438H64.4727ZM67.1019 232.18H69.8314L68.4541 228.25L67.1019 232.18Z" fill="black"/>
<path d="M73.9004 235.438V226.564H77.1181C78.0024 226.564 78.6847 226.767 79.1652 227.172C79.6457 227.578 79.8851 228.111 79.8851 228.77C79.8851 229.259 79.7646 229.665 79.522 229.987C79.2795 230.308 78.979 230.537 78.6206 230.671C78.9383 230.79 79.2216 230.958 79.472 231.178C79.7224 231.399 79.9211 231.655 80.0667 231.952C80.2122 232.248 80.2858 232.573 80.2858 232.928C80.2858 233.402 80.1778 233.828 79.9603 234.208C79.7427 234.588 79.4234 234.888 79.0024 235.108C78.5814 235.328 78.0572 235.438 77.4311 235.438H73.9004ZM75.3277 230.177H77.0054C77.489 230.177 77.849 230.074 78.0822 229.866C78.3154 229.659 78.4328 229.361 78.4328 228.973C78.4328 228.584 78.3154 228.299 78.0822 228.092C77.849 227.884 77.4812 227.781 76.9804 227.781H75.3277V230.177ZM75.3277 234.221H77.2308C77.7567 234.221 78.1573 234.102 78.4328 233.866C78.7082 233.63 78.8459 233.275 78.8459 232.801C78.8459 232.327 78.7004 231.972 78.4077 231.736C78.1151 231.5 77.7144 231.381 77.2058 231.381H75.3277V234.221Z" fill="black"/>
<path d="M81.926 235.438V226.564H83.3533V234.233H87.2347V235.438H81.926Z" fill="black"/>
<path d="M88.8999 235.438V226.564H94.4589V227.781H90.3272V230.152H93.8955V231.356H90.3272V234.221H94.4589V235.438H88.8999Z" fill="black"/>
<path d="M103.948 235.59L103.072 234.728C102.696 235.007 102.281 235.221 101.826 235.368C101.37 235.515 100.888 235.59 100.38 235.59C99.7708 235.59 99.1965 235.481 98.6581 235.26C98.1197 235.04 97.6486 234.729 97.2433 234.329C96.8379 233.928 96.5234 233.446 96.298 232.883C96.0726 232.321 95.96 231.693 95.96 231.001C95.96 230.308 96.0726 229.681 96.298 229.118C96.5234 228.556 96.8379 228.074 97.2433 227.673C97.6486 227.272 98.1182 226.962 98.6518 226.741C99.1855 226.521 99.7615 226.412 100.38 226.412C100.998 226.412 101.574 226.52 102.107 226.735C102.641 226.951 103.111 227.26 103.516 227.661C103.921 228.061 104.237 228.546 104.468 229.112C104.698 229.678 104.812 230.308 104.812 231.001C104.812 231.551 104.738 232.059 104.593 232.528C104.447 232.997 104.241 233.414 103.973 233.777L104.862 234.626L103.948 235.59ZM97.4248 231.001C97.4248 231.703 97.5579 232.3 97.8255 232.795C98.0931 233.289 98.4515 233.663 98.9022 233.917C99.353 234.17 99.846 234.297 100.38 234.297C100.722 234.297 101.039 234.257 101.331 234.176C101.624 234.096 101.887 233.972 102.12 233.802L100.768 232.471L101.682 231.508L102.971 232.788C103.097 232.56 103.19 232.299 103.253 232.002C103.316 231.706 103.347 231.373 103.347 231.001C103.347 230.283 103.214 229.678 102.946 229.188C102.679 228.698 102.32 228.328 101.87 228.079C101.419 227.83 100.923 227.705 100.38 227.705C99.8366 227.705 99.353 227.832 98.9022 228.085C98.4515 228.339 98.0931 228.711 97.8255 229.201C97.5579 229.69 97.4248 230.291 97.4248 231.001Z" fill="#FFA808"/>
<path d="M106.565 235.438V226.564H109.457C110.075 226.564 110.604 226.661 111.047 226.856C111.49 227.05 111.831 227.332 112.074 227.705C112.316 228.077 112.437 228.542 112.437 229.099C112.437 229.751 112.268 230.261 111.93 230.633C111.592 231.006 111.127 231.259 110.534 231.394L113 235.438H111.31L109.119 231.635H107.992V235.438H106.565ZM107.992 230.418H109.432C109.833 230.418 110.147 230.362 110.377 230.253C110.607 230.144 110.767 229.988 110.859 229.79C110.952 229.592 110.997 229.361 110.997 229.099C110.997 228.838 110.952 228.594 110.859 228.396C110.767 228.198 110.607 228.046 110.377 227.939C110.147 227.833 109.833 227.781 109.432 227.781H107.992V230.418Z" fill="#FFA808"/>
</g>
<defs>
<clipPath id="clip0_653_12">
<rect width="72" height="14" fill="white" transform="translate(41 224)"/>
</clipPath>
</defs>
</svg>
