<?xml version="1.0" encoding="UTF-8"?>
<svg id="Layer_1" data-name="Layer 1" xmlns="http://www.w3.org/2000/svg" viewBox="0 0 460.05 88.35">
  <g>
    <path d="M32.76,0H0v32.76h32.76V0ZM27.29,27.29H5.47V5.47h21.83v21.83ZM27.29,27.29" fill="#1a1a1a" stroke-width="0"/>
    <rect x="10.93" y="10.93" width="10.9" height="10.9" fill="#1a1a1a" stroke-width="0"/>
    <path d="M0,87.34h32.76v-32.76H0v32.76ZM5.47,60.05h21.83v21.83H5.47v-21.83ZM5.47,60.05" fill="#1a1a1a" stroke-width="0"/>
    <rect x="10.93" y="65.51" width="10.9" height="10.9" fill="#1a1a1a" stroke-width="0"/>
    <path d="M54.58,0v32.76h32.76V0h-32.76ZM81.88,27.29h-21.83V5.47h21.83v21.83ZM81.88,27.29" fill="#1a1a1a" stroke-width="0"/>
    <rect x="65.51" y="10.93" width="10.9" height="10.9" fill="#1a1a1a" stroke-width="0"/>
    <path d="M10.93,38.22H0v10.9h16.36v-5.47h-5.43v-5.43ZM10.93,38.22" fill="#1a1a1a" stroke-width="0"/>
    <rect x="16.36" y="38.22" width="10.93" height="5.44" fill="#1a1a1a" stroke-width="0"/>
    <path d="M32.76,38.22v5.43h-5.47v5.47h10.93v-10.9h-5.47ZM32.76,38.22" fill="#1a1a1a" stroke-width="0"/>
    <rect x="43.65" y="21.83" width="5.47" height="10.93" fill="#1a1a1a" stroke-width="0"/>
    <rect x="38.22" y="32.76" width="5.44" height="5.47" fill="#1a1a1a" stroke-width="0"/>
    <rect x="43.67" y="38.21" width="5.44" height="5.47" fill="#1a1a1a" stroke-width="0"/>
    <path d="M49.12,16.36V5.47h-5.47V0h-5.43v21.83h5.43v-5.47h5.47ZM49.12,16.36" fill="#1a1a1a" stroke-width="0"/>
    <rect x="38.53" y="49.62" width="10.9" height="10.93" fill="#1a1a1a" stroke-width="0"/>
    <path d="M49.43,66.01h-10.9v5.43h5.43v5.47h5.47v-10.9ZM49.43,66.01" fill="#1a1a1a" stroke-width="0"/>
    <rect x="38.53" y="76.91" width="5.44" height="10.93" fill="#1a1a1a" stroke-width="0"/>
    <rect x="49.43" y="60.55" width="5.47" height="5.47" fill="#1a1a1a" stroke-width="0"/>
    <rect x="49.43" y="76.91" width="5.47" height="5.47" fill="#1a1a1a" stroke-width="0"/>
    <path d="M87.54,36.56c-6.8,8.62-10.22,18.24-10.6,29.1-.07,1.85.58,2.49,2.27,2.32,1.46-.15,1.89.28,1.89,1.22v19.15h6.77s-.34-42.61-.34-51.79Z" fill="#ffa808" stroke-width="0"/>
    <path d="M73.43,45.86c0-2.89.06-5.23.02-7.57,0-.11.02-.22.02-.32v-1.46h-3.9v13.33h-2.76v-13.33h-3.9v13.33h-2.93v-13.33h-3.9v2.05c0,4.68-.07,9.36.06,14.04.09,3.17,1.2,6.09,4.22,7.64,1.69.87,1.57,2.14,1.57,3.51v15.97c0,1.23,0,2.46,0,3.69,0,.13,0,.26,0,.39v4.54h5.85v-3.86c0-.32.04-.65.04-.99-.04-5.83-.04-11.67-.04-17.5v-2.21c0-1.78.45-3.27,2.51-4.33,1.68-.86,2.35-2.8,2.79-4.7.49-2.15.4-4.3.4-6.29v-1.98c0-.21-.05-.43-.04-.63Z" fill="#ffa808" stroke-width="0"/>
  </g>
  <g>
    <path d="M124.7,72.18V23.86h-16.48v-7.68h42v7.68h-16.48v48.32h-9.04Z" stroke-width="0"/>
    <path d="M149.98,72.18l20.48-56h10.08l20.48,56h-9.6l-4.64-13.28h-22.64l-4.72,13.28h-9.44ZM166.78,51.62h17.44l-8.8-24.8-8.64,24.8Z" stroke-width="0"/>
    <path d="M210.22,72.18V16.18h20.56c5.65,0,10.01,1.28,13.08,3.84,3.07,2.56,4.6,5.92,4.6,10.08,0,3.09-.77,5.65-2.32,7.68-1.55,2.03-3.47,3.47-5.76,4.32,2.03.75,3.84,1.81,5.44,3.2,1.6,1.39,2.87,3.01,3.8,4.88.93,1.87,1.4,3.92,1.4,6.16,0,2.99-.69,5.68-2.08,8.08-1.39,2.4-3.43,4.29-6.12,5.68-2.69,1.39-6.04,2.08-10.04,2.08h-22.56ZM219.34,38.98h10.72c3.09,0,5.39-.65,6.88-1.96,1.49-1.31,2.24-3.19,2.24-5.64s-.75-4.25-2.24-5.56c-1.49-1.31-3.84-1.96-7.04-1.96h-10.56v15.12ZM219.34,64.5h12.16c3.36,0,5.92-.75,7.68-2.24,1.76-1.49,2.64-3.73,2.64-6.72s-.93-5.23-2.8-6.72c-1.87-1.49-4.43-2.24-7.68-2.24h-12v17.92Z" stroke-width="0"/>
    <path d="M261.5,72.18V16.18h9.12v48.4h24.8v7.6h-33.92Z" stroke-width="0"/>
    <path d="M306.06,72.18V16.18h35.52v7.68h-26.4v14.96h22.8v7.6h-22.8v18.08h26.4v7.68h-35.52Z" stroke-width="0"/>
    <path d="M402.21,73.14l-5.6-5.44c-2.4,1.76-5.05,3.11-7.96,4.04-2.91.93-5.99,1.4-9.24,1.4-3.89,0-7.56-.69-11-2.08-3.44-1.39-6.45-3.35-9.04-5.88-2.59-2.53-4.6-5.57-6.04-9.12-1.44-3.55-2.16-7.51-2.16-11.88s.72-8.33,2.16-11.88c1.44-3.55,3.45-6.59,6.04-9.12,2.59-2.53,5.59-4.49,9-5.88,3.41-1.39,7.09-2.08,11.04-2.08s7.63.68,11.04,2.04,6.41,3.31,9,5.84c2.59,2.53,4.61,5.59,6.08,9.16,1.47,3.57,2.2,7.55,2.2,11.92,0,3.47-.47,6.68-1.4,9.64-.93,2.96-2.25,5.59-3.96,7.88l5.68,5.36-5.84,6.08ZM360.53,44.18c0,4.43.85,8.2,2.56,11.32,1.71,3.12,4,5.48,6.88,7.08s6.03,2.4,9.44,2.4c2.19,0,4.21-.25,6.08-.76,1.87-.51,3.55-1.29,5.04-2.36l-8.64-8.4,5.84-6.08,8.24,8.08c.8-1.44,1.4-3.09,1.8-4.96.4-1.87.6-3.97.6-6.32,0-4.53-.85-8.35-2.56-11.44-1.71-3.09-4-5.43-6.88-7-2.88-1.57-6.05-2.36-9.52-2.36s-6.56.8-9.44,2.4-5.17,3.95-6.88,7.04c-1.71,3.09-2.56,6.88-2.56,11.36Z" fill="#ffa808" stroke-width="0"/>
    <path d="M418.93,72.18V16.18h18.48c3.95,0,7.33.61,10.16,1.84,2.83,1.23,5.01,3.01,6.56,5.36,1.55,2.35,2.32,5.28,2.32,8.8,0,4.11-1.08,7.33-3.24,9.68-2.16,2.35-5.13,3.95-8.92,4.8l15.76,25.52h-10.8l-14-24h-7.2v24h-9.12ZM428.05,40.5h9.2c2.56,0,4.57-.35,6.04-1.04,1.47-.69,2.49-1.67,3.08-2.92.59-1.25.88-2.71.88-4.36s-.29-3.19-.88-4.44c-.59-1.25-1.61-2.21-3.08-2.88-1.47-.67-3.48-1-6.04-1h-9.2v16.64Z" fill="#ffa808" stroke-width="0"/>
  </g>
</svg>