<svg width="27" height="27" viewBox="0 0 27 27" fill="none" xmlns="http://www.w3.org/2000/svg">
<path fill-rule="evenodd" clip-rule="evenodd" d="M5.0625 13.5C5.0625 11.0207 6.13184 8.7912 7.83444 7.24749C7.67797 7.75715 7.59375 8.29843 7.59375 8.85938C7.59375 11.8883 10.0492 14.3438 13.0781 14.3438C15.1751 14.3438 16.875 16.0436 16.875 18.1406C16.875 20.1808 15.2658 21.8453 13.2474 21.9338C8.70436 21.8003 5.0625 18.0754 5.0625 13.5ZM3.375 13.5C3.375 8.44587 7.07817 4.25666 11.9193 3.49768C12.2928 3.41731 12.6805 3.375 13.0781 3.375V3.38363C13.2181 3.37789 13.3587 3.375 13.5 3.375C19.0919 3.375 23.625 7.90812 23.625 13.5C23.625 19.0919 19.0919 23.625 13.5 23.625C13.4188 23.625 13.3378 23.624 13.257 23.6222C13.1976 23.624 13.138 23.625 13.0781 23.625V23.6163C7.68188 23.3952 3.375 18.9505 3.375 13.5ZM9.28125 8.85938C9.28125 7.05336 10.5422 5.54185 12.2317 5.15719C12.6454 5.09483 13.0689 5.0625 13.5 5.0625C18.1599 5.0625 21.9375 8.84009 21.9375 13.5C21.9375 16.5293 20.3411 19.1858 17.9436 20.6739C18.339 19.9161 18.5625 19.0545 18.5625 18.1406C18.5625 15.1117 16.1071 12.6562 13.0781 12.6562C10.9812 12.6562 9.28125 10.9563 9.28125 8.85938ZM14.3438 8.85938C14.3438 8.16039 13.7771 7.59375 13.0781 7.59375C12.3792 7.59375 11.8125 8.16039 11.8125 8.85938C11.8125 9.55836 12.3792 10.125 13.0781 10.125C13.7771 10.125 14.3438 9.55836 14.3438 8.85938ZM14.3438 18.1406C14.3438 17.4417 13.7771 16.875 13.0781 16.875C12.3792 16.875 11.8125 17.4417 11.8125 18.1406C11.8125 18.8396 12.3792 19.4062 13.0781 19.4062C13.7771 19.4062 14.3438 18.8396 14.3438 18.1406Z" fill="#080341"/>
</svg>
