<svg width="26" height="26" viewBox="0 0 26 26" fill="none" xmlns="http://www.w3.org/2000/svg">
<path d="M16.8594 4.8815C16.8594 -0.193372 9.13981 -0.194997 9.14062 4.8815V15.6374C8.13719 16.6319 7.51562 18.0107 7.51562 19.5341C7.51562 22.5631 9.971 25.0185 13 25.0185C16.029 25.0185 18.4844 22.5631 18.4844 19.5341C18.4844 18.0107 17.8628 16.6319 16.8594 15.6374V4.8815ZM13 23.7656C10.6437 23.7656 8.73438 21.8554 8.73438 19.4992C8.73438 18.2374 9.282 17.1039 10.1522 16.3231L10.1562 16.3199L10.1611 16.3101C10.2667 16.211 10.3358 16.0745 10.3488 15.9226V15.9201C10.3496 15.9088 10.3545 15.9006 10.3553 15.8893L10.3602 15.8657V4.88069C10.3578 4.83763 10.3561 4.78725 10.3561 4.73607C10.3561 3.35157 11.4782 2.2295 12.8627 2.2295C12.9114 2.2295 12.9602 2.23113 13.0081 2.23357H13.0016C13.0431 2.23113 13.091 2.2295 13.1398 2.2295C14.5243 2.2295 15.6463 3.35157 15.6463 4.73607C15.6463 4.78725 15.6447 4.83763 15.6414 4.88719V4.88069V15.8657L15.6463 15.8893L15.652 15.9185C15.6642 16.0737 15.7341 16.211 15.8397 16.3101L15.8446 16.3199C16.7188 17.1048 17.2664 18.2382 17.2664 19.4992C17.2664 21.8554 15.3563 23.7648 13 23.7656ZM13.6094 17.3607V14.3016C13.6094 13.9653 13.3364 13.6923 13 13.6923C12.6636 13.6923 12.3906 13.9653 12.3906 14.3016V17.3607C11.4449 17.6353 10.7656 18.4933 10.7656 19.5106C10.7656 20.7448 11.7658 21.7449 13 21.7449C14.2342 21.7449 15.2344 20.7448 15.2344 19.5106C15.2344 18.4933 14.5551 17.6353 13.6248 17.3648L13.6094 17.3607ZM21.5312 1.82813C20.0728 1.82813 18.8906 3.01032 18.8906 4.46875C18.8906 5.92719 20.0728 7.10938 21.5312 7.10938C22.9897 7.10938 24.1719 5.92719 24.1719 4.46875C24.1702 3.01113 22.9889 1.82975 21.5312 1.82813ZM21.5312 5.89063C20.7464 5.89063 20.1094 5.25363 20.1094 4.46875C20.1094 3.68388 20.7464 3.04688 21.5312 3.04688C22.3161 3.04688 22.9531 3.68388 22.9531 4.46875C22.9523 5.25363 22.3161 5.88982 21.5312 5.89063Z" fill="black"/>
</svg>
